<svg width="76" height="16" viewBox="0 0 76 16" fill="none" xmlns="http://www.w3.org/2000/svg">
<path d="M30.9902 7.23574C31.055 8.20789 31.8629 8.84075 33.0289 8.84075C34.294 8.84075 35.0866 8.21171 35.0866 7.20524C35.0866 6.41608 34.6255 5.97765 33.4862 5.69173L32.9108 5.53923C32.1639 5.3448 31.859 5.09699 31.859 4.68145C31.859 4.1439 32.3544 3.7741 33.067 3.7741C33.7834 3.7741 34.2597 4.13628 34.3207 4.72719H35.0066C34.9761 3.8046 34.1835 3.15649 33.0899 3.15649C31.9467 3.15649 31.1465 3.79697 31.1465 4.71194C31.1465 5.45917 31.5961 5.90522 32.6097 6.16446L33.3147 6.34745C34.0539 6.53807 34.3778 6.824 34.3778 7.28911C34.3778 7.83047 33.8367 8.22314 33.0937 8.22314C32.3087 8.22314 31.7447 7.83047 31.6799 7.23574H30.9902Z" fill="white"/>
<path d="M38.9878 3.15649C37.4293 3.15649 36.4538 4.25446 36.4538 6.00053C36.4538 7.7466 37.4293 8.84075 38.9878 8.84075C40.5464 8.84075 41.5219 7.7466 41.5219 6.00053C41.5219 4.25446 40.5464 3.15649 38.9878 3.15649ZM38.9878 3.78935C40.112 3.78935 40.8169 4.64332 40.8169 6.00053C40.8169 7.35392 40.112 8.20789 38.9878 8.20789C37.8637 8.20789 37.1588 7.35392 37.1588 6.00053C37.1588 4.64332 37.8637 3.78935 38.9878 3.78935Z" fill="white"/>
<path d="M43.8417 8.74925V6.36652H46.2767V5.75654H43.8417V3.8656H46.4939V3.24799H43.1558V8.74925H43.8417Z" fill="white"/>
<path d="M50.136 8.74925V3.8656H51.8698V3.24799H47.7163V3.8656H49.4501V8.74925H50.136Z" fill="white"/>
<path d="M56.4265 4.38408H56.4646L57.7335 8.74925H58.3813L59.8789 3.24799H59.1625L58.0612 7.73897H58.0307L56.7923 3.24799H56.0988L54.8604 7.73897H54.8299L53.7286 3.24799H53.0122L54.5098 8.74925H55.1576L56.4265 4.38408Z" fill="white"/>
<path d="M64.4432 8.74925H65.1633L63.1361 3.24799H62.4579L60.4306 8.74925H61.1508L61.7034 7.17474H63.8906L64.4432 8.74925ZM62.7856 4.0829H62.8084L63.6887 6.59145H61.9053L62.7856 4.0829Z" fill="white"/>
<path d="M67.2584 3.85797H68.5426C69.2513 3.85797 69.6781 4.25065 69.6781 4.91019C69.6781 5.58498 69.278 5.96622 68.573 5.96622H67.2584V3.85797ZM67.2584 6.57238H68.573L69.7505 8.74925H70.5545L69.2818 6.46564C69.9715 6.24833 70.3869 5.6536 70.3869 4.88731C70.3869 3.8961 69.6933 3.24799 68.634 3.24799H66.5725V8.74925H67.2584V6.57238Z" fill="white"/>
<path d="M75.4389 8.13165H72.7182V6.24071H75.2979V5.63073H72.7182V3.8656H75.4389V3.24799H72.0323V8.74925H75.4389V8.13165Z" fill="white"/>
<path d="M30.9902 14.176C31.055 15.1481 31.8629 15.781 33.0289 15.781C34.294 15.781 35.0866 15.1519 35.0866 14.1455C35.0866 13.3563 34.6255 12.9179 33.4862 12.6319L32.9108 12.4795C32.1639 12.285 31.859 12.0372 31.859 11.6217C31.859 11.0841 32.3544 10.7143 33.067 10.7143C33.7834 10.7143 34.2597 11.0765 34.3207 11.6674H35.0066C34.9761 10.7448 34.1835 10.0967 33.0899 10.0967C31.9467 10.0967 31.1465 10.7372 31.1465 11.6522C31.1465 12.3994 31.5961 12.8454 32.6097 13.1047L33.3147 13.2877C34.0539 13.4783 34.3778 13.7642 34.3778 14.2293C34.3778 14.7707 33.8367 15.1634 33.0937 15.1634C32.3087 15.1634 31.7447 14.7707 31.6799 14.176H30.9902Z" fill="white"/>
<path d="M38.744 15.6895V10.8058H40.4778V10.1882H36.3243V10.8058H38.0581V15.6895H38.744Z" fill="white"/>
<path d="M42.6681 10.1882H41.9822V13.7604C41.9822 14.9346 42.8015 15.781 44.1656 15.781C45.5298 15.781 46.3491 14.9346 46.3491 13.7604V10.1882H45.6632V13.7147C45.6632 14.5458 45.1183 15.1481 44.1656 15.1481C43.213 15.1481 42.6681 14.5458 42.6681 13.7147V10.1882Z" fill="white"/>
<path d="M48.1964 10.1882V15.6895H50.0446C51.6793 15.6895 52.6396 14.6716 52.6396 12.9369C52.6396 11.2061 51.6755 10.1882 50.0446 10.1882H48.1964ZM48.8823 10.8058H49.9988C51.2487 10.8058 51.9384 11.5683 51.9384 12.9446C51.9384 14.3094 51.2449 15.0719 49.9988 15.0719H48.8823V10.8058Z" fill="white"/>
<path d="M54.9594 15.6895V10.1882H54.2735V15.6895H54.9594Z" fill="white"/>
<path d="M59.1274 10.0967C57.5689 10.0967 56.5934 11.1947 56.5934 12.9407C56.5934 14.6868 57.5689 15.781 59.1274 15.781C60.6859 15.781 61.6614 14.6868 61.6614 12.9407C61.6614 11.1947 60.6859 10.0967 59.1274 10.0967ZM59.1274 10.7296C60.2515 10.7296 60.9565 11.5835 60.9565 12.9407C60.9565 14.2941 60.2515 15.1481 59.1274 15.1481C58.0033 15.1481 57.2984 14.2941 57.2984 12.9407C57.2984 11.5835 58.0033 10.7296 59.1274 10.7296Z" fill="white"/>
<path d="M7.76282 16C11.0371 16 13.1404 14.2219 13.1404 11.5548C13.1404 9.53821 11.4274 7.97698 9.34574 7.91193V7.84688C11.1238 7.60835 12.4682 6.28564 12.4682 4.52925C12.4682 2.14402 10.6251 0.712891 7.50261 0.712891H0V16H7.76282ZM4.48856 3.792H6.28831C7.41587 3.792 8.08807 4.37746 8.08807 5.30986C8.08807 6.24227 7.37251 6.84942 6.22326 6.84942H4.48856V3.792ZM4.48856 12.9209V9.40811H6.4401C7.7845 9.40811 8.5868 10.0586 8.5868 11.1428C8.5868 12.2921 7.7845 12.9209 6.39673 12.9209H4.48856Z" fill="white"/>
<path d="M12.5967 2.99023H16.5032L19.3903 10.5161H19.4619L22.3398 2.99023H26.7195V15.8881H23.4123V8.41578H23.3411L20.4359 15.7361H18.4071L15.5023 8.41578H15.4307V15.8881H12.1235V14.9358C13.0957 14.1571 13.6454 13.0286 13.6454 11.6637C13.6454 10.4686 13.0426 9.43617 12.1235 8.78084V6.81342C12.6456 6.24208 12.9571 5.49389 12.9571 4.64398C12.9571 4.02586 12.8338 3.4719 12.5967 2.99023Z" fill="white"/>
</svg>
