<svg width="399" height="380" viewBox="0 0 399 380" fill="none" xmlns="http://www.w3.org/2000/svg">
<path fill-rule="evenodd" clip-rule="evenodd" d="M236.374 129.432L238.009 135.064L238.273 135.535L238.711 136.067L239.726 136.973L240.711 137.671L241.235 137.952L241.473 138.117L243.796 140.774L244.231 141.44L244.543 142.481L244.771 145.559L245.29 148.172L245.03 149.132L244.678 149.603L244.239 149.995L243.592 150.228L242.187 150.392L240.728 152.001L240.35 152.124L239.915 152.222L239.576 152.117L239.302 151.978L238.237 151.806L235.179 151.842L235.068 151.904L229.725 153.819L226.662 158.927L226.46 159.893L226.653 160.046L227.096 160.309L229.416 161.33L226.067 166.792L225.203 167.734L223.765 168.725L221.724 170.584L220.949 171.867L220.591 172.632L220.512 173.151L220.524 173.519L220.578 173.849L220.704 174.142L220.878 174.363L221.133 174.497L221.464 174.51L221.797 174.472L223.21 173.922L224.15 173.671L224.491 173.641L225.185 173.739L225.854 173.898L230.14 172.931L231.097 173.066L231.349 174.191L231.596 174.767L231.796 175.365L232.565 176.802L234.81 177.542L235.44 178.105L235.512 178.379L235.548 178.606L236.584 180.353L239.159 183.729L239.774 184.291L240.11 184.377L241.524 184.889L243.909 186.087L244.492 186.222L244.78 186.126L245.03 185.973L245.371 185.807L245.848 185.722L246.779 185.826L247.253 185.997L247.592 186.228L247.778 186.455L248.658 187.916L249.444 189.596L249.53 189.889L249.756 190.44L250.249 191.381L250.828 192.31L251.215 192.75L251.572 193.043L251.888 193.154L254.439 193.691L254.99 193.655L257.218 193.411L258.526 195.243L258.832 195.489L259.411 195.855L261.17 196.454L261.689 196.759L262.008 197.065L262.124 197.359L262.476 198.617L262.724 200.182L262.923 200.365L263.172 200.389L264.781 199.589L265.36 199.369L265.699 199.295L267.05 199.423L267.443 199.412L267.787 199.369L268.109 199.289L268.406 199.173L268.658 199.045L268.874 198.88L269.096 198.69L269.27 198.458L269.847 197.407L270.309 196.881L271.684 196.46L274.649 199.583L275.657 200.426L276.801 200.982L277.095 201.086L289.325 208.558L293.184 219.229L294.169 220.598L294.577 221.001L296 222.022L293.461 224.707L293.148 225.154L292.812 225.765L292.031 228.64L291.737 229.318L291.473 229.788L288.295 233.385L287.917 233.959L287.818 234.264L286.678 240.223L286.701 240.54L286.849 240.772L287.097 240.919L288.113 241.127L288.376 241.26L288.593 241.456L288.772 241.663L288.995 241.834L289.259 241.931H289.572L289.875 241.876L290.172 241.882L290.372 242.036L290.502 242.292L290.585 242.603L290.747 242.847L290.922 243.324L291.063 243.982L291.131 245.386L290.909 246.119L290.018 247.768L289.829 248.365L289.757 248.871L290.09 251.581L290.009 252.198L289.856 252.625L289.633 252.832L289.391 252.991L289.139 253.113L288.772 253.357L288.356 253.754L287.1 255.524L286.891 255.737L286.652 255.889L286.377 255.97L286.074 256L285.765 255.932L285.436 255.835L284.925 255.53L284.732 255.34L284.211 254.712L283.719 254.345L283.43 254.229L283.023 254.193L282.722 254.199L281.741 254.345L280.474 254.431L280.207 254.309L269.66 247.431L268.865 246.485L268.56 246.033L268.431 245.778L267.554 242.737L267.49 242.431L267.46 242.114L267.05 241.406L264.406 238.128L262.794 236.571L261.659 236.022L261.347 235.93L261.017 235.875H260.71L260.333 235.93L259.993 236.022L259.684 236.144L259.417 236.291L259.204 236.462L258.186 237.879L257.989 238.098L257.773 238.275L257.484 238.367L257.16 238.416L256.293 238.183L250.518 235.565L249.72 234.838L249.291 234.338L248.975 233.861L248.411 232.713L247.671 230.338L247.481 229.037L247.466 228.317L247.616 227.157L247.199 226.405L246.431 225.373L242.673 221.538L242.55 221.245L242.064 218.96L241.887 218.496L241.056 216.994L240.669 216.58L240.311 216.31L239.989 216.248H239.63L239.302 216.298L238.999 216.395L238.739 216.518L238.489 216.676L238.279 216.859L238.081 217.067L237.928 217.337L236.142 216.762L228.531 211.649L225.888 209.053L223.988 205.375L221.464 204.22L221.029 203.487L221.265 202.901L221.574 202.356L221.661 201.856L221.664 201.146L221.427 199.669L221.191 199.027L220.932 198.593L220.649 198.422L220.052 198.203L218.999 198.042L217.483 198.074L216.43 198.256L215.89 198.147L215.002 197.823L214.119 197.016L213.711 196.527L213.513 196.093L213.486 195.733L213.549 194.974L213.771 193.984L213.81 193.52L213.773 192.971L213.528 192.041L213.213 191.522L212.82 191.198L212.541 191.1L211.496 190.978L206.297 191.449L204.563 191.303L203.05 190.642L198.915 190.746L197.678 190.526L197.495 190.349L196.712 189.358L196.262 189.034L195.652 188.472L193.93 188.314L188.968 188.577L185.92 189.163L184.562 189.139L183.899 189.273L183.611 189.468L183.593 189.767L183.998 192.109L183.935 192.812L183.827 193.112L183.572 193.471L183.161 193.875L181.85 194.938L181.534 195.243L181.369 195.489L180.664 196.918L180.349 197.212L179.989 197.371L179.674 197.414L179.334 197.384L179.052 197.285L178.794 197.138L178.572 196.936L178.022 196.308L177.768 196.137L177.491 196.014L177.138 195.977L176.784 195.984L174.974 196.46L174.506 196.466L174.217 196.424L173.392 196.087L169.806 196.68L168.61 196.533L168.244 196.277L167.416 195.494L166.696 194.51L166.183 193.411L165.868 192.524L165.103 188.594L165.016 188.326L162.438 183.759L162.161 183.063L162.125 182.696L162.209 180.409L161.927 178.985L161.036 176.001L161 175.689L161.014 175.365L161.105 175.084L161.261 174.845L161.486 174.662L161.765 174.51L162.089 174.411L162.779 174.325L165.01 174.448L165.367 174.405L165.685 174.325L165.967 174.203L166.195 174.045L166.426 173.746L166.615 173.273L166.786 172.296L166.723 171.641L166.627 171.183L166.06 170.094L165.39 169.153L165.192 168.92L164.757 168.517L164.295 168.162L163.461 167.697L162.353 167.19L163.389 166.339L164.235 166.316L164.424 166.095L164.574 165.196L164.767 164.749L166.912 162.064L166.966 161.679L166.933 161.373L167.273 160.956L168.038 160.382L170.037 159.33L171.39 157.984L171.537 157.703L171.651 157.531L172.59 156.951L176.168 155.36L181.333 154.926L184.169 154.369L186.423 155.024L188.723 155.396L189.167 155.55L189.725 155.684L191.118 155.849L191.729 156.039L193.8 155.745L201.559 153.556L204.785 152.497L206.493 150.631L208.533 150.276L210.817 151.439L212.144 152.001L216.416 150.062L216.952 150.025L219.939 150.276L221.136 150.043L224.206 149.059L226.469 147.694L227.918 143.778L228.628 141.429L228.51 140.559L228.132 140.143L227.571 139.642L226.625 138.595L226.433 135.755L226.13 134.807L224.6 133.142L221.932 129.157L221.517 128.208L221.427 127.62L222.007 127.4L227.133 126.996L229.38 126.506L231.952 126.31L232.511 126.114L233.213 125.38L235.468 122.452L239.762 122L238.718 123.047L237.959 124.106L236.374 129.432Z" stroke="#58595B" stroke-miterlimit="2" stroke-linecap="round" stroke-linejoin="round"/>
<path fill-rule="evenodd" clip-rule="evenodd" d="M379.531 272.707L376.497 267.583L374.901 266.525L369.552 264.699L364.149 260.707L361.505 259.524L360.816 259.119L360.292 258.388L359.96 257.453L359.538 256.553L358.72 255.945L357.636 255.952L354.114 257.428L354.098 256.113L354.015 256.044L352.923 255.129L352.552 254.884L350.649 254.282L348.652 252.287L348.053 251.409L347.318 249.358L346.691 248.37L346.205 248.069L345.469 247.726L341.417 246.595L341.064 246.387L340.737 246.091L340.381 245.478L340.22 245.036L338.936 238.649L338.517 237.483L338.243 236.967L338.07 236.733L337.858 236.537L337.615 236.353L333.401 233.957L332.936 233.62L332.089 232.808L327.491 226.857L326.981 226.709L326.209 226.622L323.679 226.808L322.05 227.108H321.649L321.026 226.997L320.193 226.745L318.354 225.806L317.232 225.05L316.667 224.755L314.493 224.031L313.891 223.76L313.621 223.594L313.353 223.465L311.176 221.573L310.66 221.228L310.103 220.947L309.712 220.927L309.201 221.02L308.34 221.475L307.906 221.757L307.602 222.052L306.228 223.981L306.033 224.184L305.535 224.35L303.333 224.559L302.677 224.718L302.24 224.927L301.823 225.357L301.604 225.529L301.339 225.689L301.084 225.713L300.82 225.603L300.51 224.682L300.437 224.294L300.346 223.981L299.917 223.612L299.536 223.379L296.464 222.477L293.892 225.179L293.576 225.628L293.235 226.242L292.444 229.135L292.146 229.817L291.879 230.29L288.66 233.908L288.277 234.485L288.177 234.792L287.022 240.787L287.046 241.105L287.195 241.339L287.448 241.487L288.476 241.696L288.742 241.83L288.961 242.027L289.143 242.235L289.369 242.407L289.636 242.505H289.953L290.26 242.45L290.561 242.456L290.763 242.61L290.895 242.869L290.98 243.181L291.144 243.427L291.32 243.906L291.463 244.569L291.532 245.981L291.308 246.718L290.405 248.377L290.214 248.978L290.141 249.487L290.478 252.213L290.396 252.833L290.241 253.263L290.015 253.471L289.77 253.631L289.515 253.754L289.143 253.999L288.721 254.399L287.45 256.179L287.238 256.394L286.995 256.547L286.718 256.628L286.41 256.658L286.097 256.589L285.764 256.492L285.247 256.185L285.051 255.995L284.523 255.362L284.025 254.994L283.732 254.877L283.319 254.841L283.015 254.847L282.021 254.994L280.738 255.08L280.468 254.957L269.785 248.038L268.98 247.086L268.671 246.632L268.54 246.375L267.652 243.316L267.587 243.008L267.557 242.69L267.141 241.977L264.463 238.68L262.83 237.113L261.681 236.561L261.365 236.468L261.03 236.413H260.72L260.338 236.468L259.994 236.561L259.681 236.684L259.41 236.832L259.195 237.004L258.164 238.429L257.964 238.649L257.745 238.827L257.453 238.92L257.125 238.969L256.246 238.735L250.397 236.101L249.589 235.369L249.154 234.866L248.834 234.386L248.263 233.232L247.513 230.843L247.321 229.535L247.305 228.81L247.458 227.643L247.036 226.887L246.257 225.848L242.451 221.99L242.326 221.696L241.833 219.397L241.655 218.93L240.813 217.419L240.421 217.002L240.059 216.732L239.733 216.669H239.369L239.037 216.719L238.73 216.817L238.467 216.94L238.213 217.099L238.001 217.284L237.8 217.493L237.644 217.764L235.836 217.186L228.127 212.042L225.45 209.431L223.525 205.73L220.969 204.569L220.528 203.832L220.768 203.242L221.081 202.694L221.169 202.191L221.172 201.477L220.932 199.99L220.692 199.345L220.43 198.908L220.144 198.736L219.539 198.515L218.473 198.354L216.937 198.386L215.87 198.57L215.323 198.459L214.424 198.133L213.529 197.322L213.117 196.83L212.916 196.394L212.888 196.031L212.953 195.268L213.177 194.272L213.217 193.805L213.179 193.252L212.931 192.317L212.612 191.795L212.214 191.469L211.931 191.37L210.873 191.247L205.607 191.721L203.851 191.574L202.319 190.91L198.13 191.014L196.877 190.793L196.692 190.615L195.898 189.618L195.443 189.292L194.825 188.727L193.081 188.567L188.055 188.832L184.967 189.422L183.594 189.398L182.921 189.533L182.63 189.729L182.611 190.031L183.021 192.386L182.958 193.093L182.848 193.394L182.59 193.756L182.173 194.162L180.845 195.231L180.526 195.539L180.359 195.786L179.644 197.223L179.325 197.519L178.961 197.679L178.641 197.722L178.298 197.692L178.011 197.593L177.75 197.445L177.526 197.242L176.969 196.609L176.711 196.438L176.431 196.314L176.072 196.277L175.714 196.283L173.881 196.763L173.407 196.769L173.114 196.726L172.278 196.388L168.646 196.984L167.436 196.836L167.065 196.578L166.226 195.791L165.497 194.801L164.977 193.695L164.658 192.804L163.883 188.85L163.795 188.58L161.184 183.986L160.904 183.286L160.867 182.916L160.952 180.616L160.666 179.183L159.764 176.181L159.727 175.868L159.742 175.542L159.834 175.259L159.992 175.019L160.219 174.834L160.502 174.681L160.83 174.582L161.529 174.496L163.789 174.619L164.15 174.576L164.473 174.496L164.758 174.373L164.989 174.214L165.223 173.913L165.414 173.438L165.588 172.454L165.524 171.795L165.427 171.335L164.852 170.239L164.174 169.292L163.974 169.058L163.533 168.653L163.065 168.295L162.22 167.828L161.098 167.317L162.147 166.462L159.59 163.054L158.532 162.229L157.125 161.946L155.593 161.859L153.648 161.33L151.189 160.346L150.379 159.78L149.987 159.337L150.158 158.71L150.148 158.009L150.206 157.682L150.407 157.417L150.595 157.239L151.425 156.869L153.602 153.441L154.507 152.562L155.811 152.161L161.6 148.383L163.448 147.644L164.029 147.336L164.418 146.98L164.521 146.721L164.612 145.835L163.119 143.384L162.274 142.978L161.983 143.102L161.056 143.822L160.146 144.074L159.754 144.061L159.505 143.988L159.396 143.815L159.234 143.447L159.162 143.163L158.426 142.018L156.502 139.703L155.553 138.152L153.629 135.763L152.933 134.697L151.633 132.007L151.103 130.104L151.55 127.105L151.504 126.655L151.377 125.99L150.723 124.795L150.629 124.309V123.871L151.307 121.199L151.659 120.317L152.903 118.038L153.037 117.434L152.991 116.992L152.806 116.788L152.097 116.233L151.623 115.563L150.969 113.714L148.869 112.346L147.972 112.217L147.665 112.328L147.395 112.451L146.626 112.913L145.014 113.382L142.774 113.782L141.81 113.825L141.147 113.782L140.384 113.283L140.171 113.098L139.418 112.186L136.785 107.984L134.946 106.494L134.427 106.258L133.754 106.038L133.165 106L132.28 106.038L131.779 106.142L131.387 106.271L130.69 106.752L129.672 107.843L129.234 108.212L128.167 108.766L127.468 109.241L126.948 109.777L126.626 110.258L126.41 110.664L126.337 111.015V111.367L126.401 111.681L126.538 111.94L126.708 112.174L127.574 112.974L127.73 113.209L127.817 113.523L127.86 113.837L127.805 114.158L127.255 115.735L126.991 118.026L126.872 118.383L126.154 119.886L126.045 120.293L126.042 120.613L126.137 120.909L126.249 121.167L126.41 121.414L126.784 121.845L126.948 122.19L127.03 122.639L126.966 123.503L126.772 123.909L126.528 124.223L124.273 125.201L123.759 125.541L121.634 127.413L121.081 128.09L120.765 128.62L120.668 129.347L120.659 129.716L120.783 130.4L121.227 131.674L121.288 132.13L121.103 132.315L120.819 132.339L120.501 132.265L120.203 132.166L119.111 131.582L118.187 130.874L117.756 130.443L116.32 128.632L115.442 127.869L115.205 127.696L114.122 127.105L113.539 126.877L113.193 126.803L112.812 126.785L112.344 126.859L111.743 127.044L111.554 127.08L111.268 127.099L110.955 127.025L110.681 126.909L110.435 126.736L109.992 126.366L109.734 126.243L109.423 126.169L109.098 126.175L108.432 126.304L107.697 126.378L107.32 126.366L106.957 126.304L105.991 126.286L103.635 126.994L103.615 127L103.641 127.018L103.411 127.827L102.716 129.093L103.756 129.908L104.426 129.806L104.933 129.36L105.522 129.093L106.264 129.345L107.475 130.465L110.045 131.746L114.871 136.278L116.838 137.301L116.274 137.835L117.327 138.959L118.821 139.973L119.582 140.147L120.123 140.787L123.67 143.739L126.475 145.252L129.501 146.284L132.847 146.88L136.595 147.059V147.874L132.517 147.844L130.664 148.048L129.218 148.615V149.502L139.645 148.465L143.02 149.502L142.412 151.247L142.943 152.405L145.835 154.789L144.178 157.521L143.925 159.324L145.835 160.143L147.166 161.185L151.924 168.277L153.758 170.122L154.678 171.358L155.069 172.782L154.691 174.497L153.863 175.794L153.04 176.797L152.241 178.812L150.215 180.831L149.521 182.167L149.555 183.243L149.857 184.463L149.985 185.76L149.521 187.11L151.364 187.033L151.69 187.837L151.523 189.082L151.924 190.287L153.188 191.077L154.495 191.594L155.529 192.384L155.946 194.019L156.793 195.791L161.154 198.613L163.098 200.181L162.849 199.321L162.676 198.961L162.374 198.482L163.988 198.846L164.543 199.979L165.008 201.383L166.387 202.544L167.966 202.781L169.531 202.462L171.04 201.983L172.447 201.735L175.458 201.983L191.189 206.377L194.172 206.609L197.249 207.268L202.103 210.127L205.163 210.664L203.607 209.532L202.908 209.242L201.875 209.038V208.235L204.818 209.242L207.892 211.952L209.571 215.043L208.307 217.235L210.329 217.598L211.419 218.716L212.382 219.484L213.995 218.789L214.436 219.717L214.987 220.225L215.647 220.229L216.407 219.673H217.14L228.457 224.133L229.908 225.265L238.97 229.483L248.215 238.334L250.847 239.02L254.403 240.835L256.994 243.454L256.721 246.52L261.427 247.361L264.519 250.503L266.927 254.51L269.57 257.948L270.373 257.146L272.303 259.267L272.877 260.307L275.994 268.498L274.816 269.483L273.993 270.344L273.39 271.315L272.859 272.619L273.266 273.025L274.084 273.499L274.286 274.123L272.859 274.982L274.243 275.078L274.87 275.456L275.277 276.006L275.994 276.6L277.689 277.505L278.579 278.165L279.283 279.035L277.842 278.993L276.741 278.649L274.466 277.485L274.76 279.557L276.148 280.678L277.675 281.514L278.408 282.716L277.847 284.056L276.506 284.983L273.591 286.403L271.944 288.389L271.384 290.402L271.844 291.541L273.222 290.895L274.582 289.426L275.459 288.721L276.736 288.605L279.283 288.909V289.644L276.392 290.383L273.159 292.121L271.384 294.241L272.859 296.125L272.088 296.946L269.225 301.326L268.411 302.147L268.038 301.436L267.458 301.094L266.194 301.582L264.347 302.682L263.514 303.638L259.933 309.162L260.297 312.85L261.029 313.313L263.437 314.299L263.945 314.429L264.601 315.505L274.831 325.032L277.698 328.763L279.264 330.375L280.963 331.181L282.959 331.171L290.165 330.298L292.577 330.645L299.361 333.614V331.92L300.337 332.793L301.257 333.396L303.526 334.413L301.926 334.226L301.495 334.033L300.968 333.614H300.246L302.171 335.22L306.226 337.179L310.53 338.564L313.172 338.467L314.469 335.524L314.78 331.21L314.063 327.06L312.286 324.628V323.817L312.999 323.016L313.234 321.815L313.172 318.889L311.721 319.772L310.233 318.502L308.691 316.615L307.073 315.645L305.307 315.418L300.912 314.086L299.361 313.289L298.423 312.17L296.009 308.365L295.464 306.477L291.333 300.253H290.6L290.614 300.306L289.724 300.987L290.308 298.626L291.893 298.047L295.785 298.631L297.374 298.322L297.863 297.598L298.006 296.763L298.567 296.125L299.758 296.12L300.533 296.686L301.155 296.787L301.845 295.395L303.813 296.052L306.293 296.569L307.959 297.501L307.475 299.443L308.274 299.384L309.079 299.443L308.351 301.949L309.442 303.73L313.172 305.928L314.843 305.048L316.475 305.897L317.854 307.569L318.715 309.162L320.539 308.799L322.986 309.085L325.125 308.998L326.016 307.54H326.821L327.682 308.945L329.132 310.46L330.836 311.725L332.445 312.406V313.289L328.945 314.694L328.429 314.429L328.3 312.84L327.954 311.899L326.821 309.973H326.016L325.785 310.64L325.599 311.055L325.212 311.668L327.553 316.287L328.429 317.267L330.109 317.89L333.542 317.706L334.929 318.15L333.082 319.323L331.616 319.758L330.78 320.371L330.841 322.122L331.487 323.469L335.332 328.271L336.079 330.172L335.265 331.992L333.987 333.57L333.325 334.786L332.689 335.124L329.233 339.351L333.235 343.281L347.855 353.918L350.689 356.903L358.702 370.671L359.028 372.121L358.497 373.94L357.607 375.936L357.424 377.743L359.027 379L359.763 376.298L360.347 371.008L354.149 357.423L353.61 353.662L352.805 352.446L350.747 351.362L349.674 351.211L348.254 351.778L347.509 351.735L346.852 351.211L345.716 349.536L345.093 348.868L341.797 346.929L340.718 345.774L340.852 344.289L341.888 343.446L347.244 340.433L352.452 335.459L355.833 333.722L359.159 332.702L362.228 331.189L364.83 327.981L365.934 324.486L366.28 320.319L365.586 312.049L364.654 308.444L363.192 305.378L361.225 302.606L357.531 298.47L356.486 296.909L355.905 295.231L356.045 293.456L356.997 292.432L360.499 290.248L361.596 288.975L361.614 287.359L360.681 286.782L360.121 286.242L361.268 284.717L362.64 283.733L374.773 278.76L378.294 276.619L379.906 273.977L380 273.824L379.531 272.707ZM241.495 299.35L242.199 299.981L243.677 300.26L244.591 299.909L244.731 298.508L243.042 298.579L241.495 299.35ZM121.32 165.806L119.582 165.022L121.004 163.554L121.909 162.915L122.866 162.585L121.32 161.102L119.898 159.107L119.793 157.391L122.139 156.823V156.083L120.788 154.919L117.826 153.049L116.437 151.94L114.321 152.855L112.071 152.798L109.974 152.119L105.431 149.502L103.555 148.732L102.716 149.061L101.817 148.552L94.6788 145.644L91.989 143.254H91.9879L90.7981 147.115L90.1086 148.088L87.5242 148.709L86.9372 148.961L83.9005 150.716L83.3531 150.87L83.1128 150.746L82.8914 150.549L82.7085 150.346L82.4954 150.155L81.6963 150.236L80.4678 150.623L77.5721 152.026L76.492 153.023L76 153.94L76.2006 154.624L76.5954 155.165L77.0457 155.565L77.5439 155.817L78.0422 155.898L79.1401 155.75L79.5204 155.743L79.8787 155.756L80.9243 155.946L81.2126 156.076L81.7214 156.371L82.0128 156.494L82.3408 156.568L83.4534 156.556L84.1282 156.704L84.9127 157.146L85.8184 157.461L86.0952 157.602L86.3208 157.792L86.8223 158.494L87.4699 159.085L87.7885 159.584L87.916 159.867L88.0737 160.125L88.3108 160.685L88.4143 161.393L88.5856 162.057L88.7391 162.303L88.9857 162.475L89.2865 162.58L91.008 162.986L91.2295 163.214L91.2817 163.503L90.9349 164.235L90.4878 165.459L89.2813 170.024L89.251 170.756L89.415 171.248L89.7461 171.629L89.7973 171.9L89.6887 172.122L89.017 172.663L88.7799 173.026L88.5239 173.543L88.1897 174.576L87.9337 175.075L87.6517 175.388L87.3477 175.592L87.004 175.88L86.2477 177.449L85.9584 177.633L85.7129 177.683L85.0193 178.002L84.7184 178.315L84.7048 178.33L84.7268 178.381L94.5305 191.682L97.819 198.482H98.686L100.093 196.624L101.169 194.542L103.741 186.356L104.315 185.413L107.101 183.988L107.533 183.377L108.174 183.218L111.985 181.354L112.272 180.894L110.462 178.594L109.941 177.621L110.788 176.037L112.746 176.197L116.437 178.027L116.921 177.102L117.524 174.908L118.045 174.036L120.816 172.452L121.257 171.968L122.033 169.876L123.847 168.656L125.954 167.768L127.61 166.65V165.908L123.374 166.039L121.32 165.806ZM90.9589 135.648L92.9991 136.492L94.9954 136.729L96.9948 136.554L98.8009 136.119L100.232 135.6V134.863L98.9879 134.897L98.03 134.64L97.3782 134.083L96.2291 133.806L95.7224 133.836L94.6068 133.239H98.686V132.425L95.2147 131.362L91.4614 130.723L90.4711 130.79L88.2544 131.537L89.882 134.553L90.9589 135.648Z" stroke="#58595B" stroke-miterlimit="2" stroke-linecap="round" stroke-linejoin="round"/>
<path fill-rule="evenodd" clip-rule="evenodd" d="M269.449 35.1488L270.192 35.1301L271.028 35.2123L273.388 37.9614L276.388 43.4878L278.519 49.3668L278.246 53.1388L276.523 51.0026L273.436 43.366L275.423 52.8912L275.222 56.7402L271.831 59.6527L273.627 59.3218L274.84 58.4873L275.982 57.4488L277.515 56.4738L276.98 57.0804L276.856 57.8078L277.056 58.6714L277.515 59.6527L277.964 58.25L278.462 55.5123L279.12 54.0264L284.81 69.7939L291.946 86.6653L300.359 100.785L322.759 130.165L324.56 131.546L332.04 140.729L336.66 145.305L339.455 143.736L340.525 144.419L343.621 144.961L344.261 145.871L344.347 148.094L344.719 149.948L345.579 151.594L347.107 153.182L352.573 161.314L354.321 162.564L361.086 171.72L366.188 176.549L369.188 175.629L369.864 177.497L370.512 182.287L371.596 184.482L373.405 185.875L381.284 188.623L384.083 188.914L386.834 188.816L389.423 189.029L391.707 190.238L394.644 194.678L396.622 195.888L396.737 195.959L396.738 195.96L398 200.416L397.088 200.472L395.294 199.52L393.507 199.232L392.673 200.515L392.182 205.075L391.423 206.594L389.865 206.836L387.683 206.458L385.63 205.827L384.474 205.28L383.228 203.892L381.726 201.028L380.525 199.668L379.582 200.104L378.45 199.679L373.55 195.524L366.75 192.807L364.583 193.053L362.403 194.905L361.072 196.794L360.853 197.896L362.276 200.422L363.088 203.683L363.592 204.368L364.359 204.602L364.899 204.933L364.711 205.901L362.96 206.905L356.701 207.763L354.506 208.541L353.521 210.201L353.218 212.482L353.345 222.322L353.528 236.559L353.777 256L353.694 255.93L352.605 255.017L352.234 254.772L350.336 254.171L348.343 252.177L347.745 251.3L347.012 249.251L346.386 248.265L345.9 247.964L345.166 247.62L341.123 246.491L340.771 246.283L340.444 245.988L340.089 245.375L339.928 244.934L338.647 238.553L338.229 237.388L337.956 236.873L337.783 236.639L337.571 236.443L337.329 236.259L333.123 233.865L332.66 233.528L331.814 232.718L327.227 226.772L326.718 226.624L325.948 226.538L323.424 226.723L321.797 227.023H321.396L320.775 226.913L319.944 226.661L318.109 225.722L316.989 224.967L316.425 224.672L314.256 223.949L313.655 223.678L313.385 223.513L313.119 223.384L310.946 221.493L310.431 221.149L309.876 220.868L309.485 220.848L308.975 220.941L308.116 221.396L307.682 221.677L307.379 221.972L306.008 223.899L305.813 224.102L305.317 224.267L303.12 224.477L302.465 224.636L302.028 224.844L301.612 225.274L301.395 225.445L301.13 225.606L300.875 225.63L300.612 225.519L300.302 224.599L300.229 224.212L300.138 223.899L299.711 223.531L299.331 223.298L296.265 222.397L294.826 221.371L294.415 220.966L293.419 219.59L289.518 208.866L289.099 207.595L288.347 206.03L288.099 205.685L287.722 205.28L287.504 204.955L286.795 203.346L286.552 201.879L286.296 200.755L286.693 197.12L288.329 193.778L295.123 185.608L297.763 178.9L298.688 177.425L302.235 173.117L307.239 166.855L308.022 164.802L307.719 162.638L306.363 158.422L306.19 155.802L306.578 153.7L307.506 151.757L308.957 149.636L309.236 149.174L306.879 148.701L294.445 148.411L277.521 148.277L274.447 147.158L262.939 141.783L255.859 138.424L250.705 135.989L236 129.345L237.601 123.993L238.368 122.928L239.424 121.876L244.95 115.949L245.312 115.377L246.759 112.313L247.071 111.45L247.21 110.799L247.154 110.466L247.253 109.019L247.636 107.315L247.739 106.471L247.718 105.886L247.575 105.616L247.21 105.16L246.902 104.68L246.681 104.077L246.322 102.783L244.757 99.8657L244.605 99.4162L244.34 97.6795L244.411 96.9719L244.505 96.461L244.915 95.6047L245.248 95.1187L246.189 93.3019L246.425 93.0189L246.692 92.8951L247.002 92.8587L247.327 92.7723L247.591 92.6308L247.817 92.4456L248.291 91.9596L249.346 90.3457L250.005 87.8453L250.008 87.2543L249.953 86.9275L249.483 85.7517L249.411 85.3938L249.392 84.9869L249.501 84.014L249.513 83.6196L249.465 83.2752L249.328 82.9984L249.164 82.7456L248.791 82.3012L248.618 82.0557L248.507 81.7716L248.488 81.0703L249.152 75.957L249.074 74.8353L249.238 71.1996L249.392 70.1154L249.587 69.4141L249.773 69.1976L250.223 68.8157L251.215 68.1685L252.343 67.5764L252.808 67.2195L253.984 65.9501L255.975 64.6619L257.2 64.2488L257.883 64.1073L261.308 63.8117L262.545 63.4975L262.996 63.485L263.419 63.5214L263.959 63.7004L264.076 63.5891L264.062 63.3862L263.816 63.0043L263.525 62.6651L263.088 62.2957L262.072 61.6734L261.611 61.2905L261.216 60.8836L260.855 60.4279L260.752 60.0085L260.707 59.43L261.059 57.0378L261.04 56.6184L260.974 56.2241L260.652 55.6507L260.209 55.1148L259.618 54.5353L259.348 54.3376L259.065 54.1586L258.702 54.0171L257.358 53.6414L257.004 53.3792L264.713 51.5322L268.836 49.4033L269.176 46.163L268.099 41.9176L267.989 36.7918L268.045 36.2154L267.905 35.6077L268.757 35L269.449 35.1488Z" stroke="#58595B" stroke-miterlimit="2" stroke-linecap="round" stroke-linejoin="round"/>
<path fill-rule="evenodd" clip-rule="evenodd" d="M239.125 60.1036L240.264 59.8778L241.886 58.732L242.665 58.4654L245.847 59.1104L246.28 58.8438L248.662 56.0139L256.388 53.0354L256.988 52.8891L257.339 53.1525L258.671 53.5299L259.032 53.6721L259.312 53.8519L259.58 54.0506L260.166 54.6329L260.605 55.1713L260.924 55.7473L260.989 56.1435L261.008 56.5648L260.66 58.9683L260.704 59.5495L260.806 59.9708L261.164 60.4287L261.556 60.8375L262.013 61.2222L263.02 61.8474L263.453 62.2185L263.742 62.5593L263.986 62.943L264 63.1468L263.883 63.2587L263.348 63.0789L262.929 63.0423L262.482 63.0548L261.255 63.3706L257.86 63.6675L257.182 63.8096L255.968 64.2247L253.994 65.5189L252.828 66.7944L252.367 67.1529L251.248 67.7478L250.265 68.398L249.819 68.7817L249.634 68.9992L249.441 69.7038L249.288 70.7931L249.126 74.4458L249.203 75.5728L248.545 80.7101L248.563 81.4147L248.674 81.7001L248.846 81.9468L249.214 82.3932L249.378 82.6472L249.513 82.9253L249.561 83.2713L249.549 83.6676L249.441 84.6451L249.459 85.0538L249.531 85.4134L249.997 86.5948L250.052 86.923L250.049 87.5168L249.395 90.029L248.349 91.6505L247.879 92.1387L247.655 92.3248L247.393 92.467L247.071 92.5537L246.764 92.5903L246.499 92.7147L246.265 92.9991L245.333 94.8244L245.002 95.3126L244.596 96.173L244.503 96.6863L244.432 97.3972L244.695 99.142L244.846 99.5936L246.397 102.525L246.753 103.824L246.972 104.431L247.278 104.913L247.639 105.371L247.781 105.642L247.802 106.23L247.7 107.078L247.32 108.79L247.222 110.243L247.278 110.578L247.14 111.232L246.83 112.099L245.396 115.178L245.037 115.753L239.558 121.708L235.255 122.164L232.995 125.12L232.292 125.861L231.732 126.06L229.154 126.257L226.903 126.752L221.765 127.16L221.184 127.382L221.274 127.976L221.691 128.934L224.365 132.957L225.897 134.639L226.201 135.596L226.393 138.464L227.341 139.521L227.903 140.027L228.283 140.447L228.4 141.325L227.689 143.697L226.237 147.651L223.97 149.029L220.893 150.023L219.693 150.258L216.7 150.004L216.163 150.042L211.882 152L210.553 151.432L208.263 150.258L206.219 150.616L206.011 149.566L206 148.924L206.029 148.59L206.102 148.232L206.679 147.286L208.82 144.982L208.85 144.685L210.198 126.56L210.384 110.133L210.559 96.4385L210.811 77.1566L211.107 51.622L211.137 51.1223L212.149 51.2718L213.549 51.0335L215.71 53.1839L217.049 53.7003L218.387 52.6696H219.188L220.598 54.0725L223.485 52.1866L225.474 52.6696L226.854 51.2666L228.42 51L229.705 51.8855L230.237 53.9293L237.257 59.5558L238.042 59.9342L239.125 60.1036Z" stroke="#58595B" stroke-miterlimit="2" stroke-linecap="round" stroke-linejoin="round"/>
<path fill-rule="evenodd" clip-rule="evenodd" d="M84.4576 19.7336L84.1789 19.9709L83.3043 20.1738L82.5935 20.4277L82.1321 20.4891L81.8159 20.5879L81.3785 20.8959L75.76 27.2383L66.5322 33.5432L66.2952 34.0739L65.955 34.6171L64.8799 35.0853L60.8865 35.3819L60.4481 35.9001L60.3938 36.1707L60.4147 36.486L60.6757 36.9854L60.8228 37.1883L66.1522 43.3861L67.4893 44.41L70.3565 46.0749L71.0735 46.334L73.7247 46.667L74.0232 46.7721L74.3144 46.9011L74.5847 47.0614L75.1035 47.4443L76.1305 49.0229L79.0217 54.768L82.5392 54.8918L85.6068 54.5952L88.1796 53.9667L89.6252 53.7825L90.3997 53.7575L91.147 53.8189L91.8328 54.103L92.7388 54.565L96.228 56.9511L97.1038 57.7773L97.8292 58.3132L99.6672 58.9355L105.906 60.4266L107.221 60.8096L108.809 61.487L109.554 61.949L110.292 62.7388L111.96 65.3944L113.302 67.8169L113.839 71.0271L114.186 71.8585L114.851 72.8751L115.23 73.307L118.368 76.1165L119.625 77.5213L121.263 78.1738L127.72 79.8616L129.843 80.9459L136.559 86.1207L137.44 87.488L140 92.6119L138.19 99.1759L138.651 101.38L138.979 102.199L139.143 102.433L139.423 102.95L139.222 104.132L137.339 107.721L135.501 106.232L134.983 105.997L134.31 105.776L133.722 105.739L132.838 105.776L132.337 105.88L131.945 106.009L131.249 106.49L130.233 107.58L129.794 107.949L128.729 108.503L128.03 108.977L127.51 109.512L127.189 109.993L126.973 110.399L126.9 110.749V111.101L126.964 111.414L127.1 111.673L127.27 111.907L128.136 112.707L128.291 112.941L128.379 113.255L128.422 113.568L128.366 113.889L127.817 115.464L127.553 117.753L127.434 118.111L126.717 119.612L126.608 120.019L126.605 120.338L126.699 120.634L126.812 120.892L126.973 121.138L127.347 121.569L127.51 121.914L127.592 122.362L127.528 123.225L127.334 123.631L127.091 123.945L124.837 124.922L124.324 125.261L122.201 127.131L121.648 127.807L121.332 128.337L121.235 129.063L121.226 129.432L121.35 130.116L121.794 131.388L121.855 131.844L121.67 132.029L121.387 132.053L121.068 131.979L120.771 131.88L119.68 131.297L118.756 130.589L118.325 130.158L116.891 128.35L116.013 127.587L115.777 127.414L114.695 126.824L114.113 126.596L113.766 126.522L113.386 126.504L112.919 126.578L112.318 126.763L112.129 126.799L111.844 126.818L111.531 126.744L111.257 126.627L111.011 126.455L110.568 126.085L110.31 125.963L109.999 125.889L109.675 125.895L109.01 126.024L108.275 126.098L107.898 126.085L107.536 126.024L106.571 126.005L104.217 126.713L104.197 126.719L103.691 126.368L103.232 126.151L101.692 124.746L99.5733 125.439L91.6178 125.56L89.5136 125.017L87.6338 123.699L84.6872 120.613V119.871L85.3615 117.696L83.3095 115.19L78.2629 111.662L78.981 114.071L82.3764 116.557L83.156 119.464L83.4681 124.988L84.1758 128.229L85.5629 130.438L84.0318 131.426L84.2468 133.073L85.635 134.627L89.2265 135.892L90.5041 137.282L92.053 140.26H92.7857L93.7324 139.868L94.1437 140.187L94.3211 141.002L93.2972 141.079L92.2399 140.943L91.2358 140.643L90.3747 140.26V141.002L92.5791 142.957L91.3902 146.815L90.7014 147.787L88.1191 148.407L87.5325 148.659L84.4983 150.412L83.9514 150.566L83.7113 150.442L83.4901 150.246L83.3074 150.043L83.0945 149.852L82.296 149.932L81.0685 150.319L78.1752 151.721L77.096 152.717L76.6044 153.634L76.8048 154.316L77.1993 154.857L77.6492 155.257L78.1471 155.509L78.6449 155.589L79.7419 155.441L80.1219 155.435L80.4799 155.447L81.5247 155.638L81.8127 155.767L82.321 156.062L82.6123 156.185L82.94 156.259L84.0516 156.247L84.7259 156.394L85.5097 156.837L86.4147 157.151L86.6913 157.291L86.9167 157.482L87.4177 158.183L88.0648 158.773L88.3832 159.272L88.5105 159.555L88.6681 159.813L88.9051 160.372L89.0084 161.079L89.1796 161.743L89.333 161.989L89.5793 162.16L89.8799 162.265L91.6 162.671L91.8213 162.898L91.8735 163.187L91.527 163.919L91.0802 165.142L89.8747 169.702L89.8444 170.433L90.0083 170.925L90.3392 171.306L90.3914 171.577L90.2818 171.798L89.6106 172.338L89.3737 172.701L89.118 173.217L88.784 174.25L88.5283 174.748L88.2464 175.061L87.9427 175.264L87.5993 175.553L86.8436 177.12L86.5545 177.304L86.3092 177.354L85.6162 177.672L85.3156 177.985L85.302 178L84.6872 176.512L84.204 175.955L83.1133 175.274L80.1667 174.054L79.9235 173.111L79.9663 172.027L79.8713 171.2L77.072 168.107L73.1788 165.895L60.5368 161.384L59.4085 161.626L57.7239 162.802L56.9641 163.083L55.8295 162.817L54.2367 161.656L52.9456 161.384L52.1899 161.322L51.9269 161.132L51.7745 160.774L51.3434 160.237L50.521 159.854L49.8373 160.034L49.3864 160.411L49.3008 160.644L42.6573 158.504L39.4759 158.01L38.7255 157.546L38.1274 156.979L37.1891 156.514L35.8698 156.572L34.9993 157.1L34.2238 157.154L33.1769 155.774L34.0181 153.557L32.774 150.56L20.7353 135.757L20.0183 134.449L19.0705 131.242L17.6218 128.999L13.0387 117.764L12.6233 114.39L12.1202 112.341L11.4323 110.848L13.0533 109.258L13.7276 108.114L13.4739 107.15L10.9731 103.951L9.39909 102.991L10.2696 101.818L12.308 100.199L13.6848 98.1769L14.646 96.2029L16.6553 97.0031L17.746 95.7378L18.5967 93.8907L21.0944 91.999L20.1278 89.8606L18.3535 87.6306L17.1291 86.3694L17.865 85.8595L18.1813 85.6857L18.7261 85.5546V84.7399H17.1291V83.9251L18.4683 83.6722L19.3294 82.8429L20.3335 80.5921H21.1372L22.7727 81.9261L25.0784 80.9709L27.432 79.6472L29.2304 79.8606H29.9621L29.8045 78.2934L30.2064 77.5369L30.8764 77.1238L31.4975 76.6004L32.5746 74.7378L32.9994 74.8397L34.4534 74.975L37.9928 71.2737L37.7256 70.2841L37.1035 69.5265L35.5827 68.4641L30.7658 73.3455L30.651 72.9521L30.6656 72.6035L30.5362 72.4089L29.9621 72.4579V71.7149L31.3253 70.2248L32.1582 69.5994L33.1769 69.2789L32.3732 68.4641L32.2678 68.5713L32.1102 68.7992L31.8659 69.051L31.4975 69.2789L31.7939 68.2893L31.8513 67.9449L33.1769 67.5765V66.8335H32.3732V65.9459L34.3344 64.3788L34.7216 60.3257L34.0526 52.4683L32.2866 50.3809L28.3986 48.6472L24.5054 48.0114L22.7393 49.2154H22.0358L18.7929 46.5255L17.8514 45.5057L18.4109 45.6899L19.1091 45.3704L19.4004 44.7055L18.7261 43.8741L17.865 43.6805L15.5938 43.9043L14.646 43.8741L11.1881 42.5734L8.46598 40.9761L5.42448 39.6306L1 39.0676V38.179L3.65948 37.5088L8.63402 35.2456L11.4323 34.9147L10.9866 34.1811L10.6339 33.7305L10.088 33.4579L9.02646 33.283V32.4766L14.8371 32.1269L16.3161 32.4766L16.9329 33.3944L16.7847 34.4631L16.4977 35.3517L16.7263 35.7315L17.2147 35.9594L18.7261 37.358H19.4588L20.3335 36.4735V35.7315L18.9943 34.4006L20.2761 33.5411L22.7832 33.1665L25.1504 33.283L25.9541 33.6618L27.0062 34.7066L27.9633 34.9147L28.7284 34.6337L29.054 33.949L28.9246 33.1374L28.3547 32.4766V31.5879L30.1009 30.9376L30.5936 29.6254L30.1865 28.076L29.2304 26.692L28.3798 26.0697L26.3987 25.2487L25.5522 24.6556L24.5617 23.6067V23.3247L25.1556 23.1987L25.9541 22.616L27.7525 20.949L28.7952 21.5224L30.0143 22.6545L32.3732 22.616L33.7896 21.3132L33.4733 19.5786L32.201 17.9074L30.7658 16.8387L29.7659 16.4162V16.4152L32.6049 11.7867L34.7519 7.1051L38.0627 2.63891L41.9841 1L45.3491 2.73777L48.6662 5.73153L52.4665 7.87096L64.3632 12.2872L80.2398 18.1686L84.4576 19.7336Z" stroke="#58595B" stroke-miterlimit="2" stroke-linecap="round" stroke-linejoin="round"/>
<path fill-rule="evenodd" clip-rule="evenodd" d="M289.342 209L277.018 201.54L276.722 201.435L275.568 200.88L274.553 200.039L271.565 196.921L270.18 197.342L269.714 197.867L269.133 198.916L268.957 199.147L268.734 199.337L268.516 199.502L268.262 199.629L267.963 199.745L267.639 199.826L267.292 199.868L266.896 199.879L265.534 199.751L265.192 199.826L264.609 200.045L262.988 200.844L262.737 200.82L262.537 200.637L262.286 199.074L261.932 197.818L261.814 197.525L261.493 197.22L260.971 196.915L259.198 196.317L258.615 195.951L258.306 195.706L256.988 193.876L254.743 194.12L254.187 194.157L251.617 193.62L251.299 193.509L250.938 193.217L250.549 192.778L249.966 191.85L249.469 190.911L249.241 190.361L249.154 190.068L248.362 188.39L247.476 186.932L247.288 186.705L246.947 186.475L246.468 186.303L245.531 186.2L245.05 186.285L244.706 186.45L244.454 186.603L244.164 186.699L243.577 186.565L241.173 185.369L239.748 184.857L239.41 184.771L238.79 184.21L236.195 180.84L235.152 179.095L235.115 178.869L235.043 178.595L234.408 178.033L232.145 177.294L231.371 175.86L231.169 175.262L230.92 174.687L230.666 173.565L229.702 173.429L225.382 174.395L224.709 174.237L224.01 174.138L223.666 174.168L222.719 174.419L221.295 174.968L220.959 175.006L220.626 174.993L220.369 174.859L220.193 174.639L220.067 174.346L220.011 174.016L220 173.649L220.079 173.13L220.441 172.368L221.221 171.086L223.278 169.23L224.727 168.241L225.598 167.3L228.972 161.847L226.635 160.828L226.188 160.565L225.994 160.412L226.197 159.448L229.284 154.348L234.667 152.436L234.78 152.374L237.861 152.338L238.935 152.51L239.21 152.649L239.552 152.754L239.991 152.655L240.371 152.533L241.842 150.927L243.257 150.763L243.91 150.53L244.351 150.139L244.706 149.669L244.969 148.71L244.445 146.101L244.215 143.028L243.901 141.989L243.463 141.324L241.122 138.671L240.882 138.507L240.354 138.225L239.362 137.529L238.339 136.624L237.897 136.093L237.631 135.622L235.984 130L250.645 136.6L255.784 139.019L262.842 142.356L274.316 147.695L277.381 148.808L294.254 148.941L306.65 149.228L309 149.699L308.723 150.158L307.276 152.265L306.351 154.195L305.963 156.284L306.136 158.886L307.488 163.074L307.79 165.224L307.01 167.264L302.02 173.485L298.485 177.765L297.562 179.229L294.93 185.894L288.156 194.011L286.526 197.33L286.13 200.942L286.384 202.058L286.626 203.516L287.334 205.114L287.551 205.437L287.926 205.84L288.174 206.182L288.924 207.737L289.342 209Z" stroke="#58595B" stroke-miterlimit="2" stroke-linecap="round" stroke-linejoin="round"/>
<path fill-rule="evenodd" clip-rule="evenodd" d="M158.586 21.4485L161.121 21.3065L163.836 22.1763L169.703 24.7744L170.338 24.953L170.946 25.1984L171.518 25.5075L172.01 25.8729L174.686 29.2156L175.692 30.0666L176.747 30.6681L178.001 31.1631L179.291 31.2926L180.406 30.8227L186.736 26.6812L187.735 26.0807L188.851 26.6467L189.125 27.5479L189.101 28.7571L189.344 30.24L189.86 31.1067L191.426 33.0824L191.754 33.9241L192.998 35.0905L198.463 37.1978L199.713 38.0488L200.765 39.2215L203.008 40.3733L205.041 42.09L205.479 44.9617L203.847 45.818L203.361 46.1532L202.837 47.0774L203.057 47.7519L203.537 48.2626L203.805 48.6771L206.394 50.7656L207.014 51.578L208.331 50.6173L210.164 50.6539L211 50.7761L210.97 51.2752L210.671 76.7809L210.416 96.0409L210.24 109.719L210.051 126.129L208.689 144.233L208.659 144.529L206.495 146.831L205.912 147.776L205.837 148.133L205.808 148.467L205.82 149.108L206.03 150.157L204.3 152.039L201.032 153.107L193.174 155.315L191.076 155.612L190.456 155.42L189.046 155.254L188.481 155.118L188.031 154.963L185.701 154.587L183.419 153.927L180.546 154.489L175.315 154.927L171.691 156.531L170.739 157.117L170.624 157.29L170.475 157.573L169.104 158.93L167.08 159.991L166.305 160.571L165.961 160.991L165.995 161.3L165.939 161.688L163.766 164.396L163.571 164.847L163.42 165.754L163.228 165.976L162.371 166L159.815 162.583L158.756 161.756L157.349 161.472L155.817 161.385L153.872 160.855L151.413 159.868L150.603 159.301L150.211 158.856L150.382 158.228L150.372 157.525L150.43 157.197L150.631 156.932L150.819 156.753L151.649 156.383L153.826 152.946L154.731 152.065L156.035 151.663L161.824 147.874L163.672 147.134L164.252 146.825L164.642 146.467L164.745 146.208L164.836 145.32L163.343 142.863L162.498 142.455L162.207 142.58L161.28 143.301L160.37 143.555L159.979 143.541L159.729 143.468L159.62 143.295L159.458 142.925L159.386 142.641L158.65 141.493L156.726 139.172L155.777 137.617L153.853 135.222L153.157 134.154L151.857 131.456L151.327 129.549L151.774 126.542L151.728 126.091L151.601 125.424L150.947 124.226L150.853 123.738V123.3L151.531 120.62L151.883 119.737L153.127 117.452L153.261 116.846L153.215 116.403L153.03 116.198L152.322 115.642L151.847 114.97L151.193 113.116L149.093 111.745L148.196 111.616L147.889 111.728L147.619 111.851L146.85 112.313L145.238 112.783L142.998 113.184L142.034 113.228L141.371 113.184L140.608 112.684L140.395 112.499L139.642 111.584L137.009 107.372L138.894 103.77L139.095 102.584L138.815 102.065L138.651 101.83L138.323 101.008L137.861 98.7967L139.672 92.2096L137.11 87.0677L136.228 85.6956L129.507 80.5026L127.382 79.4144L120.919 77.7207L119.28 77.0659L118.022 75.6562L114.881 72.8368L114.502 72.4034L113.837 71.3832L113.49 70.5488L112.952 67.3273L111.608 64.8963L109.939 62.2314L109.201 61.4388L108.456 60.9752L106.866 60.2954L105.55 59.9111L99.306 58.4147L97.4664 57.7903L96.7404 57.2525L95.8639 56.4233L92.3718 54.0289L91.465 53.5652L90.7787 53.2802L90.0308 53.2186L89.2557 53.2436L87.8089 53.4284L85.2339 54.0592L82.1637 54.3568L78.6434 54.2325L75.7497 48.4672L74.7218 46.8831L74.2027 46.4988L73.9321 46.338L73.6407 46.2085L73.3419 46.1031L70.6886 45.7689L69.9709 45.5089L67.1013 43.8381L65.7632 42.8106L60.4293 36.5911L60.2821 36.3874L60.0209 35.8862L60 35.5698L60.0543 35.2983L60.4931 34.7783L64.4898 34.4806L65.5657 34.0107L65.9063 33.4656L66.1434 32.9331L75.3789 26.606L81.0021 20.2413L81.4398 19.9323L81.7563 19.833L82.218 19.7714L82.9294 19.5166L83.8048 19.313L84.0838 19.0749L100.984 25.3592L119.977 32.3974L122.682 32.7013L125.439 31.705L137.581 23.6529L146.287 17.8824L149.971 17L152.056 17.9189L156.534 21.1519L158.586 21.4485Z" stroke="#58595B" stroke-miterlimit="2" stroke-linecap="round" stroke-linejoin="round"/>
</svg>
