<svg width="90" height="14" viewBox="0 0 90 14" fill="none" xmlns="http://www.w3.org/2000/svg">
<path d="M26.2613 8.50195C27.0488 9.31768 28.0016 9.94747 29.0528 10.3471L30.4749 9.19147C30.5171 9.16182 30.5671 9.14595 30.6183 9.14595C30.6695 9.14595 30.7195 9.16182 30.7616 9.19147L33.4022 10.9287C33.5025 10.9903 33.5873 11.0748 33.6501 11.1756C33.7129 11.2764 33.7518 11.3907 33.7639 11.5095C33.776 11.6283 33.7608 11.7483 33.7197 11.8601C33.6785 11.972 33.6124 12.0724 33.5267 12.1537L32.2894 13.4018C32.1122 13.5806 31.8944 13.7118 31.6555 13.7837C31.4166 13.8556 31.1639 13.866 30.9201 13.8139C28.4878 13.301 26.2459 12.0996 24.4506 10.3471C22.6952 8.57716 21.4805 6.3251 20.9537 3.86408C20.9017 3.61895 20.9126 3.36425 20.9853 3.12466C21.058 2.88508 21.19 2.66874 21.3687 2.4966L22.6513 1.23312C22.7306 1.14984 22.8274 1.08596 22.9344 1.04629C23.0414 1.00661 23.1557 0.992164 23.2689 1.00402C23.3822 1.01588 23.4913 1.05373 23.5881 1.11476C23.685 1.17578 23.7671 1.25838 23.8282 1.35639L25.5861 4.01816C25.6164 4.05996 25.6328 4.1106 25.6328 4.16261C25.6328 4.21463 25.6164 4.26527 25.5861 4.30706L24.428 5.72847C24.83 6.78045 25.4562 7.72785 26.2613 8.50195Z" fill="white"/>
<path d="M5.07715 13.4939V7.34874H7.17052L7.48168 4.94269H5.07715V3.41013C5.07715 2.71584 5.27248 2.24047 6.27866 2.24047H7.55361V0.0953492C6.93327 0.0295116 6.30973 -0.00227785 5.68585 0.000126838C3.83551 0.000126838 2.5651 1.1188 2.5651 3.17245V4.93819H0.485352V7.34424H2.56964V13.4939H5.07715Z" fill="white"/>
<path d="M61.4371 3.13228C59.4109 -0.000103545 55.274 -0.931352 52.0659 1.0158C48.9421 2.96296 47.929 7.19591 49.9552 10.3283L50.1241 10.5823L49.4487 13.122L51.9814 12.4448L52.2347 12.6141C53.3323 13.2067 54.5142 13.5453 55.6962 13.5453C56.9626 13.5453 58.2289 13.2067 59.3265 12.5294C62.4502 10.4976 63.3789 6.34932 61.4371 3.13228ZM59.6642 9.65102C59.3265 10.159 58.9043 10.4976 58.3134 10.5823C57.9757 10.5823 57.5535 10.7516 55.865 10.0743C54.4298 9.39705 53.2478 8.29648 52.4036 7.02659C51.897 6.43398 51.6437 5.67205 51.5593 4.91012C51.5593 4.23285 51.8126 3.64023 52.2347 3.21694C52.4036 3.04762 52.5724 2.96296 52.7413 2.96296H53.1634C53.3322 2.96296 53.5011 2.96296 53.5855 3.3016C53.7544 3.72489 54.1765 4.7408 54.1765 4.82546C54.2609 4.91012 54.2609 5.07944 54.1765 5.1641C54.2609 5.33341 54.1765 5.50273 54.0921 5.58739C54.0077 5.67205 53.9232 5.84137 53.8388 5.92603C53.67 6.01069 53.5855 6.18 53.67 6.34932C54.0077 6.85728 54.4298 7.36523 54.8519 7.78853C55.3585 8.21182 55.865 8.55046 56.456 8.80443C56.6249 8.88909 56.7937 8.88909 56.8781 8.71978C56.9626 8.55046 57.3847 8.12716 57.5535 7.95784C57.7224 7.78853 57.8068 7.78853 57.9757 7.87318L59.3265 8.55046C59.4953 8.63512 59.6642 8.71977 59.7486 8.80443C59.833 9.05841 59.833 9.39705 59.6642 9.65102Z" fill="white"/>
<path d="M83.4983 5.33241C82.3047 5.33241 81.3307 6.30644 81.3307 7.5C81.3307 8.69356 82.3047 9.66759 83.4983 9.66759C84.6918 9.66759 85.6658 8.69356 85.6658 7.5C85.6658 6.30644 84.6918 5.33241 83.4983 5.33241ZM89.9993 7.5C89.9993 6.60239 90.0074 5.71292 89.957 4.81694C89.9066 3.77623 89.6692 2.85261 88.9082 2.0916C88.1456 1.32896 87.2236 1.09317 86.1829 1.04276C85.2853 0.992353 84.3958 1.00048 83.4999 1.00048C82.6023 1.00048 81.7128 0.992353 80.8169 1.04276C79.7762 1.09317 78.8526 1.33058 78.0916 2.0916C77.3289 2.85424 77.0932 3.77623 77.0428 4.81694C76.9924 5.71454 77.0005 6.60402 77.0005 7.5C77.0005 8.39598 76.9924 9.28708 77.0428 10.1831C77.0932 11.2238 77.3306 12.1474 78.0916 12.9084C78.8542 13.671 79.7762 13.9068 80.8169 13.9572C81.7145 14.0076 82.6039 13.9995 83.4999 13.9995C84.3975 13.9995 85.2869 14.0076 86.1829 13.9572C87.2236 13.9068 88.1472 13.6694 88.9082 12.9084C89.6708 12.1458 89.9066 11.2238 89.957 10.1831C90.009 9.28708 89.9993 8.39761 89.9993 7.5ZM83.4983 10.8351C81.6527 10.8351 80.1632 9.34562 80.1632 7.5C80.1632 5.65438 81.6527 4.16487 83.4983 4.16487C85.3438 4.16487 86.8333 5.65438 86.8333 7.5C86.8333 9.34562 85.3438 10.8351 83.4983 10.8351ZM86.9699 4.80718C86.539 4.80718 86.191 4.4592 86.191 4.02828C86.191 3.59736 86.539 3.24938 86.9699 3.24938C87.4008 3.24938 87.7488 3.59736 87.7488 4.02828C87.7489 4.1306 87.7289 4.23195 87.6898 4.3265C87.6507 4.42106 87.5933 4.50698 87.521 4.57933C87.4486 4.65169 87.3627 4.70905 87.2681 4.74815C87.1736 4.78725 87.0722 4.80731 86.9699 4.80718Z" fill="white"/>
</svg>
