<svg width="441" height="627" viewBox="0 0 441 627" fill="none" xmlns="http://www.w3.org/2000/svg">
<path d="M267.348 561.822L268.195 560.806L272.092 558.942L274.464 554.028L276.497 552.503L277.514 551.487L278.192 549.962L279.378 546.573L280.903 543.862L282.936 542.168L283.105 540.643L282.089 539.457L281.58 537.763L281.75 535.56L285.477 520.989L287.002 517.261L288.019 514.889L287.849 513.873L287.172 513.195L281.75 512.009L280.055 510.992L279.547 510.315L279.039 508.112L278.7 505.909L277.853 504.215L275.989 500.826L273.956 498.963L272.431 496.76L270.737 495.743L267.856 494.727L265.484 493.371L263.282 492.863H259.893L257.86 492.355L255.318 490.999L252.099 490.322H249.727L246.169 490.83L244.644 490.491L243.119 489.813L241.764 488.458L240.408 486.763L239.73 484.561L241.425 481.681L244.813 478.461L253.963 474.056L257.86 472.87L260.232 472.701L262.265 474.564L262.943 474.903L264.806 474.395L274.295 468.804L276.158 467.956L284.291 466.093L286.494 463.043L290.221 450.844L298.693 458.299L321.228 467.618L324.108 469.142L326.819 468.126L332.749 470.498L346.981 478.8L353.589 481.003L360.705 481.172L367.483 478.292L371.718 481.85L381.207 487.78L385.443 491.338V493.71L377.988 495.574L378.326 500.996L382.732 507.265L387.645 512.009L384.595 513.026L381.884 515.059L377.31 519.633L382.732 522.175L389.339 522.853L402.725 522.514V524.886L397.472 528.444L390.864 531.155L385.104 535.052L382.562 541.66L381.207 543.185L372.396 548.268L370.871 550.978L369.008 557.925L367.483 560.806L355.792 555.045L349.523 554.537L346.981 559.62L348.506 562.669L354.267 569.955L353.42 571.31L341.39 577.241L339.357 577.749L338.001 579.782L329.191 584.187L327.327 587.237L319.194 613.16L315.806 619.768L311.4 625.529H308.69L298.354 604.011L267.348 561.992V561.822Z" fill="#F2F2F2" stroke="black" stroke-linecap="round" stroke-linejoin="round"/>
<path d="M264.637 60.3014L263.79 61.1486L260.91 61.8263L258.707 62.5041L256.335 63.0123L254.81 64.0289L237.189 84.1914L208.047 104.184L207.2 105.709L206.183 107.573L202.794 108.929L190.087 109.945L188.731 111.64V113.503L189.917 115.706L206.861 135.36L211.096 138.579L220.076 143.832L222.279 144.679L230.751 145.695L232.614 146.373L234.986 148.237L238.375 153.151L247.525 171.28L258.538 171.788L268.195 170.772L276.328 168.738L280.903 168.23H283.444L285.816 168.399L287.849 169.247L290.73 170.772L301.743 178.227L304.623 180.937L306.826 182.632L312.587 184.496L332.41 189.24L336.477 190.426L341.56 192.628L343.932 194.153L346.134 196.695L351.387 204.997L355.623 212.621L357.317 222.787L358.503 225.498L360.536 228.717L361.722 230.073L371.719 239.053L375.616 243.458L380.868 245.491L401.2 250.913L407.977 254.302L429.156 270.737L431.867 274.973L440 291.238L434.239 312.078L435.764 319.025L436.781 321.567L438.136 323.939L437.628 327.836L431.528 339.188L425.768 334.443L424.243 333.596L422.04 332.919H420.176H417.465L414.585 333.766L412.382 335.291L409.163 338.679L407.808 339.865L404.419 341.56L402.216 343.085L400.522 344.779L398.828 347.659L398.658 348.676L398.828 350.878L399.844 352.403L402.555 354.945L403.064 355.623L403.403 357.656L403.233 358.672L401.539 363.586L400.692 370.871L400.353 372.057L398.15 376.802L397.642 379.174L398.32 380.868L400.014 383.071L400.522 384.087L400.861 385.443L400.692 388.323L399.167 390.526L392.051 393.575L390.526 394.761L383.748 400.692L382.054 402.725L381.037 404.419L380.699 407.977L381.037 410.01L382.562 414.077L382.732 415.602L382.054 416.11L381.207 416.279L379.343 415.602L375.785 413.907L372.905 411.535L371.549 410.18L366.975 404.419L363.586 401.539L360.028 399.675L358.333 398.997L355.961 398.658L354.437 398.828L352.573 399.506L351.048 399.675L349.184 398.997L346.981 397.303L345.287 396.625L339.865 397.303L337.493 397.134H334.443L326.988 399.336L325.294 398.15L323.939 397.472L319.025 393.067L312.417 395.27L287.172 395.609L280.564 393.914L274.634 389.678L265.315 380.021V377.649L267.518 370.702L260.91 362.739L244.983 351.556L247.355 359.181L258.029 367.144L260.571 376.293L261.418 393.914L263.79 404.08L268.026 411.027L263.282 414.246L263.959 419.499L268.365 424.412L279.717 428.309L283.783 432.714L288.527 442.203H290.899L293.949 441.017L295.135 442.033L295.813 444.575L292.594 444.744L289.205 444.405L285.986 443.389L283.275 442.203V444.575L290.221 450.844L286.494 463.043L284.291 466.093L276.159 467.956L274.295 468.804L264.807 474.395L262.943 474.903L262.265 474.564L260.232 472.701L257.86 472.87L253.963 474.056L244.814 478.461L241.425 481.68L239.731 484.561L240.408 486.763L241.764 488.458L243.119 489.813L244.644 490.491L246.169 490.83L249.727 490.321H252.099L255.318 490.999L257.86 492.355L259.893 492.863H263.282L265.484 493.371L267.856 494.727L270.737 495.743L272.431 496.76L273.956 498.963L275.989 500.826L277.853 504.215L278.7 505.909L279.039 508.112L279.547 510.315L280.056 510.992L281.75 512.009L287.172 513.195L287.849 513.873L288.019 514.889L287.002 517.261L285.477 520.989L281.75 535.56L281.58 537.763L282.089 539.457L283.105 540.643L282.936 542.168L280.903 543.862L279.378 546.573L278.192 549.962L277.514 551.487L276.497 552.503L274.464 554.028L272.092 558.942L268.195 560.805L267.348 561.822L265.315 557.078L263.79 555.384L260.401 553.181L251.083 549.284L250.235 546.234L250.405 542.846L250.066 540.304L241.255 530.477L229.056 523.53L189.07 509.129L185.512 509.976L180.26 513.703L177.718 514.55L174.16 513.703L169.247 509.976L165.011 509.129L162.639 508.959L161.792 508.281L161.453 507.265L160.097 505.57L157.386 504.384L155.353 504.893L153.828 506.079L153.659 506.756L132.649 499.979L122.483 498.454L120.111 496.929L118.247 495.235L115.367 493.71L111.131 493.88L108.42 495.574L106.048 495.743L102.66 491.338L105.371 484.391L101.474 474.903L63.3512 427.97L61.1486 423.734L58.0988 413.738L53.5241 406.622L39.1223 370.871L37.7669 360.197L36.242 353.759L34.0394 349.015L39.1223 343.932L41.1555 340.374L40.4778 337.324L32.5145 327.158L27.6009 324.108L30.3118 320.381L36.7503 315.298L41.1555 308.859L44.2053 302.59L50.4743 305.132L53.863 301.235L56.5739 295.305L64.5372 289.374L61.4874 282.597L55.8962 275.481L51.9992 271.415L55.2184 269.381L57.0822 268.873V266.332H51.9992V263.79L56.2351 262.943L58.9459 260.232L62.1652 253.116H64.7067L69.7897 257.352L77.0752 254.302L84.5303 250.235L90.1216 250.913H92.4936L91.9853 245.83L93.3408 243.458L95.374 242.272L97.4072 240.578L100.796 234.648L102.151 234.986L106.726 235.325L117.909 223.634L117.061 220.585L115.028 218.043L110.284 214.824L95.0351 230.242L94.6962 228.887V227.87L94.3574 227.193L92.4936 227.362V224.99L96.7294 220.415L99.4404 218.382L102.66 217.365L100.118 214.824L98.5932 216.688L97.4072 217.365L98.2543 214.146L98.4238 213.13L102.66 211.944V209.572H100.118V206.691L106.387 201.778L107.573 188.901L105.371 163.994L99.7792 157.386L87.5801 151.964L75.2115 149.931L69.6202 153.828H67.4176L57.2516 145.187L54.2018 141.968L56.0656 142.646L58.2682 141.629L59.1154 139.426L57.0822 136.885L54.3713 136.207L47.0857 136.885H44.2053L33.1922 132.649L24.5511 127.736L15.0629 123.33L1 121.636V118.756L9.47163 116.723L25.2288 109.437L34.0394 108.42L32.5145 106.048L31.4979 104.693L29.8036 103.846L26.4149 103.337V100.796L44.7136 99.6098L49.4577 100.796L51.3215 103.676L50.8132 107.065L49.966 109.776L50.6437 110.962L52.1686 111.809L57.0822 116.214H59.2848L62.1652 113.334V110.962L57.9294 106.895L61.9958 104.184L69.7897 102.998L77.2447 103.337L79.7862 104.523L83.1748 107.743L86.2246 108.42L88.5966 107.573L89.6133 105.371L89.2744 102.829L87.4107 100.796V97.9155L93.0019 95.8823L94.5268 91.6465L93.1713 86.7329L90.1216 82.3277L87.5801 80.4639L81.3111 77.753L78.6001 75.8892L75.3809 72.67V71.6534L77.2447 71.3146L79.7862 69.4508L85.5469 64.1984L88.7661 66.0621L92.6631 69.6202L100.118 69.4508L104.523 65.3844L103.676 59.7931L99.6098 54.5407L95.0351 51.1521L91.8159 49.7966L100.796 35.2254L107.573 20.3153L118.078 6.25241L130.447 1L141.121 6.59128L151.626 15.9101L163.655 22.6874L201.1 36.7503L264.637 60.3014Z" fill="#F2F2F2" stroke="black" stroke-linecap="round" stroke-linejoin="round"/>
</svg>
