<svg width="164" height="45" viewBox="0 0 164 45" fill="none" xmlns="http://www.w3.org/2000/svg">
<path d="M73.5573 32.844V29.39H70.1033V26.706H73.5573V23.23H76.4393V26.706H79.8933V29.39H76.4393V32.844H73.5573Z" fill="#212529"/>
<path d="M26.8659 44.3548C28.7861 44.3548 30.3426 42.7983 30.3426 40.8781C30.3426 38.958 28.7861 37.4014 26.8659 37.4014C24.9458 37.4014 23.3892 38.958 23.3892 40.8781C23.3892 42.7983 24.9458 44.3548 26.8659 44.3548Z" fill="black"/>
<path d="M53.3766 11.5221C46.4516 4.09213 37.0742 0.000105356 26.9708 0C16.8682 0.000105356 7.49077 4.09213 0.565624 11.5221C-0.227706 12.3734 -0.180822 13.7068 0.670453 14.5002C1.52183 15.2936 2.85511 15.2468 3.64855 14.3954C9.76762 7.83005 18.0503 4.21434 26.9715 4.21424C35.892 4.21434 44.1746 7.83005 50.2937 14.3954C50.7087 14.8406 51.2714 15.0659 51.8356 15.0659C52.35 15.0659 52.8658 14.8786 53.2718 14.5002C54.1231 13.7067 54.1701 12.3734 53.3766 11.5221Z" fill="black"/>
<path d="M45.6397 20.2239C40.5208 15.0663 33.8908 12.226 26.971 12.2262C20.0497 12.2263 13.4196 15.0667 8.3023 20.2241C7.48263 21.0502 7.48779 22.3843 8.31389 23.204C9.13999 24.0237 10.4741 24.0185 11.2938 23.1924C15.6139 18.8385 21.1815 16.4406 26.971 16.4405C32.7591 16.4403 38.3267 18.8383 42.6484 23.1926C43.0604 23.6076 43.6021 23.8154 44.1441 23.8154C44.6805 23.8154 45.2174 23.6116 45.6285 23.2038C46.4544 22.384 46.4595 21.0499 45.6397 20.2239Z" fill="black"/>
<path d="M37.2063 28.9509C34.465 26.2349 30.5355 24.5479 26.9511 24.5479C26.9507 24.5479 26.9499 24.5479 26.9495 24.5479H26.7977C26.7971 24.5479 26.7967 24.5479 26.7961 24.5479C23.2116 24.5479 19.2818 26.235 16.5405 28.9509C15.7139 29.7699 15.7077 31.104 16.5267 31.9308C16.9388 32.3466 17.4812 32.5549 18.0236 32.5549C18.5596 32.5549 19.0957 32.3517 19.5065 31.9447C21.458 30.0112 24.3192 28.7621 26.7963 28.7621C26.7966 28.7621 26.7971 28.7621 26.7974 28.7621H26.9498C26.9502 28.7621 26.9503 28.7621 26.9508 28.7621C29.4276 28.7621 32.2889 30.0113 34.2402 31.9447C35.0669 32.7636 36.4012 32.7577 37.2201 31.9308C38.0393 31.1041 38.033 29.7699 37.2063 28.9509Z" fill="black"/>
<path d="M163.284 37.9135V1H105V37.9135H127.342V41.7991H120.543V43.7419H149.685V41.7991H140.942V37.9135H163.284ZM138.999 41.7991H129.285V37.9135H138.999V41.7991ZM106.943 35.9707V2.94282H161.342V35.9707H106.943Z" fill="black"/>
</svg>
