<svg width="16" height="16" viewBox="0 0 16 16" fill="none" xmlns="http://www.w3.org/2000/svg">
<path d="M13.2849 0C12.9289 0.000861932 12.5767 0.0721958 12.2484 0.209886C11.9202 0.347577 11.6225 0.548899 11.3724 0.802238L0.966075 11.2083L0.925274 11.4143L0.205324 15.0339L0 16L0.966734 15.7947L4.58623 15.0747L4.79155 15.0332L15.1979 4.62718C15.4519 4.37757 15.6537 4.07988 15.7914 3.75146C15.9291 3.42305 16 3.0705 16 2.71438C16 2.35826 15.9291 2.00571 15.7914 1.6773C15.6537 1.34888 15.4519 1.05119 15.1979 0.801579C14.9478 0.548281 14.6499 0.347035 14.3216 0.209456C13.9932 0.0718771 13.6409 0.000689023 13.2849 0ZM13.2849 1.25436C13.6165 1.25436 13.9508 1.40573 14.272 1.72754C14.9123 2.36723 14.9123 3.06153 14.272 3.70188L13.7995 4.154L11.845 2.20007L12.2977 1.72754C12.6195 1.40573 12.9532 1.25436 13.2849 1.25436ZM10.9203 3.12603L12.8735 5.07996L4.91527 13.0378C4.48564 12.1972 3.80164 11.5136 2.96075 11.0846L10.9203 3.12603ZM2.11839 12.1547C2.50787 12.3114 2.86167 12.5452 3.15853 12.842C3.45539 13.1389 3.68918 13.4927 3.84588 13.8822L1.68603 14.3139L2.11839 12.1547Z" fill="black"/>
</svg>
