<svg width="19" height="17" viewBox="0 0 19 17" fill="none" xmlns="http://www.w3.org/2000/svg">
<path d="M18.2503 12.0519H5.63794L6.27121 10.7686L16.7931 10.7496C17.1489 10.7496 17.4539 10.4967 17.5174 10.1469L18.9746 2.03149C19.0127 1.81864 18.9555 1.59948 18.8157 1.433C18.7467 1.35107 18.6605 1.28507 18.5632 1.23958C18.4659 1.19409 18.3599 1.17021 18.2524 1.16958L4.86702 1.12533L4.75265 0.590058C4.68064 0.248667 4.37142 0 4.01984 0H0.747631C0.549347 0 0.359184 0.0783743 0.218976 0.217882C0.0787681 0.357389 0 0.546602 0 0.743895C0 0.941188 0.0787681 1.1304 0.218976 1.26991C0.359184 1.40942 0.549347 1.48779 0.747631 1.48779H3.41411L3.91394 3.85224L5.14447 9.78022L3.56025 12.3533C3.47798 12.4638 3.42843 12.595 3.4172 12.732C3.40597 12.8691 3.43351 13.0065 3.49671 13.1288C3.62379 13.3796 3.88006 13.5376 4.16386 13.5376H5.49392C5.21037 13.9124 5.05721 14.3688 5.05763 14.8379C5.05763 16.0306 6.03188 17 7.23063 17C8.42938 17 9.40363 16.0306 9.40363 14.8379C9.40363 14.3679 9.24691 13.9106 8.96734 13.5376H12.3793C12.0958 13.9124 11.9426 14.3688 11.943 14.8379C11.943 16.0306 12.9173 17 14.116 17C15.3148 17 16.289 16.0306 16.289 14.8379C16.289 14.3679 16.1323 13.9106 15.8527 13.5376H18.2524C18.6632 13.5376 19 13.2047 19 12.7937C18.9988 12.5966 18.9192 12.408 18.7788 12.2691C18.6383 12.1301 18.4483 12.052 18.2503 12.0519ZM5.17835 2.59204L17.3734 2.63208L16.1789 9.2871L6.59949 9.30395L5.17835 2.59204ZM7.23063 15.5038C6.86211 15.5038 6.56136 15.2045 6.56136 14.8379C6.56136 14.4712 6.86211 14.1719 7.23063 14.1719C7.59915 14.1719 7.8999 14.4712 7.8999 14.8379C7.8999 15.0145 7.82939 15.1839 7.70388 15.3087C7.57836 15.4336 7.40813 15.5038 7.23063 15.5038ZM14.116 15.5038C13.7475 15.5038 13.4468 15.2045 13.4468 14.8379C13.4468 14.4712 13.7475 14.1719 14.116 14.1719C14.4846 14.1719 14.7853 14.4712 14.7853 14.8379C14.7853 15.0145 14.7148 15.1839 14.5893 15.3087C14.4638 15.4336 14.2935 15.5038 14.116 15.5038Z" fill="black"/>
</svg>
