<svg width="25" height="20" viewBox="0 0 25 20" fill="none" xmlns="http://www.w3.org/2000/svg">
<path d="M12.25 19.2505C13.2165 19.2505 14 18.467 14 17.5005C14 16.534 13.2165 15.7505 12.25 15.7505C11.2835 15.7505 10.5 16.534 10.5 17.5005C10.5 18.467 11.2835 19.2505 12.25 19.2505Z" fill="#01E5E6"/>
<path d="M7.41113 12.4545L8.64838 13.6908C9.61807 12.7675 10.9054 12.2518 12.2444 12.2503C13.5834 12.2489 14.8718 12.7617 15.8435 13.683L17.0799 12.4466C15.7803 11.1967 14.0468 10.4993 12.2437 10.501C10.4407 10.5026 8.70845 11.2031 7.41113 12.4553V12.4545Z" fill="#01E5E6"/>
<path d="M3.7002 8.74419L4.93745 9.98056C6.89039 8.07139 9.51256 7.0017 12.2437 7.00007C14.9748 6.99843 17.5982 8.06498 19.5534 9.97181L20.7898 8.73544C18.5068 6.50004 15.4384 5.24885 12.2432 5.25049C9.04806 5.25213 5.9809 6.50645 3.7002 8.74419V8.74419Z" fill="#01E5E6"/>
<path d="M24.5 5.02362C21.2353 1.80462 16.8348 0 12.25 0C7.66523 0 3.26469 1.80462 0 5.02362V5.04375L1.2285 6.27225C4.16352 3.37649 8.12031 1.7522 12.2434 1.75056C16.3665 1.74892 20.3246 3.37007 23.2619 6.26349L24.5 5.02537V5.02362Z" fill="#01E5E6"/>
</svg>
