<svg width="16" height="17" viewBox="0 0 16 17" fill="none" xmlns="http://www.w3.org/2000/svg">
<path d="M14.8146 0H5.33313C5.0188 0 4.71735 0.124867 4.49508 0.347132C4.27282 0.569396 4.14795 0.870852 4.14795 1.18518H14.8146V15.4074H5.33313V9.59997H4.14795V15.4074C4.14795 15.7217 4.27282 16.0231 4.49508 16.2454C4.71735 16.4677 5.0188 16.5925 5.33313 16.5925H14.8146C15.1289 16.5925 15.4304 16.4677 15.6526 16.2454C15.8749 16.0231 15.9998 15.7217 15.9998 15.4074V1.18518C15.9998 0.870852 15.8749 0.569396 15.6526 0.347132C15.4304 0.124867 15.1289 0 14.8146 0Z" fill="black"/>
<path d="M7.1822 8.5688C7.12017 8.62192 7.06979 8.6873 7.03422 8.76082C6.99865 8.83434 6.97866 8.91442 6.97551 8.99603C6.97236 9.07764 6.98611 9.15902 7.0159 9.23506C7.04569 9.31111 7.09088 9.38017 7.14863 9.43792C7.20638 9.49568 7.27545 9.54086 7.35149 9.57066C7.42754 9.60045 7.50892 9.6142 7.59053 9.61105C7.67214 9.6079 7.75222 9.58791 7.82574 9.55234C7.89926 9.51677 7.96463 9.46639 8.01776 9.40435L11.4489 5.97325L8.02368 2.54215C7.91032 2.44507 7.7645 2.39434 7.61536 2.4001C7.46621 2.40586 7.32474 2.46769 7.2192 2.57322C7.11367 2.67876 7.05184 2.82024 7.04608 2.96938C7.04032 3.11852 7.09105 3.26434 7.18813 3.3777L9.18516 5.33325H0.592591C0.435426 5.33325 0.284698 5.39569 0.173566 5.50682C0.0624335 5.61795 0 5.76868 0 5.92584C0 6.08301 0.0624335 6.23374 0.173566 6.34487C0.284698 6.456 0.435426 6.51844 0.592591 6.51844H9.18516L7.1822 8.5688Z" fill="black"/>
</svg>
