<svg width="206" height="44" viewBox="0 0 206 44" fill="none" xmlns="http://www.w3.org/2000/svg">
<line x1="70.4388" y1="43.6238" x2="70.4388" y2="0.000545489" stroke="black" stroke-width="0.6"/>
<path d="M39.0717 23.7651H38.424V28.5815L53.9051 28.5516L53.8845 28.5742C51.7769 31.1382 48.582 32.7735 45.0068 32.7735V32.7528C38.6672 32.7528 33.5269 27.6132 33.5269 21.2743C33.5269 14.9323 38.6672 9.79476 45.0068 9.79476C48.5648 9.79476 51.7446 11.414 53.0359 13.1412L56.8845 9.29357C54.6014 6.58981 50.0643 4.36938 45.0068 4.36938C35.6705 4.36938 28.1014 11.9388 28.1014 21.2743C28.1014 22.2878 28.191 23.2783 28.362 24.2441L28.3695 24.2687C27.0622 29.1707 22.5902 32.7837 17.275 32.7837C10.9356 32.7837 5.7961 27.6442 5.7961 21.3043C5.7961 14.9637 10.9356 9.82569 17.275 9.82569C20.5438 9.82569 23.492 11.1902 25.4611 13.3011L29.2975 9.46379C26.3479 6.37164 22.0408 4.40019 17.275 4.40019C7.93861 4.40019 0.370605 11.9678 0.370605 21.3043C0.370605 30.6403 7.93861 38.2091 17.275 38.2091C23.0149 38.2091 28.0857 35.3483 31.1423 30.9757L31.1785 30.9176C34.2365 35.2835 39.2733 38.1777 45.0068 38.1777C53.4974 38.1777 60.5248 31.9192 61.7547 23.738H50.6918" fill="black"/>
<path d="M39.0672 23.3966H38.0545V28.9471L53.9006 28.9163V28.5494L53.6354 28.2962L53.6129 28.3197L53.6034 28.3286L53.5959 28.3389C51.5547 30.8218 48.4648 32.4049 45.0023 32.4049V32.7713H45.3681V32.3837H45.0023C41.9317 32.3837 39.1561 31.1416 37.1444 29.1297C35.1329 27.1168 33.8886 24.3415 33.8886 21.2721C33.8886 18.2015 35.1329 15.4248 37.1444 13.4134C39.1561 11.4015 41.9317 10.1584 45.0023 10.1584C46.725 10.1584 48.364 10.5509 49.7194 11.1528C51.0758 11.7521 52.1478 12.5627 52.7388 13.3579L52.9931 13.6967L57.379 9.31246L57.1601 9.05533C54.7842 6.25244 50.1669 4.00576 45.0023 4.00024C35.4628 4.00024 27.7321 11.7331 27.7312 21.2721C27.7312 22.3062 27.8224 23.3199 27.9973 24.3055L27.9997 24.3206L28.0105 24.36L28.365 24.2665L28.0105 24.1719C26.7457 28.9173 22.4166 32.4167 17.2705 32.4153C14.2004 32.4153 11.4248 31.1726 9.41239 29.1607C7.40126 27.1478 6.15793 24.3727 6.15793 21.302C6.15793 18.2312 7.40126 15.4549 9.41239 13.443C11.4248 11.4317 14.2004 10.189 17.2705 10.189C20.4361 10.1884 23.2913 11.5126 25.1887 13.5492L25.4473 13.8267L29.8045 9.46686L29.5572 9.20817C26.5381 6.04589 22.1382 4.03225 17.2705 4.03153C7.73092 4.03153 0 11.764 0 21.302C0 30.8411 7.73092 38.5723 17.2705 38.5731C23.1341 38.5731 28.3175 35.6487 31.438 31.1813L31.4421 31.1763L31.4834 31.114L31.174 30.9153L30.875 31.1247C33.995 35.5827 39.1433 38.5423 45.0023 38.5423C53.6777 38.5423 60.8556 32.1477 62.1114 23.79L62.1759 23.369H50.6873V24.1017H61.7502V23.7358L61.3877 23.6813C60.1835 31.6856 53.3093 37.8119 45.0023 37.8105C39.394 37.8105 34.4689 34.9793 31.476 30.7053L31.1621 30.2599L30.8312 30.7737L31.1378 30.9735L30.8376 30.7618C27.8471 35.0404 22.8866 37.8406 17.2705 37.8406C12.7022 37.8406 8.56968 35.9895 5.57702 32.9966C2.58257 30.0026 0.732191 25.8701 0.732191 21.302C0.732191 16.7349 2.58257 12.6016 5.57702 9.60747C8.56968 6.61338 12.7022 4.76432 17.2705 4.76432C21.9346 4.7636 26.1472 6.69441 29.028 9.71344L29.293 9.46159L29.0343 9.2029L25.1972 13.0402L25.4566 13.2989L25.7246 13.0494C23.6857 10.8642 20.6422 9.45655 17.2705 9.45655C10.728 9.45655 5.42562 14.7585 5.42562 21.302C5.42562 27.8458 10.728 33.1475 17.2705 33.1494C22.7548 33.1475 27.3698 29.4223 28.7171 24.36L28.7432 24.2665L28.7117 24.1476L28.3575 24.2419L28.7171 24.1784C28.5499 23.2337 28.4638 22.2625 28.4638 21.2721C28.4638 16.704 30.3135 12.5706 33.3076 9.57774C36.3035 6.58425 40.4335 4.73315 45.0023 4.73315C49.9498 4.72812 54.4088 6.92421 56.6007 9.52895L56.88 9.29136L56.6217 9.03268L52.7727 12.8805L53.0314 13.139L53.3254 12.9203C52.6263 11.9853 51.4626 11.1247 50.0156 10.4818C48.5686 9.84231 46.8365 9.42754 45.0023 9.42514C38.4581 9.42514 33.1573 14.7284 33.1573 21.2721C33.1573 27.8131 38.4581 33.1169 45.0023 33.1169V32.7506H44.6358V33.1377H45.0023C48.6913 33.1377 51.9896 31.4483 54.16 28.8037L53.88 28.572L54.1439 28.8241L54.1657 28.8021L54.7562 28.1805L38.7872 28.2114V24.1293H39.0672V23.3966ZM47.3269 23.3951L42.5139 23.3966V24.1293H47.3269V23.3951Z" fill="black"/>
<path d="M47.3376 24.159L47.348 21.6688H44.9165L49.0864 12.7375L53.3582 21.6979L50.8418 21.6721L50.8237 24.1408" fill="black"/>
<path d="M47.6635 24.1563L47.6753 21.2981H45.4524L49.0497 13.5918L52.7371 21.3216L50.4386 21.2995L50.4183 24.1332L51.1506 24.1394L51.1668 22.0381L53.9033 22.0672L49.0435 11.8757L44.3018 22.0293H46.9399L46.9311 24.1523L47.6649 24.1563H47.6635Z" fill="black"/>
<path d="M39.0619 24.1481L39.0511 21.677L36.6108 21.637L40.7804 12.7375L45.0617 21.6878H42.5203L42.5104 23.7421V24.14" fill="black"/>
<path d="M39.4464 24.1426L39.4347 21.3115L37.2005 21.2754L40.8019 13.5886L44.5 21.3167H42.1748L42.1609 23.7348V24.1353H42.8933V23.7374L42.9031 22.049H45.6624L40.7952 11.8757L36.0571 21.9885L38.7043 22.0328L38.7137 24.1464L39.4464 24.1426Z" fill="black"/>
<path d="M84.9938 11.9094C84.455 11.3399 83.9552 11.1828 83.4462 11.1828C81.9316 11.1828 80.926 12.3473 80.926 13.8095C80.926 15.3772 81.9316 16.5404 83.4462 16.5404C84.0398 16.5404 84.61 16.2702 85.0987 15.6482L86.1777 16.415C85.514 17.3284 84.5173 17.7228 83.4365 17.7228C81.173 17.7228 79.5552 16.1865 79.5552 13.8924C79.5552 11.5373 81.173 10.001 83.4365 10.001C84.4326 10.001 85.2834 10.3218 86.0117 11.1625L84.9938 11.9094Z" fill="black"/>
<path d="M89.0291 16.5143C89.9427 16.5143 90.4925 15.7967 90.4925 15.0186C90.4925 14.2398 89.9427 13.5224 89.0291 13.5224C88.1143 13.5224 87.5644 14.2398 87.5644 15.0186C87.5644 15.7967 88.1143 16.5143 89.0291 16.5143ZM89.0291 12.4041C90.5347 12.4041 91.7378 13.4506 91.7378 15.0186C91.7378 16.5866 90.5347 17.6341 89.0291 17.6341C87.524 17.6341 86.3193 16.5866 86.3193 15.0186C86.3193 13.4506 87.524 12.4041 89.0291 12.4041Z" fill="black"/>
<path d="M94.9036 16.5143C95.8166 16.5143 96.3665 15.7967 96.3665 15.0186C96.3665 14.2398 95.8166 13.5224 94.9036 13.5224C93.99 13.5224 93.4386 14.2398 93.4386 15.0186C93.4386 15.7967 93.99 16.5143 94.9036 16.5143ZM94.9036 12.4041C96.4086 12.4041 97.6133 13.4506 97.6133 15.0186C97.6133 16.5866 96.4086 17.6341 94.9036 17.6341C93.398 17.6341 92.1948 16.5866 92.1948 15.0186C92.1948 13.4506 93.398 12.4041 94.9036 12.4041Z" fill="black"/>
<path d="M101.093 13.5226C100.18 13.5226 99.6298 14.2398 99.6298 15.0188C99.6298 15.7969 100.18 16.5145 101.093 16.5145C102.006 16.5145 102.556 15.7969 102.556 15.0188C102.556 14.2398 102.006 13.5226 101.093 13.5226ZM98.425 12.5273H99.6079V13.2751H99.6298C99.9929 12.6722 100.646 12.4041 101.342 12.4041C102.877 12.4041 103.801 13.5448 103.801 15.0188C103.801 16.4923 102.816 17.6342 101.394 17.6342C100.46 17.6342 99.962 17.199 99.7017 16.8769H99.6703V19.8766H98.425V12.5273Z" fill="black"/>
<path d="M108.096 14.5206C108.088 13.7936 107.609 13.3379 106.83 13.3379C106.096 13.3379 105.638 13.8045 105.544 14.5206H108.096ZM105.544 15.4548C105.627 16.1923 106.188 16.6383 106.883 16.6383C107.506 16.6383 107.911 16.3475 108.223 15.9625L109.114 16.6383C108.535 17.3556 107.797 17.6342 107.009 17.6342C105.502 17.6342 104.299 16.5866 104.299 15.0188C104.299 13.4508 105.502 12.4041 107.009 12.4041C108.398 12.4041 109.344 13.38 109.344 15.1126V15.4548H105.544Z" fill="black"/>
<path d="M111.064 15.0075C111.064 15.7967 111.688 16.4519 112.529 16.4519C113.451 16.4519 114.01 15.8196 114.01 14.9874C114.01 14.1257 113.442 13.5226 112.538 13.5226C111.665 13.5226 111.064 14.1257 111.064 15.0075ZM115.194 12.5272V17.064C115.194 18.8592 114.324 20.0003 112.381 20.0003C111.459 20.0003 110.617 19.804 109.911 19.1809L110.66 18.1631C111.158 18.6213 111.676 18.8797 112.372 18.8797C113.575 18.8797 113.949 18.195 113.949 17.2083V16.8455H113.929C113.567 17.3335 112.922 17.5725 112.298 17.5725C110.805 17.5725 109.819 16.4297 109.819 15.0188C109.819 13.5446 110.743 12.4041 112.278 12.4041C112.975 12.4041 113.628 12.672 113.99 13.2749H114.01V12.5272H115.194Z" fill="black"/>
<path d="M120.951 17.5638H119.767V16.7649H119.747C119.518 17.2624 119.051 17.6882 118.223 17.6882C116.882 17.6882 116.404 16.7439 116.404 15.7274V12.5813H117.649V15.104C117.649 15.6544 117.694 16.5684 118.565 16.5684C119.383 16.5684 119.705 15.9644 119.705 15.3004V12.5813H120.951V17.5638Z" fill="black"/>
<path d="M125.208 15.2786H124.948C124.264 15.2786 123.081 15.3303 123.081 16.0468C123.081 16.5032 123.546 16.7004 123.952 16.7004C124.802 16.7004 125.208 16.2528 125.208 15.5597V15.2786ZM125.282 16.8246H125.25C124.898 17.3854 124.317 17.6342 123.651 17.6342C122.728 17.6342 121.834 17.127 121.834 16.1399C121.834 14.5206 123.723 14.406 124.97 14.406H125.282V14.2712C125.282 13.6587 124.802 13.3379 124.14 13.3379C123.62 13.3379 123.144 13.5446 122.81 13.8555L122.157 13.2025C122.707 12.6418 123.485 12.4041 124.275 12.4041C126.402 12.4041 126.402 13.9395 126.402 14.6442V17.5099H125.282V16.8246Z" fill="black"/>
<path d="M127.53 12.5272H128.713V13.3254H128.734C128.962 12.8287 129.43 12.4041 130.259 12.4041C131.6 12.4041 132.076 13.3474 132.076 14.3636V17.5097H130.832V14.9874C130.832 14.4373 130.79 13.5224 129.917 13.5224C129.098 13.5224 128.775 14.1257 128.775 14.7897V17.5097H127.53V12.5272Z" fill="black"/>
<path d="M136.245 15.2786H135.986C135.302 15.2786 134.121 15.3303 134.121 16.0468C134.121 16.5032 134.585 16.7004 134.99 16.7004C135.843 16.7004 136.245 16.2528 136.245 15.5597V15.2786ZM136.319 16.8246H136.289C135.935 17.3854 135.354 17.6342 134.69 17.6342C133.765 17.6342 132.873 17.127 132.873 16.1399C132.873 14.5206 134.762 14.406 136.007 14.406H136.319V14.2712C136.319 13.6587 135.843 13.3379 135.178 13.3379C134.66 13.3379 134.181 13.5446 133.85 13.8555L133.195 13.2025C133.744 12.6418 134.523 12.4041 135.313 12.4041C137.44 12.4041 137.44 13.9395 137.44 14.6442V17.5099H136.319V16.8246Z" fill="black"/>
<path d="M142.044 14.0239C141.754 13.722 141.433 13.5224 141.101 13.5224C140.186 13.5224 139.636 14.2398 139.636 15.0186C139.636 15.7967 140.186 16.5143 141.101 16.5143C141.484 16.5143 141.835 16.3473 142.066 16.0468L142.894 16.9397C142.385 17.4478 141.534 17.6342 141.101 17.6342C139.594 17.6342 138.391 16.5866 138.391 15.0186C138.391 13.4506 139.594 12.4041 141.101 12.4041C141.732 12.4041 142.428 12.6321 142.905 13.1607L142.044 14.0239Z" fill="black"/>
<path d="M146.48 15.2786H146.222C145.536 15.2786 144.352 15.3303 144.352 16.0468C144.352 16.5032 144.82 16.7004 145.224 16.7004C146.076 16.7004 146.48 16.2528 146.48 15.5597V15.2786ZM146.552 16.8246H146.521C146.17 17.3854 145.587 17.6342 144.923 17.6342C144.001 17.6342 143.107 17.127 143.107 16.1399C143.107 14.5206 144.995 14.406 146.24 14.406H146.552V14.2712C146.552 13.6587 146.076 13.3379 145.411 13.3379C144.892 13.3379 144.414 13.5446 144.082 13.8555L143.431 13.2025C143.98 12.6418 144.757 12.4041 145.548 12.4041C147.674 12.4041 147.674 13.9395 147.674 14.6442V17.5099H146.552V16.8246Z" fill="black"/>
<path d="M151.464 13.9072C151.227 13.576 150.914 13.3998 150.488 13.3998C150.156 13.3998 149.76 13.5555 149.76 13.9282C149.76 14.822 152.45 14.0957 152.45 16.036C152.45 17.2193 151.319 17.6342 150.3 17.6342C149.532 17.6342 148.868 17.4378 148.36 16.8667L149.19 16.0886C149.512 16.4398 149.844 16.7004 150.373 16.7004C150.739 16.7004 151.203 16.5237 151.203 16.1297C151.203 15.1015 148.516 15.9103 148.516 14.0121C148.516 12.9007 149.512 12.4041 150.518 12.4041C151.185 12.4041 151.89 12.6099 152.292 13.1607L151.464 13.9072Z" fill="black"/>
<path d="M152.631 13.6563V12.599H153.657V11.1572H154.905V12.599H156.273V13.6563H154.905V15.8373C154.905 16.3364 155.049 16.6475 155.599 16.6475C155.817 16.6475 156.119 16.6073 156.273 16.4923V17.5392C156.012 17.6653 155.579 17.706 155.287 17.706C153.97 17.706 153.657 17.114 153.657 15.9417V13.6563H152.631Z" fill="black"/>
<path d="M160.527 14.5206C160.516 13.7936 160.04 13.3379 159.261 13.3379C158.524 13.3379 158.066 13.8045 157.974 14.5206H160.527ZM157.974 15.4548C158.057 16.1923 158.617 16.6383 159.311 16.6383C159.934 16.6383 160.34 16.3475 160.652 15.9625L161.545 16.6383C160.963 17.3556 160.226 17.6342 159.437 17.6342C157.932 17.6342 156.727 16.5866 156.727 15.0188C156.727 13.4508 157.932 12.4041 159.437 12.4041C160.828 12.4041 161.774 13.38 161.774 15.1126V15.4548H157.974Z" fill="black"/>
<path d="M168.329 13.2655C169.102 13.2655 170.008 13.2029 170.008 12.1977C170.008 11.2858 169.161 11.1777 168.452 11.1777H167.262V13.2655H168.329ZM165.894 10.0002H168.573C170.052 10.0002 171.443 10.4811 171.443 12.212C171.443 13.3211 170.8 14.1389 169.658 14.3068L171.703 17.7095H170.052L168.263 14.4468H167.262V17.7095H165.894V10.0002Z" fill="black"/>
<path d="M173.639 10.0002H175.006V16.4682H178.286V17.7095H173.639V10.0002Z" fill="black"/>
<path d="M172.304 17.3101C172.304 17.0951 172.449 16.9438 172.652 16.9438C172.856 16.9438 172.996 17.0951 172.996 17.3101C172.996 17.5195 172.862 17.6763 172.646 17.6763C172.443 17.6763 172.304 17.5195 172.304 17.3101Z" fill="black"/>
<path d="M178.979 17.3101C178.979 17.0951 179.124 16.9438 179.327 16.9438C179.531 16.9438 179.671 17.0951 179.671 17.3101C179.671 17.5195 179.537 17.6764 179.322 17.6764C179.118 17.6764 178.979 17.5195 178.979 17.3101Z" fill="black"/>
<path d="M162.536 18.4314C162.664 18.0885 162.821 17.4667 162.885 17.0425L163.455 16.9841C163.321 17.4783 163.065 18.1235 162.902 18.3969L162.536 18.4314Z" fill="black"/>
<path d="M83.112 33.92V27.804H81V26.22H87.006V27.804H84.883V33.92H83.112Z" fill="#212529"/>
<path d="M87.8053 33.92V26.22H92.5133V27.65H89.5873V29.399H92.5133V30.796H89.5873V32.49H92.5133V33.92H87.8053Z" fill="#212529"/>
<path d="M93.9176 33.92V26.22H95.6996V32.336H98.5596V33.92H93.9176Z" fill="#212529"/>
<path d="M99.7291 33.92V26.22H104.437V27.65H101.511V29.399H104.437V30.796H101.511V32.49H104.437V33.92H99.7291Z" fill="#212529"/>
<path d="M109.419 34.14C108.172 34.14 107.171 33.7623 106.416 33.007C105.661 32.2443 105.283 31.2653 105.283 30.07C105.283 28.8747 105.661 27.8993 106.416 27.144C107.171 26.3813 108.172 26 109.419 26C110.534 26 111.439 26.275 112.136 26.825C112.84 27.3677 113.243 28.0973 113.346 29.014H111.454C111.351 28.574 111.124 28.2293 110.772 27.98C110.42 27.7233 109.973 27.595 109.43 27.595C108.711 27.595 108.15 27.8187 107.747 28.266C107.344 28.706 107.142 29.3073 107.142 30.07C107.142 30.8327 107.344 31.4377 107.747 31.885C108.15 32.325 108.711 32.545 109.43 32.545C109.973 32.545 110.42 32.4203 110.772 32.171C111.124 31.9143 111.351 31.566 111.454 31.126H113.346C113.243 32.0427 112.84 32.776 112.136 33.326C111.439 33.8687 110.534 34.14 109.419 34.14Z" fill="#212529"/>
<path d="M121.058 32.963C120.31 33.7477 119.313 34.14 118.066 34.14C116.819 34.14 115.822 33.7477 115.074 32.963C114.326 32.171 113.952 31.2067 113.952 30.07C113.952 28.9333 114.326 27.9727 115.074 27.188C115.822 26.396 116.819 26 118.066 26C119.313 26 120.31 26.396 121.058 27.188C121.806 27.9727 122.18 28.9333 122.18 30.07C122.18 31.2067 121.806 32.171 121.058 32.963ZM118.066 32.545C118.77 32.545 119.32 32.3103 119.716 31.841C120.119 31.3643 120.321 30.774 120.321 30.07C120.321 29.366 120.119 28.7793 119.716 28.31C119.32 27.8333 118.77 27.595 118.066 27.595C117.355 27.595 116.797 27.8333 116.394 28.31C115.998 28.7793 115.804 29.366 115.811 30.07C115.804 30.774 115.998 31.3643 116.394 31.841C116.797 32.3103 117.355 32.545 118.066 32.545Z" fill="#212529"/>
<path d="M123.212 33.92V26.22H125.28L127.326 31.687L129.372 26.22H131.396V33.92H129.691V28.926L127.986 33.92H126.666L124.917 28.893V33.92H123.212Z" fill="#212529"/>
<path d="M138.093 33.381C137.536 33.8723 136.777 34.118 135.816 34.118C134.856 34.118 134.097 33.8723 133.539 33.381C132.989 32.8897 132.714 32.2003 132.714 31.313V26.22H134.485V31.203C134.485 31.6357 134.603 31.973 134.837 32.215C135.079 32.457 135.406 32.578 135.816 32.578C136.227 32.578 136.55 32.457 136.784 32.215C137.026 31.973 137.147 31.6357 137.147 31.203V26.22H138.929V31.313C138.929 32.2003 138.651 32.8897 138.093 33.381Z" fill="#212529"/>
<path d="M140.249 33.92V26.22H142.075L144.748 31.203V26.22H146.453V33.92H144.627L141.954 28.937V33.92H140.249Z" fill="#212529"/>
<path d="M147.951 33.92V26.22H149.733V33.92H147.951Z" fill="#212529"/>
<path d="M154.912 34.14C153.666 34.14 152.665 33.7623 151.909 33.007C151.154 32.2443 150.776 31.2653 150.776 30.07C150.776 28.8747 151.154 27.8993 151.909 27.144C152.665 26.3813 153.666 26 154.912 26C156.027 26 156.933 26.275 157.629 26.825C158.333 27.3677 158.737 28.0973 158.839 29.014H156.947C156.845 28.574 156.617 28.2293 156.265 27.98C155.913 27.7233 155.466 27.595 154.923 27.595C154.205 27.595 153.644 27.8187 153.24 28.266C152.837 28.706 152.635 29.3073 152.635 30.07C152.635 30.8327 152.837 31.4377 153.24 31.885C153.644 32.325 154.205 32.545 154.923 32.545C155.466 32.545 155.913 32.4203 156.265 32.171C156.617 31.9143 156.845 31.566 156.947 31.126H158.839C158.737 32.0427 158.333 32.776 157.629 33.326C156.933 33.8687 156.027 34.14 154.912 34.14Z" fill="#212529"/>
<path d="M163.901 33.92L163.637 32.985H160.909L160.645 33.92H158.764L161.371 26.22H163.164L165.782 33.92H163.901ZM161.305 31.588H163.241L162.273 28.167L161.305 31.588Z" fill="#212529"/>
<path d="M169.887 34.14C168.64 34.14 167.639 33.7623 166.884 33.007C166.128 32.2443 165.751 31.2653 165.751 30.07C165.751 28.8747 166.128 27.8993 166.884 27.144C167.639 26.3813 168.64 26 169.887 26C171.001 26 171.907 26.275 172.604 26.825C173.308 27.3677 173.711 28.0973 173.814 29.014H171.922C171.819 28.574 171.592 28.2293 171.24 27.98C170.888 27.7233 170.44 27.595 169.898 27.595C169.179 27.595 168.618 27.8187 168.215 28.266C167.811 28.706 167.61 29.3073 167.61 30.07C167.61 30.8327 167.811 31.4377 168.215 31.885C168.618 32.325 169.179 32.545 169.898 32.545C170.44 32.545 170.888 32.4203 171.24 32.171C171.592 31.9143 171.819 31.566 171.922 31.126H173.814C173.711 32.0427 173.308 32.776 172.604 33.326C171.907 33.8687 171.001 34.14 169.887 34.14Z" fill="#212529"/>
<path d="M174.817 33.92V26.22H176.599V33.92H174.817Z" fill="#212529"/>
<path d="M184.748 32.963C184 33.7477 183.003 34.14 181.756 34.14C180.51 34.14 179.512 33.7477 178.764 32.963C178.016 32.171 177.642 31.2067 177.642 30.07C177.642 28.9333 178.016 27.9727 178.764 27.188C179.512 26.396 180.51 26 181.756 26C183.003 26 184 26.396 184.748 27.188C185.496 27.9727 185.87 28.9333 185.87 30.07C185.87 31.2067 185.496 32.171 184.748 32.963ZM181.756 32.545C182.46 32.545 183.01 32.3103 183.406 31.841C183.81 31.3643 184.011 30.774 184.011 30.07C184.011 29.366 183.81 28.7793 183.406 28.31C183.01 27.8333 182.46 27.595 181.756 27.595C181.045 27.595 180.488 27.8333 180.084 28.31C179.688 28.7793 179.494 29.366 179.501 30.07C179.494 30.774 179.688 31.3643 180.084 31.841C180.488 32.3103 181.045 32.545 181.756 32.545Z" fill="#212529"/>
<path d="M186.902 33.92V26.22H188.728L191.401 31.203V26.22H193.106V33.92H191.28L188.607 28.937V33.92H186.902Z" fill="#212529"/>
<path d="M194.604 33.92V26.22H199.312V27.65H196.386V29.399H199.312V30.796H196.386V32.49H199.312V33.92H194.604Z" fill="#212529"/>
<path d="M203.085 34.14C202.139 34.14 201.399 33.9017 200.863 33.425C200.328 32.941 200.06 32.2663 200.06 31.401H201.842C201.842 31.819 201.952 32.1453 202.172 32.38C202.4 32.6147 202.708 32.732 203.096 32.732C203.426 32.732 203.679 32.6587 203.855 32.512C204.039 32.3653 204.13 32.1563 204.13 31.885C204.13 31.6503 204.061 31.4633 203.921 31.324C203.789 31.1773 203.547 31.0343 203.195 30.895L201.809 30.356C200.768 29.9673 200.247 29.267 200.247 28.255C200.247 27.573 200.493 27.0267 200.984 26.616C201.483 26.2053 202.15 26 202.986 26C203.837 26 204.519 26.2237 205.032 26.671C205.546 27.111 205.802 27.7013 205.802 28.442H204.02C204.02 28.0827 203.929 27.8077 203.745 27.617C203.562 27.4263 203.298 27.331 202.953 27.331C202.667 27.331 202.44 27.4007 202.271 27.54C202.11 27.672 202.029 27.8553 202.029 28.09C202.029 28.3027 202.11 28.486 202.271 28.64C202.433 28.7867 202.704 28.937 203.085 29.091L204.361 29.597C205.395 30.0003 205.912 30.7227 205.912 31.764C205.912 32.4827 205.652 33.0583 205.131 33.491C204.618 33.9237 203.936 34.14 203.085 34.14Z" fill="#212529"/>
</svg>
