<svg width="135" height="135" viewBox="0 0 135 135" fill="none" xmlns="http://www.w3.org/2000/svg">
<path d="M64.3486 11.4C63.412 11.4443 62.5234 11.566 61.3841 11.6287C56.8304 12.1451 52.3468 13.2072 47.9333 14.8149L46.4732 15.3975C45.7431 15.6889 45.0131 15.9802 44.2683 16.3342L43.9733 16.4632C43.8959 16.5112 43.8959 16.5112 43.8959 16.5112L43.2285 16.8172C42.7787 17.0422 42.4063 17.2192 42.0339 17.3962C41.8016 17.54 41.584 17.6211 41.3517 17.7649L39.6925 18.6315C37.6314 19.8004 36.3631 20.6927 36.2709 20.8033C35.5888 21.1721 34.9398 21.6809 34.2909 22.1898L32.7608 23.3513L32.6833 23.3992C31.6472 24.1478 30.6444 25.0364 29.4571 26.1463L29.3944 26.1316L29.3797 26.1943C29.3797 26.1943 29.3797 26.1943 29.3023 26.2422C28.7934 26.7179 28.1924 27.3041 27.6541 27.9052C27.1453 28.3808 26.6218 28.9192 26.1904 29.3469L23.3329 32.7761C22.5181 33.709 21.5373 35.0659 20.6045 36.5003C19.7786 37.7613 19.0007 39.0998 18.3001 40.3904L18.208 40.501C17.2788 42.2008 16.5046 43.8048 15.9442 45.0621C14.0602 49.9772 13.909 50.3386 13.0648 53.646C11.9514 57.8163 11.6823 60.9283 11.5312 62.4142C11.1847 66.6988 11.3729 70.1168 11.4356 71.2561C11.7566 75.2346 12.2581 77.6018 12.7596 79.9689C13.0915 81.3701 13.3718 82.4283 13.7 83.5639C14.1573 84.9945 14.6772 86.4399 15.2598 87.9C15.341 88.1176 15.3741 88.2577 15.47 88.4125C15.9752 89.9206 16.9081 91.86 17.7083 93.239C18.254 94.2935 18.9915 95.6578 19.6147 96.6643C20.2379 97.6709 21.0528 98.9872 21.7534 99.9459C22.5646 100.997 22.8522 101.461 23.5676 102.357C24.4894 103.5 25.426 104.581 26.3773 105.598C26.6944 105.937 27.0116 106.277 27.3287 106.616C27.7085 106.97 28.0883 107.324 28.4054 107.663L29.2276 108.386L30.5403 109.554C31.6944 110.554 33.1325 111.752 34.836 112.946C35.1679 113.223 35.6878 113.544 36.2556 113.942C36.4289 114.049 36.5875 114.219 36.7608 114.325L37.6273 114.86L38.4938 115.395C38.4938 115.395 38.4938 115.395 38.5565 115.409L39.423 115.944L40.0683 116.294C42.2253 117.529 44.3787 118.499 46.4214 119.377L47.7562 119.889L48.9177 120.295C49.4671 120.49 50.1419 120.715 50.706 120.848C51.1927 121.028 51.8048 121.238 52.3689 121.371L53.2465 121.578C53.984 121.817 55.0016 121.99 55.7538 122.167C56.506 122.344 57.5237 122.518 58.3386 122.709C60.0126 122.905 62.2028 123.155 63.8915 123.288C65.2521 123.41 66.9703 123.417 68.2977 123.399C68.6259 123.41 68.9688 123.358 69.3744 123.321C70.3736 123.292 71.4503 123.214 72.3868 123.17L73.4155 123.015C74.2894 122.956 75.1153 122.819 76.0039 122.698L76.4095 122.661C77.4235 122.569 78.6218 122.255 79.7427 121.99C80.2257 121.905 80.6461 121.805 81.1438 121.658C82.4049 121.359 83.9608 120.931 85.126 120.478C85.1887 120.492 85.2514 120.507 85.2661 120.445C86.3391 120.102 87.4268 119.696 88.4518 119.276C88.6693 119.194 88.9016 119.051 89.1192 118.97L93.046 117.181C93.7134 116.875 94.9227 116.233 96.781 115.083C96.8585 115.035 96.8585 115.035 96.8732 114.972L97.0908 114.891C98.0347 114.253 99.1334 113.519 100.479 112.579L100.557 112.531C101.84 111.576 104.082 109.921 106.592 107.402L106.67 107.354C107.271 106.768 107.809 106.167 108.44 105.455C108.701 105.186 108.963 104.917 109.225 104.648C109.594 104.205 109.948 103.825 110.239 103.431C110.331 103.32 110.423 103.21 110.593 103.051C111.069 102.435 111.622 101.772 112.127 101.031C112.879 100.083 113.568 99.1205 114.103 98.254C115.098 96.8344 116.013 95.1972 116.927 93.5601C117.429 92.5535 118.007 91.4989 118.369 90.5255C118.885 89.4562 119.338 88.3721 119.729 87.2733C119.851 87.0373 119.925 86.7239 120.046 86.4879C120.603 84.9651 121.112 83.3648 121.558 81.7498L121.632 81.4364C121.941 80.1201 122.251 78.8037 122.513 77.41C122.527 77.3473 122.542 77.2846 122.557 77.2219C122.616 76.9712 122.907 75.452 123.11 73.1844L123.261 71.6984C123.814 64.2872 122.899 56.9275 120.679 50.0547C120.403 49.2619 120.174 48.5466 119.883 47.8166C118.537 44.2585 116.881 40.8921 114.868 37.6401C113.957 36.1689 112.777 34.436 111.697 33.1234C110.996 32.1647 110.281 31.2688 109.488 30.4207L108.854 29.7423C108.33 29.1561 107.806 28.5698 107.22 27.9688L106.254 27.0139L105.432 26.2912C105.321 26.199 105.211 26.1069 105.1 26.0147C103.249 24.3223 101.306 22.7406 99.2077 21.2547C98.6251 20.9192 98.2306 20.6279 98.0093 20.4436L97.0801 19.8942L95.867 19.1457L94.1819 18.1539L93.1753 17.6525L91.87 17.0147L89.842 16.0745L88.098 15.3334L87.1245 14.9721L85.7897 14.4597L84.0162 13.844L82.84 13.5011L81.5863 13.2062C80.4727 12.878 79.4071 12.6273 78.2641 12.4246L76.8703 12.1628C76.6823 12.1186 76.5569 12.0891 76.4315 12.0596L74.9604 11.8458C74.4441 11.7905 73.9279 11.7352 73.4744 11.6947L72.6448 11.5657C72.2539 11.5399 71.9258 11.5288 71.5976 11.5178C71.2695 11.5067 71.0187 11.4477 70.7532 11.4514C70.1596 11.4441 69.6434 11.3888 69.3152 11.3777C68.7216 11.3704 68.0653 11.3483 67.4716 11.3409C66.4097 11.3557 65.4105 11.3852 64.3486 11.4ZM72.8328 11.6099C72.8328 11.6099 72.8328 11.6099 72.7701 11.5951L72.8328 11.6099Z" fill="url(#paint0_radial)"/>
<path d="M47.1377 54.1431C44.4194 55.1447 44.534 58.6828 46.7157 59.7593C46.8744 59.8364 47.1002 59.9091 47.2677 59.962C52.4718 61.2104 54.8463 61.7801 63.2776 63.5761C51.9175 74.7764 51.8746 74.8591 51.5903 75.3968C50.5645 77.3415 51.9638 80.2394 54.5311 80.1667C55.6231 80.1358 56.2699 79.5276 56.4825 79.3282C69.2431 66.6954 70.4727 65.436 70.5444 65.3501C70.9774 64.8443 71.6286 63.7612 71.1261 62.1922C70.8848 61.5222 70.6413 60.8567 70.3978 60.1945C69.9527 59.0993 69.1703 58.4337 68.0079 58.1616C61.464 56.868 54.9774 55.3001 48.4269 54.0395C48.1933 53.9944 47.66 53.9657 47.1377 54.1431Z" fill="#412121"/>
<path d="M98.3343 35.683C98.1514 35.7778 97.9244 35.8968 97.7944 36.3463C96.5316 40.4551 95.5752 43.2902 91.9523 49.5432C91.6328 50.0953 91.3684 51.0484 91.9259 52.4488C92.2036 53.0989 92.4757 53.7545 92.7413 54.4145C93.258 55.6023 94.0789 56.3648 95.1136 56.6171C99.4438 57.5449 103.921 58.5046 108.974 60.3998C109.227 60.4945 109.377 60.4824 109.522 60.4703C110.773 60.3689 111.186 57.5295 109.902 55.4161C109.396 54.5864 108.913 54.3616 108.681 54.2536C105.504 53.1364 103.209 52.3287 97.7955 51.1387C101.619 43.4368 102.258 40.6766 102.297 39.7158C102.367 38.0013 99.9937 35.1982 98.4345 35.6478C98.4037 35.6566 98.3629 35.6709 98.3343 35.683Z" fill="#412121"/>
<path d="M98.8151 72.6742C97.3166 73.3419 96.9155 75.0289 97.029 76.2696C97.6659 83.2795 94.7878 88.9607 90.0278 90.0835C86.038 91.0256 82.1198 88.0142 80.0472 82.4102C79.2131 80.158 76.2238 79.9409 74.8035 82.03C72.6163 85.2497 78.5509 93.0838 83.6227 95.0264C97.3122 100.27 103.779 79.6071 101.279 73.9281C100.725 72.6698 99.6194 72.3448 98.8151 72.6742Z" fill="#412221"/>
<path d="M53.6382 86.0388C43.5474 89.7729 44.419 97.6633 50.2985 100.452C59.0604 104.607 69.7175 96.7587 67.4521 90.185C65.9955 85.9572 59.6697 84.0587 53.6382 86.0388Z" fill="#FF3B62"/>
<path d="M112.682 64.7287C105.98 68.1147 105.736 79.8792 110.822 81.6476C116.216 83.523 119.947 72.5452 117.169 66.7484C116.179 64.6791 114.542 63.9431 112.682 64.7287Z" fill="#FF3B62"/>
<defs>
<radialGradient id="paint0_radial" cx="0" cy="0" r="1" gradientUnits="userSpaceOnUse" gradientTransform="translate(68.4013 76.8429) rotate(13.2386) scale(64.3942)">
<stop stop-color="#F79F40"/>
<stop offset="0.77" stop-color="#FBE660"/>
<stop offset="0.93" stop-color="#FBF672"/>
<stop offset="1" stop-color="#FDFBC2"/>
</radialGradient>
</defs>
</svg>
