<svg width="32" height="32" viewBox="0 0 32 32" fill="none" xmlns="http://www.w3.org/2000/svg">
<path d="M28.5291 27.4699L22.9628 21.9036C24.8874 19.7044 25.8818 16.8433 25.7362 13.9246C25.5905 11.0058 24.3162 8.25797 22.1823 6.26127C20.0485 4.26457 17.2221 3.17538 14.3001 3.22371C11.3781 3.27204 8.58934 4.45413 6.52267 6.52031C4.456 8.58649 3.27327 11.375 3.22424 14.297C3.17522 17.2189 4.26375 20.0456 6.25994 22.1799C8.25614 24.3142 11.0037 25.5892 13.9224 25.7355C16.8411 25.8819 19.7024 24.8881 21.9021 22.9641L27.4686 28.5306C27.6097 28.6693 27.7998 28.7467 27.9977 28.7459C28.1955 28.7451 28.385 28.6661 28.5249 28.5262C28.6648 28.3863 28.7437 28.1967 28.7445 27.9989C28.7453 27.801 28.6679 27.6109 28.5291 27.4699ZM4.7496 14.5001C4.7496 12.5717 5.32142 10.6867 6.39277 9.0833C7.46411 7.47992 8.98685 6.23023 10.7684 5.49228C12.55 4.75433 14.5104 4.56124 16.4017 4.93745C18.293 5.31366 20.0303 6.24225 21.3939 7.60581C22.7574 8.96938 23.686 10.7067 24.0623 12.598C24.4385 14.4893 24.2454 16.4497 23.5074 18.2313C22.7695 20.0128 21.5198 21.5356 19.9164 22.6069C18.313 23.6783 16.428 24.2501 14.4996 24.2501C11.9146 24.2472 9.43637 23.219 7.60852 21.3912C5.78067 19.5633 4.75251 17.0851 4.7496 14.5001Z" fill="black"/>
</svg>
