<svg width="63" height="63" viewBox="0 0 63 63" fill="none" xmlns="http://www.w3.org/2000/svg">
<circle cx="31.5" cy="31.5" r="31" fill="white" stroke="black"/>
<path d="M32.5701 22.2356L32.5693 22.2365C31.7503 23.1457 31.8239 24.5494 32.7352 25.3689L32.7354 25.3691L36.529 28.7857L37.4967 29.6572H36.1944H19.7188C18.4923 29.6572 17.5 30.6496 17.5 31.876C17.5 33.1024 18.4923 34.0947 19.7188 34.0947H36.198H37.5017L36.5323 34.9665L32.7337 38.3828C31.822 39.2042 31.7487 40.6061 32.5671 41.5151C33.0072 42.0027 33.6119 42.251 34.2188 42.251C34.7492 42.251 35.2792 42.0632 35.7018 41.6819L35.7022 41.6815L44.7647 33.5271L44.765 33.5269C45.2322 33.1069 45.5 32.5063 45.5 31.8778C45.5 31.2494 45.2322 30.6485 44.7665 30.2285L32.5701 22.2356ZM32.5701 22.2356C33.3886 21.3225 34.7919 21.2503 35.704 22.0704C35.704 22.0705 35.7041 22.0705 35.7042 22.0706L44.7662 30.2282L32.5701 22.2356Z" stroke="#212529"/>
</svg>
