<svg width="797" height="80" viewBox="0 0 797 80" fill="none" xmlns="http://www.w3.org/2000/svg">
<path d="M370.777 52.3345H371.136L371.668 53.8957L372.2 52.3345H372.554V54.1801H372.315V53.0894C372.315 53.0502 372.315 52.9913 372.32 52.9006V52.6237L371.791 54.1801H371.545L371.008 52.6237V52.6801C371.008 52.7242 371.011 52.7928 371.013 52.8859C371.013 52.9791 371.016 53.0453 371.016 53.0894V54.1801H370.777V52.3345ZM370.553 52.3345V52.5526H369.928V54.1801H369.674V52.5526H369.052V52.3345H370.553Z" fill="black"/>
<path d="M373.648 29.2718L369.235 41.8343L365.117 29.2718H360.909L367.305 46.2872L367.256 46.4047C367.256 46.4047 365.966 49.8754 364.802 50.7155C363.904 51.1711 361.802 51.1393 361.007 51.0829V54.2915C362.395 54.2891 365.661 54.3772 366.712 53.7135C368.034 52.8856 368.329 52.5256 369.23 50.7057C370.212 48.7218 377.756 29.2718 377.756 29.2718H373.648ZM353.04 32.1032V29.2743H349.097V46.4072H353.04V39.8847C353.04 38.7384 353.148 37.7317 353.466 36.9014C354.652 33.7834 357.965 32.8968 359.678 32.6445L358.327 29.3698C356.948 29.6074 354.524 30.2662 353.04 32.1032ZM285.115 43.3823C282.083 43.3823 279.964 40.9183 279.964 37.8346C279.964 34.8171 282.051 32.3506 284.918 32.3506C286.907 32.3506 288.179 33.225 289.385 34.4937L291.832 31.8656C290.232 30.1144 288.211 28.9142 284.953 28.9142C279.801 28.9142 276.021 32.9997 276.021 37.8983C276.021 42.7945 279.801 46.7868 284.918 46.7868C288.275 46.7868 290.266 45.4544 291.96 43.5758L289.58 41.2416C288.342 42.5054 286.973 43.3823 285.115 43.3823ZM342.233 36.2303C342.169 35.6008 342.026 35.4245 341.807 34.8709C341.593 34.3223 341.297 33.8373 340.928 33.4283C340.559 33.0168 340.119 32.696 339.609 32.4706C339.1 32.2428 338.516 32.1302 337.862 32.1302C336.646 32.1302 335.642 32.5465 334.847 33.3793C334.054 34.2145 333.569 34.8881 333.394 36.2303H342.233ZM345.624 34.6138C345.971 35.7282 346.146 36.9014 346.146 38.1334C346.146 38.3049 346.141 38.4861 346.131 38.6698C346.119 38.8535 346.102 39.0421 346.082 39.2356H333.429C333.648 40.644 334.207 41.7192 335.107 42.4638C336.011 43.2108 337.104 43.5856 338.386 43.5856C339.363 43.5856 340.212 43.4117 340.928 43.0663C341.647 42.7185 342.353 42.2115 343.047 41.5404L345.366 43.5856C344.536 44.558 343.554 45.3393 342.412 45.9222C341.27 46.5052 339.907 46.7991 338.319 46.7991C337.081 46.7991 335.922 46.5786 334.847 46.15C333.773 45.7165 332.836 45.1115 332.041 44.3302C331.251 43.5537 330.623 42.6181 330.168 41.5257C329.712 40.4333 329.484 39.2234 329.484 37.9056V37.8395C329.484 36.6075 329.69 35.4514 330.104 34.3688C330.515 33.2887 331.098 32.3408 331.846 31.5301C332.597 30.7169 333.483 30.0801 334.504 29.6147C335.526 29.1494 336.656 28.9167 337.896 28.9167C339.264 28.9167 340.468 29.1665 341.499 29.6637C342.531 30.1609 343.392 30.832 344.076 31.6746C344.763 32.5196 345.277 33.4993 345.624 34.6138ZM320.298 41.8686L315.669 29.2743H311.428L318.506 46.5395H322.061L329.102 29.2743H324.96L320.298 41.8686ZM307.323 37.8738C307.323 37.117 307.192 36.4018 306.931 35.7331C306.668 35.062 306.304 34.4791 305.839 33.9794C305.368 33.4822 304.817 33.0878 304.175 32.7939C303.535 32.5025 302.821 32.3579 302.038 32.3579C301.256 32.3579 300.542 32.5025 299.905 32.7939C299.262 33.0878 298.711 33.4773 298.256 33.9622C297.8 34.4497 297.451 35.0228 297.212 35.6817C296.973 36.343 296.853 37.0533 296.853 37.8077V37.8738C296.853 38.611 296.986 39.314 297.244 39.9827C297.505 40.6538 297.869 41.244 298.337 41.7535C298.804 42.2605 299.358 42.6597 300.001 42.9512C300.643 43.2427 301.342 43.3921 302.102 43.3921C302.907 43.3921 303.631 43.2427 304.273 42.9512C304.913 42.6597 305.464 42.2654 305.92 41.7682C306.375 41.2685 306.722 40.693 306.963 40.0316C307.2 39.3728 307.323 38.6747 307.323 37.9399V37.8738ZM310.581 34.3492C311.039 35.4245 311.268 36.5757 311.268 37.8077V37.8738C311.268 39.0862 311.032 40.2325 310.567 41.3126C310.096 42.3928 309.457 43.3407 308.642 44.1538C307.827 44.9646 306.853 45.6087 305.725 46.0839C304.593 46.5615 303.365 46.7991 302.038 46.7991C300.734 46.7991 299.523 46.5688 298.403 46.101C297.283 45.6357 296.316 45.0013 295.501 44.2028C294.684 43.4019 294.049 42.4614 293.591 41.3788C293.136 40.2962 292.907 39.1499 292.907 37.9399V37.8738C292.907 36.6418 293.141 35.4833 293.609 34.4007C294.076 33.3181 294.719 32.3751 295.533 31.5644C296.348 30.7512 297.315 30.107 298.435 29.6294C299.555 29.1543 300.778 28.9167 302.102 28.9167C303.429 28.9167 304.652 29.1494 305.772 29.6147C306.892 30.0801 307.859 30.7169 308.674 31.5301C309.489 32.3408 310.126 33.2813 310.581 34.3492ZM272.501 37.9203C271.992 37.5456 271.421 37.2247 270.788 36.9651C270.158 36.7055 269.528 36.4777 268.898 36.2817C268.398 36.1103 267.916 35.9486 267.446 35.7943C266.981 35.6474 266.567 35.4759 266.208 35.2947C265.849 35.111 265.561 34.9052 265.344 34.675C265.125 34.4497 265.019 34.1851 265.019 33.8814V33.8177C265.019 33.3181 265.228 32.9066 265.654 32.5857C266.077 32.26 266.671 32.0959 267.431 32.0959C268.15 32.0959 268.93 32.2428 269.779 32.5367C270.626 32.8258 271.463 33.2226 272.29 33.7198L273.855 30.93C272.942 30.3226 271.933 29.8474 270.823 29.5021C269.713 29.1543 268.615 28.9828 267.53 28.9828C266.68 28.9828 265.883 29.1028 265.132 29.338C264.382 29.578 263.729 29.9233 263.176 30.3765C262.622 30.832 262.186 31.3758 261.871 32.015C261.556 32.6568 261.399 33.3867 261.399 34.2072V34.2709C261.399 35.0938 261.561 35.7845 261.888 36.3503C262.213 36.9112 262.632 37.3839 263.144 37.7587C263.653 38.1383 264.229 38.4469 264.871 38.687C265.511 38.9221 266.149 39.1278 266.779 39.3017C267.278 39.4536 267.763 39.6006 268.231 39.7402C268.696 39.8798 269.11 40.0414 269.469 40.2276C269.828 40.4113 270.109 40.6219 270.318 40.8595C270.522 41.0971 270.626 41.3788 270.626 41.7021V41.7682C270.626 42.3315 270.392 42.7798 269.924 43.1129C269.459 43.4509 268.802 43.615 267.953 43.615C267.062 43.615 266.132 43.4386 265.164 43.081C264.197 42.7234 263.245 42.1993 262.312 41.5086L260.55 44.1685C261.637 45.0135 262.816 45.6504 264.089 46.0839C265.359 46.5174 266.614 46.733 267.854 46.733C268.745 46.733 269.585 46.6203 270.367 46.3925C271.148 46.1623 271.827 45.8316 272.403 45.3858C272.979 44.9401 273.432 44.3865 273.759 43.713C274.084 43.0443 274.246 42.2532 274.246 41.3469V41.2808C274.246 40.5019 274.084 39.8406 273.759 39.3017C273.432 38.7604 273.013 38.3024 272.501 37.9203ZM253.919 46.4072H257.867V29.2743H253.919V46.4072ZM251.632 34.8905C251.632 41.3126 246.678 46.2725 239.508 46.2725H232.57C233.971 45.3442 235.137 44.1024 235.977 42.6402H239.508C244.298 42.6402 247.429 39.4291 247.429 34.9542C247.429 30.4793 244.298 27.2022 239.508 27.2022H235.009V30.543C234.35 29.7249 233.579 28.9975 232.708 28.4023C232.174 28.0325 231.598 27.719 231 27.452V23.5698H239.508C246.678 23.5698 251.632 28.4684 251.632 34.8905Z" fill="black"/>
<path d="M21.3167 38.3354C21.4348 37.9068 21.5603 37.4414 21.6957 36.9344C21.8335 36.4298 21.9394 35.9498 22.0181 35.504C22.0944 35.0533 22.1732 34.6541 22.2519 34.3038C22.3282 33.9536 22.3676 33.7405 22.3676 33.6621C22.3676 33.7797 22.407 34.0099 22.4858 34.3626C22.5621 34.7129 22.6408 35.1145 22.7196 35.5603C22.7959 36.011 22.9042 36.4739 23.0395 36.9613C23.1749 37.4512 23.3029 37.9068 23.4186 38.3354L27.0464 49.8863C30.47 49.4699 33.9255 49.0976 37.4155 48.7694L44.7352 24.4282H37.2629L32.9976 40.2654C32.8795 40.7333 32.7638 41.2574 32.6482 41.8452C32.53 42.4257 32.4217 42.9646 32.3257 43.4495C32.2273 43.9369 32.1608 44.3656 32.1214 44.7354C32.0821 45.1077 32.0624 45.3282 32.0624 45.409C32.0624 45.2914 32.023 45.0465 31.9467 44.6766C31.8679 44.3068 31.7793 43.8806 31.6833 43.3908C31.5874 42.9058 31.4692 42.3767 31.3339 41.8134C31.196 41.2476 31.0508 40.7333 30.8958 40.2654L25.8133 24.4282H19.1557L14.1348 40.2654C13.9773 40.7333 13.8321 41.2574 13.6967 41.8452C13.5589 42.4257 13.4334 42.9646 13.3152 43.4495C13.1996 43.9369 13.1011 44.3656 13.0248 44.7354C12.946 45.1077 12.9067 45.3282 12.9067 45.409C12.9067 45.3282 12.8771 45.1077 12.8181 44.7354C12.7615 44.3656 12.6827 43.9271 12.5867 43.4201C12.4883 42.9131 12.3898 42.3669 12.2938 41.784C12.1954 41.2011 12.0895 40.6745 11.9739 40.2067L7.88577 24.4282H0L8.42724 52.6246C11.3487 52.1176 14.2997 51.6474 17.2778 51.204L21.3167 38.3354Z" fill="#524D3B"/>
<path d="M54.7392 46.1843C54.0377 45.4078 53.484 44.4526 53.0729 43.321C52.6644 42.1919 52.4601 40.906 52.4601 39.4658C52.4601 38.0232 52.6644 36.7177 53.0729 35.5494C53.484 34.3811 54.0377 33.3964 54.7392 32.598C55.4382 31.7995 56.2651 31.1847 57.2201 30.7561C58.1751 30.3275 59.1768 30.1119 60.2277 30.1119C61.2787 30.1119 62.2804 30.3275 63.2353 30.7561C64.1903 31.1847 65.0173 31.7995 65.7187 32.598C66.4177 33.3964 66.974 34.3811 67.3825 35.5494C67.7911 36.7177 67.9954 38.0232 67.9954 39.4658C67.9954 40.906 67.7911 42.1919 67.3825 43.321C66.974 44.4526 66.4177 45.4078 65.7187 46.1843C65.416 46.5223 65.0788 46.8064 64.7293 47.0734C67.7295 46.9901 70.747 46.9411 73.7817 46.9215C73.986 46.5321 74.1829 46.1328 74.3601 45.7189C75.1797 43.8084 75.5883 41.7045 75.5883 39.4046C75.5883 37.1488 75.1797 35.0424 74.3601 33.0952C73.543 31.1455 72.4354 29.4726 71.0325 28.0692C69.6321 26.6657 68.0052 25.566 66.1568 24.7675C64.306 23.9691 62.3296 23.5698 60.2277 23.5698C58.1258 23.5698 56.1495 23.9691 54.3011 24.7675C52.4502 25.566 50.8258 26.6657 49.4229 28.0692C48.0225 29.4726 46.9125 31.1455 46.0953 33.0952C45.2782 35.0424 44.8672 37.1488 44.8672 39.4046C44.8672 41.7045 45.2782 43.8084 46.0953 45.7189C46.4325 46.5076 46.8337 47.2448 47.2718 47.9478C50.2351 47.7347 53.2181 47.551 56.2184 47.404C55.6818 47.0587 55.1773 46.6717 54.7392 46.1843Z" fill="#524D3B"/>
<path d="M87.0885 38.9471C87.0885 36.1818 87.9745 34.1048 89.7466 32.7234C91.5187 31.342 94.098 30.9036 97.4847 31.4106V24.0455C96.5494 23.9671 95.5649 23.9892 94.5337 24.1018C93.5024 24.2194 92.4933 24.4937 91.499 24.9224C90.5046 25.351 89.5891 25.9535 88.7547 26.7348C87.9154 27.5137 87.2435 28.5081 86.7365 29.7132V24.3982H79.3799V46.9833C81.9617 46.9931 84.5312 47.0274 87.0885 47.0862V38.9471Z" fill="#524D3B"/>
<path d="M106.986 10.6904H99.6273V47.244C102.096 47.3787 104.547 47.5354 106.986 47.7118V10.6904Z" fill="#524D3B"/>
<path d="M128.807 47.7094C127.855 48.1209 126.85 48.3217 125.799 48.3217C124.751 48.3217 123.747 48.1209 122.792 47.7094C121.839 47.3003 121.012 46.7076 120.311 45.9263C119.609 45.1498 119.053 44.1946 118.645 43.0655C118.239 41.9363 118.032 40.648 118.032 39.2078C118.032 37.7652 118.239 36.4597 118.645 35.2938C119.053 34.123 119.609 33.1409 120.311 32.3424C121.012 31.5414 121.839 30.9267 122.792 30.5005C123.747 30.0719 124.751 29.8563 125.799 29.8563C126.85 29.8563 127.855 30.0719 128.807 30.5005C129.762 30.9267 130.589 31.5414 131.29 32.3424C131.989 33.1409 132.546 34.123 132.954 35.2938C133.363 36.4597 133.567 37.7652 133.567 39.2078C133.567 40.648 133.363 41.9363 132.954 43.0655C132.546 44.1946 131.989 45.1498 131.29 45.9263C130.589 46.7076 129.762 47.3003 128.807 47.7094ZM140.926 51.5573V10.6904H133.567V28.3965C132.826 27.1106 131.679 25.9399 130.121 24.8916C128.563 23.8384 126.597 23.3118 124.224 23.3118C122.393 23.3118 120.641 23.711 118.967 24.5095C117.291 25.3079 115.822 26.4101 114.559 27.8111C113.292 29.2146 112.29 30.8899 111.551 32.8396C110.811 34.7868 110.441 36.8908 110.441 39.149C110.441 41.4465 110.801 43.5529 111.522 45.4609C111.876 46.4063 112.297 47.2856 112.784 48.1062C119.723 48.6965 138.568 51.1776 140.926 51.5573Z" fill="#524D3B"/>
<path d="M93.6146 57.1317L91.8942 62.0328L90.2846 57.1317H88.6454L91.1411 63.7743L91.1214 63.8135C91.1214 63.8135 90.6193 65.1704 90.164 65.4986C89.812 65.675 88.9949 65.6603 88.6823 65.6431V66.8947C89.2263 66.8947 90.5012 66.9266 90.9073 66.6718C91.4242 66.3461 91.5374 66.204 91.8942 65.4986C92.2733 64.7222 95.2194 57.1317 95.2194 57.1317H93.6146ZM85.5763 58.2388V57.1317H84.0356V63.8184H85.5763V61.2735C85.5763 60.8253 85.6181 60.4334 85.7387 60.1101C86.2039 58.8928 87.496 58.5474 88.163 58.4494L87.6388 57.1733C87.0973 57.264 86.1547 57.5211 85.5763 58.2388ZM59.0763 62.6353C57.89 62.6353 57.0679 61.6752 57.0679 60.475C57.0679 59.2969 57.8776 58.3343 59 58.3343C59.7728 58.3343 60.2675 58.6748 60.74 59.1695L61.6975 58.1408C61.0699 57.4648 60.2798 56.9921 59.0123 56.9921C57.0014 56.9921 55.5247 58.5866 55.5247 60.502C55.5247 62.4125 57.0014 63.9653 59 63.9653C60.3093 63.9653 61.0871 63.4485 61.7467 62.7137L60.8163 61.805C60.3339 62.2973 59.7999 62.6353 59.0763 62.6353ZM81.3577 59.8431C81.3331 59.6031 81.2814 59.532 81.1928 59.3165C81.1067 59.1059 80.991 58.9148 80.8507 58.7556C80.7055 58.5939 80.5332 58.469 80.3363 58.3833C80.1345 58.2951 79.9032 58.2486 79.6521 58.2486C79.1796 58.2486 78.7882 58.4102 78.4756 58.7336C78.168 59.0618 77.9785 59.3238 77.9096 59.8431H81.3577ZM82.6843 59.2161C82.8148 59.6496 82.8862 60.1101 82.8862 60.5902C82.8862 60.6563 82.8837 60.7273 82.8788 60.7959C82.8739 60.8743 82.8665 60.9453 82.8591 61.0188H77.9243C78.008 61.5699 78.2271 61.9863 78.579 62.2826C78.9334 62.5717 79.3568 62.7162 79.8564 62.7162C80.2428 62.7162 80.5677 62.65 80.8507 62.5153C81.1288 62.3806 81.402 62.1798 81.6728 61.9177L82.581 62.7162C82.2585 63.0983 81.8721 63.402 81.4291 63.6273C80.9861 63.8551 80.4495 63.9727 79.8342 63.9727C79.3494 63.9727 78.8965 63.8845 78.4756 63.7204C78.0572 63.5489 77.6905 63.3089 77.3804 63.0052C77.0727 62.7039 76.8291 62.3365 76.6494 61.9128C76.4747 61.4866 76.3861 61.0188 76.3861 60.5044V60.4799C76.3861 59.9974 76.4624 59.5443 76.6248 59.1206C76.7848 58.6993 77.0137 58.3294 77.309 58.0159C77.5994 57.695 77.944 57.4477 78.3427 57.2689C78.7415 57.0876 79.1845 56.9921 79.6669 56.9921C80.2034 56.9921 80.6711 57.0876 81.0722 57.286C81.4734 57.482 81.8106 57.7391 82.0764 58.0722C82.3447 58.4005 82.5465 58.7825 82.6843 59.2161ZM72.8001 62.05L70.996 57.1317H69.3396L72.1035 63.8698H73.4867L76.2359 57.1317H74.6164L72.8001 62.05ZM67.7373 60.4897C67.7373 60.1934 67.6832 59.9166 67.5847 59.6521C67.4838 59.3924 67.3386 59.1622 67.1614 58.9736C66.9768 58.7727 66.7577 58.6184 66.5116 58.5082C66.263 58.3931 65.9825 58.3368 65.6773 58.3368C65.3696 58.3368 65.094 58.3931 64.8454 58.5082C64.5919 58.6184 64.3777 58.7727 64.2005 58.9638C64.0258 59.1524 63.8855 59.3777 63.792 59.6325C63.7009 59.8921 63.6541 60.1689 63.6541 60.4603V60.4897C63.6541 60.7763 63.7058 61.0531 63.8067 61.3127C63.9076 61.5748 64.0504 61.805 64.2325 62.001C64.4147 62.2018 64.6312 62.3586 64.8798 62.4712C65.1309 62.5839 65.4065 62.6427 65.6994 62.6427C66.0145 62.6427 66.2975 62.5839 66.5461 62.4712C66.7996 62.3586 67.0137 62.2018 67.1909 62.0083C67.3681 61.8148 67.5035 61.5846 67.597 61.3298C67.6906 61.0727 67.7373 60.8008 67.7373 60.5142V60.4897ZM69.0073 59.1132C69.1919 59.532 69.2805 59.9827 69.2805 60.4603V60.4897C69.2805 60.96 69.187 61.4082 69.0024 61.8295C68.8227 62.2557 68.5692 62.6231 68.2542 62.9391C67.9342 63.2526 67.5527 63.5049 67.1171 63.6934C66.6765 63.8796 66.1941 63.9727 65.6773 63.9727C65.1678 63.9727 64.6952 63.882 64.2596 63.6983C63.8215 63.5171 63.4449 63.2722 63.125 62.9562C62.8075 62.6476 62.5614 62.2826 62.3817 61.8589C62.2045 61.4327 62.1134 60.9894 62.1134 60.5142V60.4897C62.1134 60.0048 62.2069 59.5541 62.3866 59.1328C62.5712 58.714 62.8222 58.3466 63.1422 58.0282C63.4597 57.7097 63.8363 57.4599 64.2744 57.2762C64.71 57.0876 65.1826 56.9921 65.6994 56.9921C66.2212 56.9921 66.6987 57.0876 67.1343 57.2689C67.57 57.4477 67.949 57.695 68.264 58.0159C68.5864 58.3294 68.835 58.6993 69.0073 59.1132ZM54.1513 60.5069C53.9544 60.3599 53.7354 60.2374 53.4868 60.137C53.2407 60.0317 52.9946 59.9435 52.7485 59.8676C52.5516 59.8015 52.362 59.7402 52.1824 59.679C51.9978 59.6202 51.8378 59.5516 51.7 59.4806C51.5597 59.412 51.4415 59.3287 51.3603 59.2406C51.2791 59.1524 51.2373 59.0495 51.2373 58.932V58.9075C51.2373 58.714 51.316 58.5523 51.4834 58.42C51.6458 58.3 51.8772 58.2339 52.1774 58.2339C52.4556 58.2339 52.7583 58.2951 53.0906 58.4053C53.4228 58.518 53.7477 58.6748 54.0701 58.8683L54.683 57.7783C54.3236 57.5432 53.9323 57.357 53.4967 57.2248C53.066 57.0876 52.6377 57.0166 52.2119 57.0166C51.8821 57.0166 51.572 57.068 51.2791 57.1611C50.9838 57.2517 50.7327 57.3864 50.5161 57.5652C50.2971 57.7391 50.1248 57.9522 50.0066 58.2045C49.8836 58.4543 49.8221 58.7385 49.8221 59.0593V59.0814C49.8221 59.4047 49.8836 59.6741 50.0116 59.8945C50.1396 60.115 50.302 60.2962 50.5038 60.4456C50.7007 60.5902 50.9247 60.7151 51.1782 60.8057C51.4268 60.8988 51.6729 60.9796 51.9215 61.0457C52.1135 61.1045 52.3054 61.1608 52.4876 61.2172C52.6722 61.2735 52.8272 61.3347 52.9675 61.4058C53.1103 61.4768 53.2185 61.5625 53.3022 61.6532C53.3834 61.7462 53.4228 61.8589 53.4228 61.9814V62.0083C53.4228 62.2263 53.3318 62.4027 53.1472 62.5325C52.965 62.6623 52.7091 62.7309 52.3768 62.7309C52.0298 62.7309 51.668 62.6623 51.2889 62.5178C50.9124 62.3806 50.5432 62.1773 50.1765 61.9054L49.4922 62.9464C49.9156 63.2746 50.3758 63.522 50.873 63.6934C51.3677 63.8576 51.855 63.9433 52.3399 63.9433C52.6845 63.9433 53.0167 63.9016 53.3219 63.8135C53.6271 63.7228 53.888 63.593 54.1194 63.4191C54.3384 63.2477 54.5131 63.0297 54.6436 62.7676C54.774 62.5055 54.8356 62.1969 54.8356 61.8467V61.8173C54.8356 61.5135 54.774 61.2564 54.6436 61.0457C54.5131 60.8326 54.3507 60.6538 54.1513 60.5069ZM46.903 63.8184H48.4413V57.1317H46.903V63.8184ZM46.0121 59.3238C46.0121 61.8295 44.08 63.7645 41.2767 63.7645H38.5742C39.1206 63.4044 39.5784 62.917 39.9033 62.3512H41.2767C43.1497 62.3512 44.3729 61.0972 44.3729 59.3508C44.3729 57.602 43.1497 56.3283 41.2767 56.3283H39.5267V57.624C39.2683 57.3129 38.968 57.0264 38.6309 56.7961C38.4217 56.6492 38.1952 56.5267 37.9639 56.4263V54.9102H41.2767C44.08 54.9102 46.0121 56.8206 46.0121 59.3238Z" fill="#524D3B"/>
<path d="M41.416 59.9876C41.416 58.038 39.8261 56.4532 37.862 56.4532C35.9029 56.4532 34.3105 58.038 34.3105 59.9876C34.3105 61.9397 35.9029 63.5195 37.862 63.5195C39.8261 63.5195 41.416 61.9397 41.416 59.9876Z" fill="#524D3B"/>
<path d="M96.6367 54.9102H97.3012V59.0593H103.014V54.9102H103.678V63.8452H103.014V59.6569H97.3012V63.8452H96.6367V54.9102Z" fill="#524D3B"/>
<path d="M109.963 63.2451C110.584 63.2451 111.145 63.1447 111.647 62.9439C112.149 62.743 112.575 62.4712 112.922 62.1234C113.271 61.778 113.54 61.3714 113.732 60.9085C113.923 60.4407 114.019 59.9386 114.019 59.4046V59.3777C114.019 58.8486 113.923 58.349 113.732 57.8812C113.54 57.4084 113.271 56.9994 112.922 56.6516C112.575 56.2989 112.149 56.0221 111.647 55.8164C111.145 55.6131 110.584 55.5102 109.963 55.5102H107.655V63.2451H109.963ZM106.99 54.9102H109.963C110.66 54.9102 111.3 55.0228 111.883 55.2482C112.464 55.4735 112.966 55.787 113.387 56.1862C113.808 56.5855 114.133 57.0582 114.364 57.597C114.593 58.1359 114.709 58.7213 114.709 59.3507V59.3777C114.709 60.0072 114.593 60.595 114.364 61.1387C114.133 61.6825 113.808 62.1552 113.387 62.5544C112.966 62.9561 112.464 63.2721 111.883 63.4999C111.3 63.7276 110.66 63.8452 109.963 63.8452H106.99V54.9102Z" fill="#524D3B"/>
<path d="M788.495 61.5908C788.697 61.5908 788.81 61.4855 788.81 61.3361C788.81 61.172 788.697 61.0862 788.495 61.0862H788.118V61.5908H788.495ZM787.82 60.8241H788.522C788.862 60.8241 789.118 60.9907 789.118 61.314C789.118 61.5639 788.967 61.7231 788.758 61.7819L789.169 62.3649H788.81L788.443 61.8358H788.118V62.3649H787.82V60.8241ZM789.706 61.6276V61.6202C789.706 60.9099 789.152 60.3245 788.416 60.3245C787.688 60.3245 787.126 60.9172 787.126 61.6276V61.6349C787.126 62.3428 787.678 62.9258 788.416 62.9258C789.145 62.9258 789.706 62.3355 789.706 61.6276ZM786.893 61.6349V61.6276C786.893 60.7972 787.567 60.1016 788.416 60.1016C789.275 60.1016 789.94 60.7899 789.94 61.6178V61.6276C789.94 62.4555 789.265 63.1511 788.416 63.1511C787.557 63.1511 786.893 62.4628 786.893 61.6349Z" fill="#1D1D1B"/>
<path d="M784.498 30.6412L778.208 48.7564L771.917 30.6412H739.079V39.6792H747.683V62.8865H758.505V39.6792H763.489L772.936 62.8865H783.292L796.43 30.6412H784.498ZM706.234 46.8459C706.234 56.8367 714.329 63.5601 724.417 63.5601C730.295 63.5601 735.505 61.581 739.022 58.7251V43.8063H723.337V51.3135H728.889V53.4787C728.055 53.9391 727.039 54.3702 725.188 54.3702C721.156 54.3702 717.77 51.5461 717.77 46.9855V46.8924C717.77 42.5204 720.516 39.6008 724.725 39.6008C727.408 39.6008 729.768 40.3087 731.895 42.104L737.957 34.8271C734.44 31.7924 729.645 29.9505 724.095 29.9505C713.866 29.9505 706.234 37.1319 706.234 46.7553V46.8459ZM673.012 62.8889H683.839V51.311H694.009V62.8889H704.838V30.6412H694.009V42.0134H683.839V30.6412H673.012V62.8889ZM673 28.4441L715.705 0.85498L758.409 28.4441H673Z" fill="#1D1D1B"/>
<path d="M591.04 34.711V66.3806C591.04 66.3806 591.309 67.093 590.474 67.9151L578.891 79.169C578.891 79.169 578.518 79.6984 577.123 79.7885H520.323C520.323 79.7885 518.379 80.2446 515.988 77.5867L508.728 70.2464L500.187 78.2737C500.187 78.2737 499.564 79.4337 497.34 79.4337H481.344C481.344 79.4337 478.86 78.6284 478.755 76.5167V61.4083C478.755 61.4083 477.917 60.696 481.083 58.0071L488.329 50.6331L456.418 19.4195C456.418 19.4195 452.479 15.2328 461.027 12.1075C461.027 12.1075 461.213 9.5847 462.147 8.8076L458.186 8.46973C458.186 8.46973 456.324 11.0122 453.116 8.98217C453.116 8.98217 450.722 7.0732 452.946 5.0319C452.946 5.0319 455.51 2.72876 459.199 2.84983C459.199 2.84983 468.275 3.58751 474.655 8.68935C474.655 8.68935 479.162 2.01642 484.088 4.76724C484.088 4.76724 488.066 6.87893 487.427 9.19897L486.411 11.1276C486.411 11.1276 489.554 11.2206 490.278 11.9695C490.278 11.9695 491.286 12.3721 492.301 11.7583C492.301 11.7583 495.779 8.98217 497.139 12.0145C497.139 12.0145 503.678 11.2206 505.245 12.6199C505.245 12.6199 507.48 10.1337 509.563 12.4988C509.563 12.4988 511.526 11.5781 513.62 13.8165L521.633 21.3848H576.478C576.478 21.3848 577.901 21.3848 579.333 22.7278L590.418 32.909C590.418 32.909 591.117 33.9874 591.04 34.711Z" fill="#203C87"/>
<path d="M463.192 19.2436C463.192 19.2436 460.968 19.1169 458.688 16.3548C458.688 16.3548 457.669 15.5045 463.192 15.2313V19.2436ZM454.481 4.94883C454.481 4.94883 453.318 7.09712 456.719 7.09712C456.719 7.09712 455.658 6.03565 456.187 6.21022C456.187 6.21022 476.111 7.09712 475.638 16.7292C475.638 16.7292 476.111 20.4486 465.422 19.9925L465.673 15.5777C465.673 15.5777 470.175 14.9019 470.175 16.6194L469.646 17.5514C469.646 17.5514 472.656 18.0188 472.741 15.7973C472.84 13.542 466.599 13.0915 465.673 13.0915L465.606 10.2872C465.606 10.2872 464.46 8.38666 463.71 9.56358V13.3308C463.71 13.3308 457.449 12.9282 457.2 16.6194C457.2 16.6194 457.37 17.954 462.847 21.4116C462.847 21.4116 462.943 24.1511 465.75 22.352C465.75 22.352 478.425 23.9794 478.275 15.9606C478.275 15.9606 476.04 3.10181 454.481 4.94883Z" fill="#A4C73E"/>
<path d="M478.896 14.4659V20.463C478.896 20.463 479.782 22.1833 480.509 20.2631V14.6601C480.509 14.6601 479.615 13.0412 478.896 14.4659Z" fill="#A4C73E"/>
<path d="M483.847 9.38475C483.847 9.38475 481.001 11.35 480.059 10.6912L482.951 8.27822C482.951 8.27822 484.75 8.10365 483.847 9.38475ZM480.201 8.18812L478.882 9.69447C478.811 8.51473 480.201 8.18812 480.201 8.18812ZM484.096 6.57759C484.096 6.57759 482.651 4.6686 479.174 6.69866C475.694 8.70056 477.827 12.2623 477.827 12.2623C477.827 12.2623 483.211 12.7044 484.908 10.6912C486.651 8.70056 484.096 6.57759 484.096 6.57759Z" fill="#A4C73E"/>
<path d="M490.342 21.6381V16.1083C490.342 16.1083 490.469 13.7601 491.805 13.8868C491.805 13.8868 492.778 13.3856 495.163 18.7042L494.937 12.5269C494.937 12.5269 497.324 13.7601 497.449 15.5705V20.7596C497.449 20.7596 496.162 23.0909 494.512 21.2016L492.189 17.3133V20.7596C492.189 20.7596 492.045 22.753 490.342 21.6381Z" fill="#A4C73E"/>
<path d="M498.013 14.3064H504.105C504.105 14.3064 505.664 15.8155 503.363 15.8155H501.009C501.009 15.8155 500.251 16.939 501.222 16.939H504.105C504.105 16.939 504.269 17.9638 502.718 18.2003H500.169C500.169 18.2003 499.482 19.1886 500.169 19.1886H502.967C502.967 19.1886 503.462 19.2534 503.494 20.2839C503.494 20.2839 501.307 22.4603 499.352 22.4603C499.352 22.4603 497.781 22.3702 497.781 21.0976L498.013 14.3064Z" fill="#A4C73E"/>
<path d="M510.424 18.8883C510.424 18.8883 508.35 19.9751 508.28 19.2262L511.409 16.3374C511.409 16.3374 511.579 18.2661 510.424 18.8883ZM512.227 15.0225C509.581 13.8794 506.299 18.2661 506.299 18.2661C506.376 16.2839 507.125 15.7799 507.974 14.8846C508.766 14.0089 508.35 13.8794 508.35 13.8794C505.81 13.8794 504.91 17.306 504.91 17.306L503.504 27.2957C503.504 28.4951 505.156 28.7964 505.156 28.7964L506.95 21.9404C510.249 22.1966 510.835 20.8086 510.835 20.8086C514.286 18.1929 512.227 15.0225 512.227 15.0225Z" fill="#A4C73E"/>
<path d="M486.358 19.4857C485.586 19.4941 484.14 19.4857 483.305 18.9C483.305 18.9 483.984 18.3989 484.844 18.9C485.495 19.2942 486.004 19.4406 486.358 19.4857C486.683 19.4857 486.924 19.4491 486.924 19.4491C486.924 19.4491 486.714 19.4941 486.358 19.4857ZM483.837 16.0141C483.837 15.3918 484.921 15.2173 484.921 15.2173H489.02C490.274 15.3271 490.373 15.2173 490.373 14.412C490.373 13.6265 489.119 13.6265 489.119 13.6265C488.067 13.5082 483.752 13.756 483.752 13.756C480.64 14.595 482.1 16.9798 482.1 16.9798C489.736 17.5936 487.988 18.9 487.988 18.9C484.836 16.4955 482.507 17.9033 482.507 17.9033C480.499 21.6339 486.499 21.817 486.499 21.817C486.499 21.817 490.013 22.5011 490.197 19.1112C490.373 15.6114 483.837 16.0141 483.837 16.0141Z" fill="#A4C73E"/>
<path d="M481.758 23.726H498.148L509.372 34.9405L520.731 23.4895H536.932V40.8279L526.115 50.7978L537.13 61.1648V77.7711H519.642L509.159 67.59L499.413 77.0109H481.758V60.8157L492.26 50.6345L481.967 40.2788L481.758 23.726Z" fill="#A4C73E"/>
<path d="M538.984 23.7744V77.0593H577.222L588.245 66.0645V34.9889L576.863 23.8758L538.984 23.7744Z" fill="#A4C73E"/>
</svg>
