<svg width="15" height="15" viewBox="0 0 15 15" fill="none" xmlns="http://www.w3.org/2000/svg">
<path d="M13.8782 3.46866C11.6344 -0.000114665 7.05326 -1.03137 3.50055 1.12489C0.0413358 3.28116 -1.08057 7.9687 1.16324 11.4375L1.35023 11.7187L0.60229 14.5312L3.40706 13.7812L3.68754 13.9687C4.90294 14.625 6.21183 15 7.52073 15C8.92311 15 10.3255 14.625 11.5409 13.875C15.0001 11.625 16.0285 7.03119 13.8782 3.46866V3.46866ZM11.9149 10.6875C11.5409 11.25 11.0734 11.625 10.419 11.7187C10.045 11.7187 9.57756 11.9062 7.70771 11.1562C6.11834 10.4062 4.80945 9.18746 3.87452 7.7812C3.31357 7.12494 3.03309 6.28118 2.9396 5.43743C2.9396 4.68742 3.22008 4.03117 3.68754 3.56241C3.87452 3.37491 4.06151 3.28116 4.24849 3.28116H4.71595C4.90294 3.28116 5.08992 3.28116 5.18342 3.65616C5.3704 4.12492 5.83786 5.24993 5.83786 5.34368C5.93136 5.43743 5.93136 5.62493 5.83786 5.71868C5.93136 5.90618 5.83786 6.09368 5.74437 6.18743C5.65088 6.28118 5.55739 6.46868 5.46389 6.56244C5.27691 6.65619 5.18342 6.84369 5.27691 7.03119C5.65088 7.59369 6.11834 8.1562 6.5858 8.62495C7.14676 9.0937 7.70771 9.46871 8.36216 9.74996C8.54914 9.84371 8.73613 9.84371 8.82962 9.65621C8.92311 9.46871 9.39057 8.99995 9.57756 8.81245C9.76454 8.62495 9.85803 8.62495 10.045 8.7187L11.5409 9.46871C11.7279 9.56246 11.9149 9.65621 12.0084 9.74996C12.1019 10.0312 12.1019 10.4062 11.9149 10.6875V10.6875Z" fill="#6CF5E5"/>
</svg>
