<svg width="12" height="11" viewBox="0 0 12 11" fill="none" xmlns="http://www.w3.org/2000/svg">
<path fill-rule="evenodd" clip-rule="evenodd" d="M0.25 5.375C0.25 4.96079 0.585786 4.625 1 4.625L11 4.625C11.4142 4.625 11.75 4.96079 11.75 5.375C11.75 5.78921 11.4142 6.125 11 6.125L1 6.125C0.585786 6.125 0.25 5.78921 0.25 5.375Z" fill="#FF7C03"/>
<path fill-rule="evenodd" clip-rule="evenodd" d="M6.09467 10.2803C5.80178 9.98744 5.80178 9.51256 6.09467 9.21967L9.93934 5.375L6.09467 1.53033C5.80178 1.23744 5.80178 0.762563 6.09467 0.46967C6.38756 0.176777 6.86244 0.176777 7.15533 0.46967L11.5303 4.84467C11.8232 5.13756 11.8232 5.61244 11.5303 5.90533L7.15533 10.2803C6.86244 10.5732 6.38756 10.5732 6.09467 10.2803Z" fill="#FF7C03"/>
</svg>
