<svg width="45" height="45" viewBox="0 0 45 45" fill="none" xmlns="http://www.w3.org/2000/svg">
<path d="M19.6763 0.074629C16.5173 0.486379 12.7913 1.89263 10.0441 3.73313C7.77157 5.22713 4.65082 8.27813 4.84882 8.79788C5.28307 9.92513 12.2288 21.5284 12.3413 21.3124C12.4268 21.1616 12.5551 20.6846 12.6181 20.2099C13.1806 17.0936 15.8243 14.1259 19.1363 12.8906C20.4143 12.3934 20.6731 12.3934 31.5001 12.2831L42.5633 12.1774L41.6746 10.7239C38.5583 5.63888 33.7501 2.13113 27.7313 0.571879C26.0866 0.137629 21.4088 -0.143621 19.6763 0.0768788V0.074629Z" fill="#D61A69"/>
<path d="M2.70649 11.7229C1.68724 13.5207 0.494739 17.1567 0.215739 19.2784C-1.10726 28.8927 3.74374 38.1784 12.3185 42.4872C14.33 43.5042 17.21 44.4784 18.4655 44.5864L19.2665 44.6517L23.033 38.2662C25.0917 34.7584 26.7567 31.8559 26.714 31.8132C26.669 31.7704 26.1942 31.9009 25.6317 32.0944C22.1015 33.2869 18.011 32.2879 15.3492 29.5834C14.3952 28.6294 13.0947 26.5302 8.95924 19.3639C6.10399 14.4072 3.70099 10.3369 3.61324 10.3369C3.55024 10.3369 3.13849 10.9647 2.70649 11.7229Z" fill="#D61A69"/>
<path d="M29.5939 15.2936C32.3434 18.0881 33.3176 22.0504 32.1049 25.6211C31.9114 26.2061 29.3779 30.7309 26.4776 35.7124C23.5751 40.6691 21.1924 44.7821 21.1924 44.8474C21.1924 45.1061 24.1804 44.9756 26.0861 44.6516C35.8061 42.9866 43.1254 35.6471 44.6824 26.0306C45.2674 22.5251 45.0514 19.4494 43.9916 15.8989L43.4291 14.0156H28.3384L29.5916 15.2936H29.5939Z" fill="#D61A69"/>
<path d="M19.3749 14.7514C17.1024 15.7054 15.5432 17.3097 14.6994 19.5822C14.3102 20.6014 14.2449 21.1864 14.3102 22.7862C14.3777 24.4737 14.4632 24.9529 15.0909 26.1859C15.9144 27.8734 17.2554 29.1762 19.0307 30.0177C20.0702 30.5149 20.5022 30.5802 22.4957 30.5802C24.5094 30.5802 24.9189 30.5149 26.0034 29.9952C27.6054 29.2617 29.2929 27.5719 30.0309 25.9677C30.5484 24.8877 30.6136 24.4759 30.6136 22.4622C30.6136 20.4687 30.5484 20.0367 30.0511 18.9972C29.2074 17.2242 27.9091 15.8787 26.2194 15.0597C24.9414 14.4297 24.5499 14.3442 22.7094 14.2767C20.9364 14.2339 20.4819 14.2992 19.3794 14.7559L19.3749 14.7514Z" fill="#D61A69"/>
</svg>
