<svg width="52" height="17" viewBox="0 0 52 17" fill="none" xmlns="http://www.w3.org/2000/svg">
<path d="M3.26307 15.6362C5.20103 15.6362 6.52614 14.8743 6.52614 12.5719V8.86163H4.09126V12.5554C4.09126 13.3339 3.72685 13.5823 3.26307 13.5823C2.81585 13.5823 2.43488 13.3339 2.43488 12.5554V3.08087C2.43488 2.2858 2.81585 2.05391 3.26307 2.05391C3.72685 2.05391 4.09126 2.2858 4.09126 3.08087V6.74147H6.52614V3.0643C6.52614 0.745371 5.20103 0 3.26307 0C1.34167 0 0 0.745371 0 3.0643V12.5719C0 14.8743 1.34167 15.6362 3.26307 15.6362Z" fill="#F2F2F2"/>
<path d="M11.2124 13.367V0.182201H8.77752V15.4209H13.4651V13.367H11.2124Z" fill="#F2F2F2"/>
<path d="M15.6916 15.4209H18.1265V0.182201H15.6916V15.4209Z" fill="#F2F2F2"/>
<path d="M23.6365 15.6362C25.5745 15.6362 26.8996 14.8743 26.8996 12.5719V8.86163H24.4647V12.5554C24.4647 13.3339 24.1003 13.5823 23.6365 13.5823C23.1893 13.5823 22.8083 13.3339 22.8083 12.5554V3.08087C22.8083 2.2858 23.1893 2.05391 23.6365 2.05391C24.1003 2.05391 24.4647 2.2858 24.4647 3.08087V6.74147H26.8996V3.0643C26.8996 0.745371 25.5745 0 23.6365 0C21.7151 0 20.3735 0.745371 20.3735 3.0643V12.5719C20.3735 14.8743 21.7151 15.6362 23.6365 15.6362Z" fill="#F2F2F2"/>
<path d="M33.822 15.4209H36.2237L34.1201 7.23838L36.0415 0.182201H33.6563L31.7681 7.00649H31.5693V0.182201H29.151V15.4209H31.5693V11.3793L32.2981 8.77881L33.822 15.4209Z" fill="#F2F2F2"/>
<path d="M42.7079 2.23611V0.182201H38.1032V15.4209H42.7079V13.367H40.5381V8.79538H42.6582V6.77459H40.5381V2.23611H42.7079Z" fill="#F2F2F2"/>
<path fill-rule="evenodd" clip-rule="evenodd" d="M45.495 10.3514L43.7684 15.4384L45.9274 15.6554L47.4114 11.16L47.7575 11.1948L48.5123 11.2707L48.6862 9.54019L47.9479 9.46598C47.2392 9.39474 47.0646 9.14413 47.1458 8.33658L47.6229 3.59012C47.7024 2.79905 47.9234 2.58819 48.6321 2.65943L49.3704 2.73364L49.5741 0.706509L48.2425 0.572658C46.0012 0.347358 45.4667 1.19259 45.2497 3.35157L44.7858 7.96618C44.6749 9.07039 44.9481 9.83033 45.495 10.3514ZM50.6871 14.0129L48.2645 13.7694L48.0534 15.8691L50.4761 16.1127L50.6871 14.0129Z" fill="#F2F2F2"/>
</svg>
