<svg width="70" height="70" viewBox="0 0 70 70" fill="none" xmlns="http://www.w3.org/2000/svg">
<circle cx="35" cy="35" r="35" fill="#5403FF"/>
<path d="M50.9334 30.2681L41.0406 28.8082L36.6183 19.7043C36.4975 19.455 36.2988 19.2532 36.0534 19.1306C35.4377 18.822 34.6896 19.0791 34.3818 19.7043L29.9595 28.8082L20.0668 30.2681C19.794 30.3077 19.5446 30.4382 19.3537 30.6361C19.1229 30.877 18.9957 31.2011 19.0001 31.5371C19.0045 31.8732 19.1401 32.1938 19.3771 32.4284L26.5346 39.5144L24.8436 49.5204C24.804 49.7532 24.8294 49.9926 24.9169 50.2114C25.0044 50.4303 25.1505 50.6199 25.3387 50.7587C25.527 50.8975 25.7497 50.98 25.9818 50.9968C26.2138 51.0136 26.4458 50.964 26.6515 50.8538L35.5001 46.1297L44.3486 50.8538C44.5902 50.9843 44.8707 51.0278 45.1396 50.9804C45.8175 50.8617 46.2734 50.2088 46.1565 49.5204L44.4655 39.5144L51.6231 32.4284C51.8179 32.2345 51.9464 31.9813 51.9854 31.7043C52.0906 31.0119 51.6153 30.371 50.9334 30.2681Z" fill="white"/>
</svg>
