<svg width="15" height="15" viewBox="0 0 15 15" fill="none" xmlns="http://www.w3.org/2000/svg">
<path d="M3.75 0.46875C3.75 0.34443 3.70061 0.225201 3.61271 0.137294C3.5248 0.049386 3.40557 0 3.28125 0C3.15693 0 3.0377 0.049386 2.94979 0.137294C2.86189 0.225201 2.8125 0.34443 2.8125 0.46875V0.9375H1.875C1.37772 0.9375 0.900806 1.13504 0.549175 1.48667C0.197544 1.83831 0 2.31522 0 2.8125L0 3.75H15V2.8125C15 2.31522 14.8025 1.83831 14.4508 1.48667C14.0992 1.13504 13.6223 0.9375 13.125 0.9375H12.1875V0.46875C12.1875 0.34443 12.1381 0.225201 12.0502 0.137294C11.9623 0.049386 11.8431 0 11.7188 0C11.5944 0 11.4752 0.049386 11.3873 0.137294C11.2994 0.225201 11.25 0.34443 11.25 0.46875V0.9375H3.75V0.46875ZM15 13.125V4.6875H0V13.125C0 13.6223 0.197544 14.0992 0.549175 14.4508C0.900806 14.8025 1.37772 15 1.875 15H13.125C13.6223 15 14.0992 14.8025 14.4508 14.4508C14.8025 14.0992 15 13.6223 15 13.125ZM10.1756 8.30063L7.36313 11.1131C7.31958 11.1568 7.26786 11.1914 7.21091 11.215C7.15396 11.2387 7.09291 11.2508 7.03125 11.2508C6.96959 11.2508 6.90854 11.2387 6.85159 11.215C6.79464 11.1914 6.74292 11.1568 6.69937 11.1131L5.29312 9.70688C5.20511 9.61886 5.15566 9.49948 5.15566 9.375C5.15566 9.25052 5.20511 9.13114 5.29312 9.04312C5.38114 8.95511 5.50052 8.90566 5.625 8.90566C5.74948 8.90566 5.86886 8.95511 5.95688 9.04312L7.03125 10.1184L9.51187 7.63687C9.59989 7.54886 9.71927 7.49941 9.84375 7.49941C9.96823 7.49941 10.0876 7.54886 10.1756 7.63687C10.2636 7.72489 10.3131 7.84427 10.3131 7.96875C10.3131 8.09323 10.2636 8.21261 10.1756 8.30063V8.30063Z" fill="#303030"/>
</svg>
