<svg width="669" height="325" viewBox="0 0 669 325" fill="none" xmlns="http://www.w3.org/2000/svg">
<path d="M201.916 58.7788H188.884V40.1653H180.425V58.7788H167.045L167 10.8028H180.425V28.6483H188.884V10.8028H201.916V58.7788ZM261.628 59.0047C275.067 58.9977 286.004 47.8352 286 34.3929C285.997 20.6691 275.067 10.0104 261.628 10C248.207 9.98952 241.346 19.8698 239.654 23.8594C239.668 17.8715 233.767 10.8063 226.865 10.7958H204.627V58.7614L225.36 58.7684C233.722 58.7684 239.668 51.526 239.678 45.3156C241.586 49.2253 248.207 59.0082 261.628 59.0047ZM223.622 39.4876C225.541 39.4876 227.053 41.3816 227.053 43.5398C227.053 45.6979 225.541 47.5954 223.622 47.5954H217.03V39.4876H223.622ZM223.647 21.4788C225.565 21.4788 227.077 23.3728 227.077 25.531C227.077 27.6891 225.565 29.5831 223.647 29.5831H217.054V21.4788H223.647ZM232.425 34.4033C233.937 34.2122 236.453 32.485 237.343 31.3798C237.03 32.7491 237.006 36.7074 237.371 38.0732C236.359 36.5128 233.961 34.5945 232.425 34.4033H232.425ZM249.426 34.4033C249.426 27.6613 254.893 22.1947 261.635 22.1947C268.38 22.1947 273.847 27.6613 273.847 34.4033C273.847 41.1453 268.38 46.6119 261.635 46.6119C254.893 46.6119 249.426 41.1453 249.426 34.4033ZM261.635 44.002C266.938 44.002 271.234 39.7031 271.234 34.4033C271.234 29.1035 266.938 24.8046 261.635 24.8046C256.335 24.8046 252.036 29.1035 252.036 34.4033C252.036 39.7031 256.335 44.002 261.635 44.002Z" fill="black"/>
<path d="M381.924 19.218C387.45 19.218 392.159 21.1638 396.05 25.054C399.94 28.8955 401.886 33.5915 401.886 39.1423V57.4683H386.757V39.4397C386.757 37.3087 386.286 35.4875 385.344 33.9753C384.402 32.4642 383.262 31.7079 381.924 31.7079C380.611 31.7079 379.483 32.4642 378.542 33.9753C377.6 35.4875 377.129 37.3087 377.129 39.4397V57.4683H362V39.1423C362 33.5915 363.945 28.8955 367.836 25.054C371.702 21.1639 376.398 19.218 381.924 19.218Z" fill="#F57C14"/>
<path d="M416.451 16.2071C414.84 17.7934 414.009 18.9706 413.96 19.7386V19.8128C413.96 20.6062 414.666 21.6963 416.079 23.0839L417.752 24.7569C419.239 26.2687 419.982 28.0781 419.982 30.184V57.4684H404.704V30.184C404.704 28.0531 405.448 26.2437 406.935 24.7569L408.645 23.0839C410.032 21.6963 410.726 20.5935 410.726 19.7757V19.7012C410.652 18.9577 409.821 17.7934 408.236 16.2071L406.414 14.3486C404.754 12.713 403.924 10.7308 403.924 8.40101C403.924 6.07199 404.754 4.10177 406.414 2.49063C408.025 0.830747 409.995 0 412.325 0C414.679 0 416.661 0.817865 418.272 2.45345C419.932 4.08903 420.763 6.07199 420.763 8.40101C420.763 10.7557 419.932 12.738 418.272 14.3486L416.451 16.2071Z" fill="#F57C14"/>
<path d="M445.273 45.5529C445.943 44.289 446.376 42.8022 446.575 41.0922H461.667C461.245 45.8748 459.337 49.939 455.942 53.2845V53.3221C452.077 57.213 447.417 59.1579 441.965 59.1579H441.779C436.303 59.1579 431.631 57.213 427.766 53.3221V53.2845C423.875 49.4436 421.93 44.785 421.93 39.3079V39.1219C421.93 33.6452 423.875 28.9866 427.766 25.1451C431.631 21.2549 436.327 19.3091 441.854 19.3091C447.355 19.3091 452.051 21.2549 455.942 25.1451C459.337 28.5155 461.245 32.5798 461.667 37.3377H446.575C446.376 35.6277 445.943 34.1409 445.273 32.8771C444.307 31.1423 443.167 30.2748 441.854 30.2748C440.54 30.2748 439.413 31.1424 438.471 32.8771C437.529 34.6368 437.059 36.7555 437.059 39.2337C437.059 41.6871 437.529 43.7932 438.471 45.5528C439.413 47.2875 440.54 48.1677 441.854 48.1917C443.167 48.1678 444.307 47.2876 445.273 45.5529Z" fill="#F57C14"/>
<path d="M493.376 40.8151L501.033 52.5243C501.677 53.4908 502 54.3583 502 55.1261C502 55.4484 501.949 55.7462 501.851 56.0185C501.503 56.9849 500.76 57.4681 499.62 57.4681H487.131L479.25 45.3871V57.4309H464.121V26.764C464.121 24.6822 464.864 22.8981 466.351 21.4112C467.813 19.9492 469.585 19.218 471.667 19.218C473.773 19.218 475.557 19.9494 477.02 21.4112C478.506 22.8981 479.25 24.6822 479.25 26.764V34.9418L486.09 22.7123C487.154 20.9037 488.704 19.7386 490.736 19.2179C491.405 19.045 492.061 18.9578 492.706 18.9578C494.02 18.9578 495.271 19.3053 496.46 19.9987C498.269 21.0895 499.434 22.6507 499.954 24.6822C500.128 25.3269 500.215 25.9713 500.215 26.6153C500.215 27.929 499.856 29.1801 499.137 30.3695L493.376 40.8151Z" fill="#F57C14"/>
<path d="M94.3921 186.067C88.3749 183.034 83.8947 180.289 79.7104 177.073C74.5237 173.085 69.0344 166.952 64.6013 160.19C58.8592 151.432 56.1119 142.979 55.2212 131.329C54.9521 127.809 54.9196 117.469 55.1731 116.04L55.3379 115.111L59.4172 114.234C61.6608 113.752 63.6214 113.31 63.7739 113.251C63.9264 113.193 64.1733 112.525 64.3225 111.767C64.4717 111.009 64.6619 110.288 64.7451 110.165C64.8282 110.042 66.598 109.536 68.678 109.04L72.4596 108.139L72.8189 106.559C73.0165 105.69 73.1782 104.814 73.1782 104.612C73.1782 104.41 73.4144 104.145 73.7031 104.023C73.9918 103.901 79.6021 102.946 86.1703 101.901L98.1126 100L110.078 102.025C116.658 103.139 122.097 104.104 122.165 104.169C122.232 104.235 122.502 105.146 122.765 106.194L123.243 108.099L126.958 108.922L130.672 109.745L131.389 111.596L132.106 113.447L135.997 114.275C138.137 114.731 139.984 115.208 140.103 115.337C140.809 116.101 141.285 125.949 140.854 130.851C140.495 134.92 139.98 138.445 139.417 140.688C139.169 141.672 138.967 142.564 138.967 142.671C138.968 142.778 139.433 143.159 140.001 143.518C141.614 144.537 143.734 146.964 144.668 148.862C147.391 154.395 146.374 160.572 142.021 164.938C140.015 166.951 137.861 168.183 135.291 168.789C133.072 169.312 129.581 169.117 127.499 168.354L125.945 167.784L124.466 169.527C119.698 175.142 111.655 181.076 102.207 185.947L98.2256 188L94.3921 186.067ZM100.045 184.377C105.197 182.176 110.839 178.459 116.338 173.644C119.251 171.092 123.637 166.626 123.529 166.321C123.417 166.002 120.004 162.11 119.851 162.125C119.779 162.133 119.195 162.835 118.554 163.685C117.003 165.741 112.276 170.476 109.805 172.449C105.723 175.708 102.125 177.899 99.209 178.903L97.8318 179.377L94.009 177.392C88.0202 174.282 84.92 172.054 80.4429 167.641C72.7839 160.091 67.6519 151.257 65.3733 141.699C64.1644 136.628 63.7722 133.025 63.7503 126.789L63.7298 120.977L64.3131 120.798C64.6339 120.699 66.1394 120.331 67.6586 119.981C69.1779 119.63 70.5594 119.205 70.7285 119.036C70.8976 118.867 71.109 118.297 71.1982 117.769C71.2903 117.224 71.1455 116.742 71.6386 116.464C72.195 116.151 73.4958 116.05 75.5918 115.559C77.8383 115.032 78.391 114.819 78.5458 114.424C78.6506 114.156 78.9629 113.345 79.2399 112.621L79.7436 111.306L81.4184 111.054C82.3396 110.915 86.3701 110.212 89.7704 109.693C93.2626 109.159 94.7614 108.832 96.4369 108.701C97.0441 108.654 97.6812 108.468 98.2315 108.471C100.104 108.485 101.927 109.122 105.606 109.706C109.263 110.286 113.018 110.893 113.952 111.056L115.648 111.351L115.986 112.487C116.171 113.112 116.388 113.97 116.468 114.393L116.612 115.163L119.449 115.682C121.01 115.968 122.602 116.349 122.888 116.529C123.203 116.727 123.465 117.339 123.681 118.084L124.038 119.313L126.195 119.873C127.382 120.18 129.158 120.679 130.144 120.979L131.936 121.527L132.098 122.828C132.188 123.544 132.202 126.455 132.13 129.298C132.003 134.309 131.746 136.294 130.686 140.457C130.535 141.049 130.577 141.087 131.539 141.214C132.096 141.287 133.389 141.373 134.413 141.406L136.275 141.465L136.908 138.316C137.776 134 138.018 131.877 138.188 127.118C138.357 122.368 138.131 118.15 137.683 117.702C137.516 117.535 135.428 116.891 133.043 116.273L128.708 115.149L128.18 113.5L127.652 111.851L123.954 110.985C121.92 110.508 120.22 110.082 120.177 110.038C120.133 109.995 119.841 109.072 119.528 107.988C119.215 106.904 118.815 105.938 118.64 105.841C118.464 105.745 113.775 104.944 108.22 104.062L98.1186 102.458L90.9559 103.572C81.6636 105.017 76.7004 105.847 76.4584 105.996C76.3517 106.062 76.0805 106.826 75.8559 107.694C75.6312 108.561 75.508 109.521 75.1147 109.807C74.8671 109.988 72.9904 110.415 71.0023 110.905L67.3875 111.797L67.2333 112.867C67.0809 113.924 67.1762 114.503 66.6986 114.839C66.1756 115.207 64.982 115.299 62.4216 115.808C59.9898 116.292 57.9326 116.796 57.8501 116.93C57.4662 117.551 57.2608 125.282 57.5206 129.334C58.0358 137.37 59.3231 143.421 61.8637 149.752C64.6918 156.798 68.6397 162.808 74.2896 168.668C79.6041 174.181 85.0754 178.228 93.0264 182.53C94.8769 183.531 96.7059 184.541 97.0908 184.775C97.4758 185.009 97.8601 185.202 97.945 185.204C98.0299 185.206 98.9747 184.834 100.045 184.377ZM103.711 173.684C108.545 170.481 112.374 166.997 116.553 162.002C118.678 159.461 118.693 159.435 118.507 158.502C118.405 157.986 118.321 156.408 118.322 154.997C118.324 150.934 119.546 147.926 122.321 145.152L123.411 144.062L122.736 142.772C122.364 142.062 121.474 140.882 120.757 140.15L119.453 138.817L121.447 137.342C124.609 135.002 126.268 133.33 127.097 131.646C128.588 128.617 127.937 126.522 124.414 123.019C119.706 118.336 113.228 115.075 104.738 113.115C101.447 112.354 100.702 112.285 100.287 112.7C100.072 112.915 100.007 120.285 100.007 144.453C100.007 173.43 100.037 175.915 100.387 175.781C100.596 175.7 102.092 174.757 103.711 173.684ZM96.2743 144.282C96.2743 116.082 96.2373 112.883 95.9077 112.554C95.1815 111.828 90.8049 112.292 89.3399 113.25L88.8211 113.59L88.9465 132.893C89.0262 145.159 88.9909 152.069 88.8497 151.847C88.5189 151.326 86.6645 145.415 86.398 142.712C85.9508 138.176 85.2002 134.738 84.9671 124.398C84.8412 118.817 85.0105 115.386 84.94 115.162C84.7265 114.483 83.7726 114.423 82.2086 114.989C80.038 115.775 78.5923 116.56 78.295 117.116C77.8816 117.888 78.1407 132.977 78.6578 138.236L79.0742 142.472L78.3643 143.701L77.6544 144.931L76.7163 141.997C74.8891 136.281 74.3357 132.769 73.9102 124.185C73.8079 122.124 73.6477 120.313 73.5541 120.161C73.4605 120.01 73.2181 119.886 73.0155 119.886C72.5963 119.886 69.3206 122.041 67.9527 123.216L67.0431 123.998L67.3083 127.716C67.999 137.396 69.6876 144.418 72.7023 150.147C73.7921 152.217 76.2849 155.897 77.0005 156.49C77.2935 156.734 77.6383 156.343 79.2332 153.963C80.2706 152.414 81.1614 151.147 81.2127 151.147C81.264 151.147 81.4861 151.698 81.7063 152.372C82.2554 154.052 84.1576 158.8 85.1881 161.062C87.2193 165.521 88.4865 167.634 90.9458 170.663C92.2903 172.318 95.721 175.643 96.0847 175.643C96.189 175.643 96.2743 161.53 96.2743 144.282H96.2743ZM128.702 157.083V152.755L129.793 152.826L130.884 152.897L132.624 157.154L134.363 161.412H135.916H137.468L138.073 159.604C138.406 158.61 139.312 155.985 140.088 153.772L141.497 149.747H139.456H137.414L136.619 152.53C136.169 154.107 135.749 155.194 135.65 155.038C135.554 154.887 135.097 153.635 134.635 152.255L133.796 149.747H128.216H122.636V151.38V153.014H123.803H124.969V157.213V161.412H126.836H128.702V157.083Z" fill="black" stroke="black" stroke-width="1.21429"/>
<path d="M107.238 129.247V120.38L108.813 120.919C114.235 122.773 118.692 125.647 119.38 127.733C120.084 129.865 117.857 132.624 113.271 135.302C111.647 136.251 108.786 137.625 107.763 137.948L107.238 138.114V129.247Z" fill="black" stroke="black" stroke-width="1.21429"/>
<path d="M107.482 153.56L107.473 145.125L109.281 144.358C112.41 143.029 114.667 143.335 115.638 145.219C116.243 146.394 116.058 148.661 115.188 150.736C113.994 153.581 110.95 158.172 108.357 161.039L107.492 161.995L107.482 153.56H107.482Z" fill="black" stroke="black" stroke-width="1.21429"/>
<path d="M381.895 137.291V169.383C381.895 169.383 382.168 170.105 381.322 170.938L369.584 182.342C369.584 182.342 369.206 182.879 367.792 182.97H310.234C310.234 182.97 308.264 183.432 305.842 180.739L298.485 173.3L289.83 181.435C289.83 181.435 289.199 182.61 286.945 182.61H270.735C270.735 182.61 268.218 181.794 268.112 179.654V164.344C268.112 164.344 267.263 163.623 270.471 160.898L277.814 153.425L245.477 121.795C245.477 121.795 241.486 117.553 250.147 114.386C250.147 114.386 250.336 111.829 251.282 111.042L247.269 110.7C247.269 110.7 245.382 113.276 242.131 111.219C242.131 111.219 239.705 109.284 241.959 107.216C241.959 107.216 244.556 104.882 248.295 105.005C248.295 105.005 257.492 105.752 263.957 110.922C263.957 110.922 268.525 104.16 273.516 106.948C273.516 106.948 277.547 109.088 276.899 111.439L275.87 113.393C275.87 113.393 279.055 113.487 279.789 114.246C279.789 114.246 280.81 114.654 281.839 114.032C281.839 114.032 285.363 111.219 286.742 114.292C286.742 114.292 293.367 113.487 294.956 114.905C294.956 114.905 297.221 112.386 299.331 114.782C299.331 114.782 301.321 113.849 303.442 116.118L311.562 123.787H367.139C367.139 123.787 368.581 123.787 370.032 125.148L381.265 135.465C381.265 135.465 381.973 136.558 381.895 137.291Z" fill="#203C87"/>
<path d="M252.342 121.617C252.342 121.617 250.089 121.489 247.778 118.69C247.778 118.69 246.746 117.828 252.342 117.551V121.617ZM243.515 107.132C243.515 107.132 242.336 109.309 245.782 109.309C245.782 109.309 244.707 108.233 245.243 108.41C245.243 108.41 265.433 109.309 264.954 119.069C264.954 119.069 265.433 122.838 254.601 122.376L254.857 117.902C254.857 117.902 259.418 117.218 259.418 118.958L258.882 119.902C258.882 119.902 261.932 120.376 262.018 118.125C262.119 115.839 255.794 115.383 254.857 115.383L254.788 112.541C254.788 112.541 253.627 110.615 252.867 111.808V115.626C252.867 115.626 246.522 115.218 246.27 118.958C246.27 118.958 246.442 120.31 251.992 123.814C251.992 123.814 252.09 126.59 254.934 124.767C254.934 124.767 267.778 126.416 267.626 118.29C267.626 118.29 265.361 105.26 243.515 107.132Z" fill="#A4C73E"/>
<path d="M268.256 116.776V122.853C268.256 122.853 269.153 124.596 269.89 122.65V116.973C269.89 116.973 268.984 115.332 268.256 116.776Z" fill="#A4C73E"/>
<path d="M273.272 111.627C273.272 111.627 270.388 113.618 269.433 112.951L272.364 110.506C272.364 110.506 274.187 110.329 273.272 111.627ZM269.577 110.414L268.241 111.941C268.169 110.745 269.577 110.414 269.577 110.414ZM273.525 108.782C273.525 108.782 272.06 106.848 268.536 108.905C265.01 110.934 267.171 114.543 267.171 114.543C267.171 114.543 272.627 114.991 274.347 112.951C276.114 110.934 273.525 108.782 273.525 108.782Z" fill="#A4C73E"/>
<path d="M279.854 124.044V118.44C279.854 118.44 279.983 116.06 281.336 116.189C281.336 116.189 282.322 115.681 284.739 121.071L284.51 114.811C284.51 114.811 286.929 116.06 287.056 117.895V123.153C287.056 123.153 285.751 125.516 284.08 123.601L281.726 119.661V123.153C281.726 123.153 281.579 125.173 279.854 124.044Z" fill="#A4C73E"/>
<path d="M287.628 116.614H293.8C293.8 116.614 295.38 118.144 293.049 118.144H290.664C290.664 118.144 289.896 119.282 290.879 119.282H293.8C293.8 119.282 293.967 120.32 292.396 120.56H289.812C289.812 120.56 289.116 121.562 289.812 121.562H292.648C292.648 121.562 293.15 121.627 293.181 122.671C293.181 122.671 290.965 124.877 288.984 124.877C288.984 124.877 287.393 124.786 287.393 123.496L287.628 116.614Z" fill="#A4C73E"/>
<path d="M300.204 121.257C300.204 121.257 298.103 122.358 298.031 121.6L301.202 118.672C301.202 118.672 301.374 120.627 300.204 121.257ZM302.03 117.34C299.35 116.181 296.024 120.627 296.024 120.627C296.101 118.618 296.861 118.107 297.721 117.2C298.524 116.313 298.103 116.181 298.103 116.181C295.528 116.181 294.616 119.654 294.616 119.654L293.191 129.777C293.191 130.992 294.866 131.297 294.866 131.297L296.683 124.35C300.026 124.61 300.62 123.203 300.62 123.203C304.118 120.552 302.03 117.34 302.03 117.34Z" fill="#A4C73E"/>
<path d="M275.816 121.862C275.033 121.871 273.568 121.862 272.722 121.269C272.722 121.269 273.41 120.761 274.282 121.269C274.941 121.668 275.457 121.817 275.816 121.862C276.146 121.862 276.389 121.825 276.389 121.825C276.389 121.825 276.177 121.871 275.816 121.862ZM273.261 118.344C273.261 117.714 274.359 117.537 274.359 117.537H278.514C279.784 117.648 279.884 117.537 279.884 116.721C279.884 115.925 278.614 115.925 278.614 115.925C277.547 115.805 273.175 116.056 273.175 116.056C270.022 116.906 271.501 119.323 271.501 119.323C279.239 119.945 277.467 121.269 277.467 121.269C274.273 118.832 271.914 120.259 271.914 120.259C269.878 124.039 275.959 124.225 275.959 124.225C275.959 124.225 279.52 124.918 279.706 121.483C279.884 117.936 273.261 118.344 273.261 118.344Z" fill="#A4C73E"/>
<path d="M271.154 126.16H287.763L299.136 137.524L310.648 125.92H327.064V143.49L316.104 153.593L327.265 164.098V180.926H309.544L298.921 170.609L289.045 180.155H271.154V163.744L281.797 153.427L271.366 142.933L271.154 126.16Z" fill="#A4C73E"/>
<path d="M329.145 126.208V180.204H367.892L379.062 169.063V137.573L367.528 126.311L329.145 126.208Z" fill="#A4C73E"/>
<path fill-rule="evenodd" clip-rule="evenodd" d="M562.441 303.903H567.745V319.524H575.552V324.121H562.724L562.441 303.903Z" fill="#1A1918"/>
<path fill-rule="evenodd" clip-rule="evenodd" d="M587.407 303.62L577.09 324.122H582.253L583.508 321.328H591.181L592.295 324.122H598.289L587.407 303.62ZM587.548 312.266L585.179 317.288H589.502L587.548 312.266Z" fill="#1A1918"/>
<path fill-rule="evenodd" clip-rule="evenodd" d="M595.779 303.903V307.81H601.358V324.121H606.653V307.669H611.816V304.044L595.779 303.903Z" fill="#1A1918"/>
<path fill-rule="evenodd" clip-rule="evenodd" d="M615.167 303.761H620.188V324.121H615.025L615.167 303.761Z" fill="#1A1918"/>
<path fill-rule="evenodd" clip-rule="evenodd" d="M624.926 324.113H630.089V313.514L636.224 322.717C637.696 324.953 641.96 324.928 642.085 321.32V303.745H636.922V314.486L630.646 304.302C629.424 302.54 624.901 303.371 624.926 306.114V324.105V324.113Z" fill="#1A1918"/>
<path fill-rule="evenodd" clip-rule="evenodd" d="M656.26 307.918C659.42 307.918 661.98 310.479 661.98 313.638C661.98 316.797 659.42 319.358 656.26 319.358C653.101 319.358 650.541 316.797 650.541 313.638C650.541 310.479 653.101 307.918 656.26 307.918ZM656.26 302.739C662.279 302.739 667.159 307.619 667.159 313.638C667.159 319.657 662.279 324.537 656.26 324.537C650.241 324.537 645.361 319.657 645.361 313.638C645.361 307.619 650.241 302.739 656.26 302.739Z" fill="#1A1918"/>
<path fill-rule="evenodd" clip-rule="evenodd" d="M618.134 221H620.578C625.392 221.191 630.023 222.721 634.479 224.45C637.314 225.498 640.107 226.637 642.917 227.742C645.328 228.557 647.814 229.264 650.374 229.338C652.985 229.388 655.703 228.898 657.898 227.418C659.835 226.138 661.032 224.059 662.055 222.031C662.903 222.023 663.742 222.023 664.59 222.031C663.792 224.517 662.437 226.844 660.575 228.682C658.954 230.303 656.934 231.5 654.755 232.223C652.029 233.129 649.11 233.287 646.267 233.063C643.624 232.839 641.046 232.132 638.552 231.242C635.842 230.278 633.19 229.164 630.521 228.125C626.996 226.736 623.363 225.431 619.564 225.115C615.549 224.758 611.334 225.24 607.759 227.227C603.843 229.355 600.992 233.171 599.703 237.394C598.88 237.394 598.065 237.394 597.242 237.394C598.564 233.063 600.867 228.898 604.458 226.038C608.349 222.987 613.213 221.241 618.142 221H618.134Z" fill="#CC0000"/>
<path fill-rule="evenodd" clip-rule="evenodd" d="M665.963 222.031C666.769 222.031 667.584 222.023 668.39 222.039C667.035 226.454 664.657 230.71 660.949 233.562C657.142 236.447 652.453 238.159 647.681 238.4C644.522 238.583 641.354 238.167 638.295 237.378C636.25 236.879 634.23 236.272 632.276 235.482C629.582 234.451 626.914 233.337 624.228 232.282C621.926 231.317 619.506 230.61 617.037 230.228C613.903 229.829 610.519 230.195 607.826 231.949C605.839 233.229 604.617 235.349 603.569 237.403C602.73 237.411 601.898 237.403 601.059 237.403C602.264 233.645 604.816 230.261 608.316 228.374C611.85 226.429 616.04 226.071 619.997 226.495C623.904 226.919 627.587 228.391 631.22 229.821C634.404 231.068 637.563 232.423 640.856 233.379C644.065 234.31 647.448 234.701 650.782 234.377C653.517 234.127 656.219 233.321 658.572 231.882C662.163 229.679 664.757 226.046 665.979 222.039L665.963 222.031Z" fill="#CC0000"/>
<path fill-rule="evenodd" clip-rule="evenodd" d="M602.887 246.124C604.824 245.708 606.886 245.991 608.665 246.839C610.427 247.67 611.915 249 613.104 250.538C614.011 251.685 614.684 252.999 615.432 254.254C618.533 259.592 621.642 264.921 624.71 270.283C624.743 266.226 624.71 262.169 624.727 258.103C624.768 256.366 624.577 254.595 625.034 252.899C625.649 250.372 627.354 248.119 629.682 246.93C631.66 245.882 634.03 245.666 636.183 246.273C638.261 246.847 640.082 248.152 641.487 249.757C642.809 251.211 643.698 252.974 644.688 254.645C647.722 259.858 650.781 265.054 653.816 270.266C653.841 262.219 653.816 254.163 653.824 246.115C655.986 246.099 658.155 246.107 660.325 246.115C660.325 259.716 660.325 273.326 660.325 286.926C660.325 287.567 660.384 288.282 659.993 288.83C659.702 289.263 659.087 289.379 658.638 289.138C658.264 288.972 658.022 288.631 657.823 288.29C650.798 277.017 643.748 265.76 636.79 254.445C636.274 253.556 635.318 252.907 634.279 252.849C633.165 252.766 632.076 253.448 631.61 254.445C631.228 255.177 631.228 256.025 631.236 256.831C631.236 267.09 631.236 277.358 631.236 287.617C631.236 288.215 631.053 288.963 630.43 289.196C629.831 289.404 629.233 288.98 628.942 288.481C621.825 277.067 614.692 265.66 607.634 254.213C607.06 253.373 606.063 252.791 605.032 252.833C604.043 252.841 603.111 253.439 602.654 254.312C602.222 255.077 602.197 255.975 602.214 256.823C602.214 267.04 602.222 277.266 602.205 287.492C602.172 288.406 601.316 289.179 600.41 289.171C595.696 289.179 590.982 289.171 586.268 289.179C584.339 289.196 582.402 289.105 580.524 288.681C576.907 287.924 573.499 286.02 571.129 283.169C568.336 279.843 566.956 275.429 567.114 271.106C567.247 266.7 568.984 262.31 572.094 259.159C574.795 256.399 578.52 254.753 582.336 254.354C583.824 254.171 585.32 254.221 586.817 254.213C589.153 254.213 591.497 254.213 593.834 254.213C593.858 256.358 593.842 258.502 593.842 260.647C591.497 260.656 589.161 260.647 586.817 260.647C585.512 260.656 584.206 260.597 582.918 260.814C580.59 261.163 578.354 262.244 576.708 263.94C574.662 266.001 573.532 268.903 573.523 271.796C573.507 274.198 574.28 276.609 575.793 278.488C577.057 280.093 578.836 281.257 580.756 281.922C582.294 282.462 583.932 282.703 585.553 282.745C588.355 282.745 591.157 282.745 593.958 282.745C594.615 282.778 595.263 282.362 595.521 281.755C595.729 281.315 595.679 280.816 595.687 280.342C595.687 271.987 595.687 263.64 595.687 255.285C595.712 253.065 596.461 250.837 597.891 249.133C599.163 247.603 600.95 246.506 602.904 246.107L602.887 246.124Z" fill="#CC0000"/>
<path fill-rule="evenodd" clip-rule="evenodd" d="M581.912 246.34C584.464 246.04 587.042 246.132 589.61 246.115C591.015 246.123 592.42 246.099 593.825 246.123C593.817 248.285 593.825 250.447 593.817 252.608C590.866 252.608 587.923 252.608 584.971 252.608C582.585 252.608 580.183 252.907 577.922 253.672C574.405 254.828 571.271 257.122 569.117 260.14C566.233 264.147 565.011 269.277 565.601 274.165C566.1 278.355 567.929 282.445 570.955 285.413C573.623 288.09 577.198 289.761 580.898 290.401C582.561 290.709 584.256 290.784 585.952 290.784C590.433 290.784 594.914 290.784 599.395 290.784C600.094 290.776 600.809 290.834 601.474 290.584C602.771 290.144 603.743 288.863 603.768 287.492C603.768 277.033 603.768 266.583 603.768 256.125C603.768 255.526 603.968 254.844 604.533 254.553C605.148 254.254 605.913 254.562 606.262 255.127C613.304 266.542 620.42 277.915 627.512 289.304C628.144 290.393 629.491 291.15 630.754 290.767C632.043 290.41 632.799 289.055 632.791 287.774C632.799 277.274 632.791 266.774 632.791 256.283C632.783 255.684 632.907 254.986 633.448 254.637C634.046 254.238 634.878 254.528 635.252 255.094C642.302 266.508 649.41 277.89 656.51 289.279C656.959 290.036 657.698 290.643 658.571 290.825C659.478 291.033 660.467 290.676 661.074 289.977C661.647 289.346 661.888 288.473 661.888 287.641C661.888 273.799 661.888 259.966 661.888 246.132C664.042 246.123 666.195 246.123 668.348 246.132C668.356 259.924 668.348 273.716 668.348 287.508C668.34 288.489 668.398 289.487 668.223 290.46C667.899 292.738 666.76 294.949 664.89 296.321C662.869 297.842 660.184 298.291 657.732 297.801C654.656 297.21 651.97 295.157 650.366 292.488C646.691 286.403 643.008 280.325 639.35 274.232C639.35 278.28 639.35 282.329 639.35 286.378C639.342 288.057 639.434 289.77 639.01 291.407C638.544 293.353 637.438 295.173 635.801 296.354C633.805 297.825 631.17 298.266 628.759 297.792C625.65 297.21 622.931 295.132 621.318 292.43C617.66 286.353 613.969 280.292 610.328 274.207C610.286 278.679 610.328 283.152 610.311 287.625C610.253 289.844 609.704 292.139 608.324 293.926C607.094 295.564 605.215 296.628 603.236 297.052C601.515 297.46 599.728 297.352 597.974 297.368C593.884 297.36 589.793 297.377 585.703 297.36C580.524 297.285 575.278 296.08 570.838 293.353C567.48 291.308 564.636 288.415 562.641 285.031C557.878 277.033 557.761 266.467 562.45 258.403C564.853 254.213 568.585 250.812 572.975 248.776C575.777 247.462 578.811 246.672 581.887 246.34H581.912Z" fill="#CC0000"/>
<path d="M453.014 292.161H453.528L454.289 294.395L455.049 292.161H455.557V294.802H455.215V293.241C455.215 293.185 455.215 293.101 455.222 292.971V292.575L454.465 294.802H454.113L453.345 292.575V292.655C453.345 292.719 453.348 292.817 453.352 292.95C453.352 293.083 453.355 293.178 453.355 293.241V294.802H453.014V292.161ZM452.693 292.161V292.473H451.799V294.802H451.436V292.473H450.545V292.161H452.693Z" fill="black"/>
<path d="M457.122 259.159L450.807 277.136L444.915 259.159H438.893L448.046 283.507L447.976 283.676C447.976 283.676 446.13 288.642 444.464 289.844C443.179 290.496 440.171 290.45 439.034 290.37V294.961C441.02 294.958 445.693 295.084 447.197 294.134C449.089 292.949 449.511 292.434 450.8 289.83C452.205 286.991 463 259.159 463 259.159H457.122ZM427.633 263.211V259.163H421.991V283.679H427.633V274.346C427.633 272.705 427.788 271.265 428.242 270.077C429.94 265.615 434.68 264.346 437.132 263.985L435.198 259.299C433.226 259.639 429.757 260.582 427.633 263.211ZM330.436 279.351C326.097 279.351 323.065 275.825 323.065 271.412C323.065 267.094 326.051 263.565 330.154 263.565C333 263.565 334.821 264.816 336.546 266.632L340.047 262.871C337.758 260.365 334.866 258.648 330.203 258.648C322.832 258.648 317.422 264.494 317.422 271.503C317.422 278.51 322.832 284.222 330.154 284.222C334.958 284.222 337.807 282.316 340.23 279.628L336.825 276.287C335.053 278.096 333.095 279.351 330.436 279.351ZM412.169 269.117C412.077 268.216 411.873 267.963 411.559 267.171C411.253 266.386 410.83 265.692 410.302 265.107C409.774 264.518 409.143 264.059 408.414 263.737C407.685 263.411 406.85 263.249 405.914 263.249C404.174 263.249 402.737 263.845 401.599 265.037C400.465 266.232 399.771 267.196 399.521 269.117H412.169ZM417.022 266.803C417.518 268.398 417.768 270.077 417.768 271.84C417.768 272.085 417.761 272.344 417.747 272.607C417.73 272.87 417.705 273.14 417.677 273.417H399.571C399.884 275.432 400.684 276.971 401.973 278.036C403.265 279.105 404.829 279.642 406.664 279.642C408.062 279.642 409.277 279.393 410.302 278.899C411.33 278.401 412.341 277.675 413.334 276.715L416.652 279.642C415.465 281.033 414.06 282.151 412.426 282.985C410.791 283.819 408.84 284.24 406.569 284.24C404.797 284.24 403.138 283.924 401.599 283.311C400.064 282.691 398.722 281.825 397.584 280.707C396.454 279.596 395.556 278.257 394.904 276.694C394.253 275.131 393.925 273.399 393.925 271.514V271.419C393.925 269.656 394.221 268.002 394.813 266.453C395.401 264.907 396.235 263.551 397.306 262.391C398.38 261.227 399.648 260.316 401.11 259.65C402.571 258.984 404.188 258.651 405.963 258.651C407.921 258.651 409.643 259.009 411.119 259.72C412.595 260.432 413.827 261.392 414.806 262.598C415.789 263.807 416.525 265.209 417.022 266.803ZM380.781 277.185L374.157 259.163H368.088L378.217 283.868H383.303L393.379 259.163H387.452L380.781 277.185ZM362.214 271.468C362.214 270.385 362.027 269.362 361.654 268.405C361.277 267.445 360.756 266.611 360.09 265.896C359.418 265.184 358.629 264.62 357.709 264.199C356.794 263.782 355.772 263.575 354.652 263.575C353.532 263.575 352.511 263.782 351.599 264.199C350.68 264.62 349.891 265.177 349.239 265.871C348.588 266.569 348.088 267.389 347.746 268.331C347.404 269.278 347.232 270.294 347.232 271.374V271.468C347.232 272.523 347.422 273.529 347.792 274.486C348.165 275.446 348.686 276.291 349.356 277.02C350.025 277.745 350.817 278.317 351.736 278.734C352.656 279.151 353.656 279.365 354.744 279.365C355.896 279.365 356.931 279.151 357.85 278.734C358.766 278.317 359.555 277.752 360.206 277.041C360.858 276.326 361.355 275.502 361.7 274.556C362.038 273.613 362.214 272.614 362.214 271.563V271.468ZM366.877 266.425C367.532 267.963 367.86 269.611 367.86 271.374V271.468C367.86 273.203 367.521 274.843 366.856 276.389C366.183 277.935 365.267 279.291 364.102 280.455C362.936 281.615 361.541 282.537 359.928 283.217C358.308 283.9 356.551 284.24 354.652 284.24C352.786 284.24 351.053 283.91 349.451 283.241C347.848 282.575 346.464 281.667 345.298 280.525C344.129 279.379 343.22 278.033 342.565 276.484C341.914 274.935 341.586 273.294 341.586 271.563V271.468C341.586 269.705 341.921 268.048 342.59 266.498C343.259 264.949 344.178 263.6 345.344 262.44C346.51 261.276 347.894 260.354 349.496 259.671C351.099 258.991 352.849 258.651 354.744 258.651C356.642 258.651 358.393 258.984 359.995 259.65C361.598 260.316 362.982 261.227 364.147 262.391C365.313 263.551 366.225 264.897 366.877 266.425ZM312.386 271.535C311.657 270.999 310.84 270.539 309.935 270.168C309.033 269.796 308.132 269.471 307.23 269.19C306.515 268.945 305.825 268.713 305.152 268.493C304.487 268.282 303.895 268.037 303.381 267.778C302.867 267.515 302.454 267.22 302.145 266.891C301.831 266.569 301.68 266.19 301.68 265.755V265.664C301.68 264.949 301.979 264.36 302.588 263.901C303.194 263.435 304.043 263.2 305.131 263.2C306.159 263.2 307.276 263.411 308.491 263.831C309.703 264.245 310.9 264.813 312.083 265.524L314.323 261.532C313.017 260.663 311.573 259.983 309.984 259.489C308.396 258.991 306.825 258.746 305.272 258.746C304.057 258.746 302.916 258.917 301.842 259.254C300.767 259.597 299.834 260.092 299.042 260.74C298.249 261.392 297.626 262.17 297.175 263.085C296.724 264.003 296.499 265.047 296.499 266.222V266.313C296.499 267.49 296.731 268.479 297.2 269.288C297.665 270.091 298.263 270.767 298.996 271.304C299.725 271.847 300.549 272.288 301.468 272.632C302.384 272.968 303.296 273.263 304.198 273.512C304.913 273.729 305.607 273.939 306.276 274.139C306.941 274.339 307.533 274.57 308.047 274.836C308.561 275.099 308.963 275.401 309.262 275.741C309.555 276.081 309.702 276.484 309.702 276.946V277.041C309.702 277.847 309.368 278.488 308.699 278.965C308.033 279.449 307.093 279.684 305.878 279.684C304.603 279.684 303.272 279.431 301.887 278.92C300.503 278.408 299.14 277.658 297.806 276.669L295.284 280.476C296.841 281.685 298.528 282.596 300.348 283.217C302.166 283.837 303.962 284.145 305.737 284.145C307.012 284.145 308.213 283.984 309.333 283.658C310.449 283.329 311.421 282.856 312.245 282.218C313.069 281.58 313.717 280.788 314.186 279.824C314.651 278.867 314.883 277.735 314.883 276.438V276.344C314.883 275.229 314.651 274.283 314.186 273.512C313.717 272.737 313.119 272.082 312.386 271.535ZM285.796 283.679H291.445V259.163H285.796V283.679ZM282.524 267.199C282.524 276.389 275.434 283.486 265.175 283.486H255.247C257.251 282.158 258.92 280.381 260.121 278.289H265.175C272.029 278.289 276.509 273.694 276.509 267.291C276.509 260.887 272.029 256.198 265.175 256.198H258.737V260.978C257.793 259.808 256.691 258.767 255.444 257.915C254.68 257.386 253.856 256.937 253 256.555V251H265.175C275.434 251 282.524 258.01 282.524 267.199Z" fill="black"/>
<path d="M23.748 270.798C23.8796 270.321 24.0195 269.802 24.1703 269.237C24.3238 268.675 24.4417 268.14 24.5295 267.644C24.6145 267.142 24.7022 266.697 24.79 266.307C24.875 265.916 24.9188 265.679 24.9188 265.592C24.9188 265.723 24.9627 265.979 25.0505 266.372C25.1355 266.762 25.2232 267.21 25.3109 267.706C25.3959 268.209 25.5166 268.724 25.6674 269.267C25.8182 269.813 25.9608 270.321 26.0896 270.798L30.1313 283.666C33.9453 283.203 37.795 282.788 41.6831 282.422L49.8377 255.305H41.5131L36.7613 272.948C36.6297 273.469 36.5008 274.053 36.372 274.708C36.2403 275.355 36.1197 275.955 36.0128 276.496C35.9031 277.039 35.8291 277.516 35.7852 277.928C35.7413 278.343 35.7194 278.588 35.7194 278.678C35.7194 278.548 35.6755 278.275 35.5905 277.863C35.5028 277.451 35.404 276.976 35.2971 276.43C35.1902 275.89 35.0586 275.3 34.9078 274.673C34.7542 274.042 34.5924 273.469 34.4197 272.948L28.7576 255.305H21.3406L15.747 272.948C15.5715 273.469 15.4098 274.053 15.2589 274.708C15.1054 275.355 14.9656 275.955 14.8339 276.496C14.7051 277.039 14.5954 277.516 14.5104 277.928C14.4227 278.343 14.3788 278.588 14.3788 278.678C14.3788 278.588 14.3459 278.343 14.2801 277.928C14.217 277.516 14.1293 277.028 14.0223 276.463C13.9127 275.898 13.803 275.289 13.696 274.64C13.5864 273.991 13.4685 273.404 13.3396 272.883L8.78521 255.305H0L9.38844 286.717C12.6431 286.152 15.9307 285.628 19.2485 285.135L23.748 270.798Z" fill="#524D3B"/>
<path d="M60.9824 279.542C60.2009 278.677 59.584 277.613 59.1261 276.352C58.6709 275.094 58.4433 273.662 58.4433 272.057C58.4433 270.45 58.6709 268.996 59.1261 267.694C59.584 266.393 60.2009 265.296 60.9824 264.406C61.7611 263.517 62.6824 262.832 63.7462 262.354C64.8101 261.877 65.9261 261.637 67.0969 261.637C68.2677 261.637 69.3837 261.877 70.4476 262.354C71.5115 262.832 72.4328 263.517 73.2142 264.406C73.9929 265.296 74.6126 266.393 75.0678 267.694C75.5229 268.996 75.7505 270.45 75.7505 272.057C75.7505 273.662 75.5229 275.094 75.0678 276.352C74.6126 277.613 73.9929 278.677 73.2142 279.542C72.877 279.919 72.5013 280.235 72.1119 280.533C75.4544 280.44 78.816 280.385 82.1969 280.364C82.4244 279.93 82.6438 279.485 82.8412 279.024C83.7543 276.895 84.2094 274.551 84.2094 271.989C84.2094 269.476 83.7543 267.129 82.8412 264.96C81.9309 262.788 80.697 260.924 79.1341 259.361C77.5739 257.797 75.7615 256.572 73.7023 255.683C71.6403 254.793 69.4385 254.348 67.0969 254.348C64.7553 254.348 62.5535 254.793 60.4943 255.683C58.4323 256.572 56.6226 257.797 55.0597 259.361C53.4996 260.924 52.2629 262.788 51.3526 264.96C50.4423 267.129 49.9844 269.476 49.9844 271.989C49.9844 274.551 50.4423 276.895 51.3526 279.024C51.7283 279.902 52.1752 280.724 52.6633 281.507C55.9646 281.269 59.2878 281.065 62.6303 280.901C62.0325 280.516 61.4704 280.085 60.9824 279.542Z" fill="#524D3B"/>
<path d="M97.0214 271.48C97.0214 268.399 98.0085 266.085 99.9827 264.546C101.957 263.007 104.83 262.519 108.603 263.084V254.878C107.561 254.791 106.465 254.816 105.316 254.941C104.167 255.072 103.043 255.378 101.935 255.855C100.827 256.333 99.8072 257.004 98.8777 257.875C97.9427 258.742 97.1941 259.85 96.6293 261.193V255.271H88.4336V280.433C91.3099 280.443 94.1725 280.482 97.0214 280.547V271.48Z" fill="#524D3B"/>
<path d="M119.189 240H110.991V280.723C113.741 280.873 116.472 281.048 119.189 281.244V240Z" fill="#524D3B"/>
<path d="M143.499 281.241C142.438 281.7 141.32 281.923 140.149 281.923C138.981 281.923 137.862 281.7 136.798 281.241C135.737 280.786 134.816 280.125 134.034 279.255C133.253 278.39 132.633 277.326 132.178 276.068C131.726 274.81 131.495 273.374 131.495 271.77C131.495 270.163 131.726 268.708 132.178 267.41C132.633 266.105 133.253 265.011 134.034 264.122C134.816 263.229 135.737 262.544 136.798 262.07C137.862 261.592 138.981 261.352 140.149 261.352C141.32 261.352 142.438 261.592 143.499 262.07C144.563 262.544 145.485 263.229 146.266 264.122C147.045 265.011 147.665 266.105 148.12 267.41C148.575 268.708 148.802 270.163 148.802 271.77C148.802 273.374 148.575 274.81 148.12 276.068C147.665 277.326 147.045 278.39 146.266 279.255C145.485 280.125 144.563 280.786 143.499 281.241ZM157.001 285.528V240H148.802V259.726C147.977 258.293 146.699 256.989 144.964 255.821C143.228 254.648 141.037 254.061 138.394 254.061C136.354 254.061 134.402 254.506 132.537 255.395C130.67 256.285 129.033 257.513 127.626 259.073C126.214 260.637 125.098 262.503 124.276 264.675C123.45 266.845 123.039 269.189 123.039 271.705C123.039 274.264 123.439 276.611 124.243 278.736C124.638 279.79 125.106 280.769 125.649 281.683C133.379 282.341 154.374 285.105 157.001 285.528Z" fill="#524D3B"/>
<path d="M104.293 291.738L102.377 297.198L100.583 291.738H98.7571L101.537 299.139L101.516 299.182C101.516 299.182 100.956 300.694 100.449 301.06C100.057 301.256 99.1465 301.24 98.7983 301.221V302.615C99.4043 302.615 100.825 302.65 101.277 302.367C101.853 302.004 101.979 301.845 102.377 301.06C102.799 300.195 106.081 291.738 106.081 291.738H104.293ZM95.3379 292.972V291.738H93.6215V299.188H95.3379V296.353C95.3379 295.853 95.3846 295.417 95.5189 295.056C96.0371 293.7 97.4767 293.316 98.2197 293.206L97.6357 291.785C97.0325 291.886 95.9823 292.172 95.3379 292.972ZM65.8154 297.87C64.4937 297.87 63.5779 296.8 63.5779 295.463C63.5779 294.151 64.48 293.078 65.7304 293.078C66.5913 293.078 67.1425 293.457 67.6689 294.009L68.7355 292.863C68.0363 292.109 67.1562 291.583 65.7441 291.583C63.5039 291.583 61.8587 293.359 61.8587 295.493C61.8587 297.621 63.5039 299.351 65.7304 299.351C67.1891 299.351 68.0555 298.776 68.7904 297.957L67.7539 296.945C67.2165 297.493 66.6215 297.87 65.8154 297.87ZM90.6382 294.759C90.6108 294.492 90.5532 294.412 90.4545 294.172C90.3586 293.938 90.2297 293.725 90.0734 293.547C89.9116 293.367 89.7197 293.228 89.5003 293.133C89.2755 293.034 89.0177 292.983 88.7381 292.983C88.2116 292.983 87.7756 293.163 87.4274 293.523C87.0847 293.889 86.8735 294.181 86.7968 294.759H90.6382ZM92.1161 294.06C92.2615 294.543 92.341 295.056 92.341 295.591C92.341 295.665 92.3382 295.744 92.3328 295.82C92.3273 295.908 92.3191 295.987 92.3108 296.069H86.8132C86.9064 296.683 87.1505 297.147 87.5426 297.477C87.9374 297.799 88.409 297.96 88.9656 297.96C89.3961 297.96 89.7581 297.886 90.0734 297.736C90.3832 297.586 90.6876 297.362 90.9892 297.07L92.001 297.96C91.6418 298.385 91.2113 298.724 90.7178 298.975C90.2242 299.229 89.6265 299.36 88.941 299.36C88.4008 299.36 87.8963 299.261 87.4274 299.079C86.9613 298.888 86.5527 298.62 86.2072 298.282C85.8645 297.946 85.5931 297.537 85.3929 297.065C85.1982 296.59 85.0995 296.069 85.0995 295.496V295.468C85.0995 294.931 85.1845 294.426 85.3655 293.954C85.5437 293.485 85.7987 293.073 86.1277 292.723C86.4513 292.366 86.8352 292.09 87.2794 291.891C87.7235 291.689 88.2171 291.583 88.7545 291.583C89.3523 291.583 89.8732 291.689 90.3202 291.91C90.7671 292.129 91.1428 292.415 91.4389 292.786C91.7378 293.152 91.9626 293.577 92.1161 294.06ZM81.1045 297.218L79.0946 291.738H77.2493L80.3285 299.245H81.8695L84.9322 291.738H83.128L81.1045 297.218ZM75.4643 295.479C75.4643 295.149 75.404 294.841 75.2943 294.546C75.1819 294.257 75.0201 294 74.8227 293.79C74.617 293.567 74.373 293.395 74.0988 293.272C73.8219 293.144 73.5093 293.081 73.1693 293.081C72.8265 293.081 72.5194 293.144 72.2425 293.272C71.9601 293.395 71.7215 293.567 71.5241 293.779C71.3294 293.99 71.1731 294.241 71.0689 294.524C70.9675 294.814 70.9154 295.122 70.9154 295.447V295.479C70.9154 295.799 70.973 296.107 71.0854 296.396C71.1978 296.688 71.3568 296.945 71.5598 297.163C71.7627 297.387 72.0039 297.561 72.2809 297.687C72.5606 297.812 72.8677 297.878 73.194 297.878C73.5449 297.878 73.8602 297.812 74.1372 297.687C74.4196 297.561 74.6582 297.387 74.8556 297.171C75.053 296.956 75.2038 296.699 75.308 296.415C75.4122 296.129 75.4643 295.826 75.4643 295.507V295.479ZM76.8791 293.946C77.0848 294.412 77.1835 294.915 77.1835 295.447V295.479C77.1835 296.003 77.0793 296.503 76.8736 296.972C76.6735 297.447 76.3911 297.856 76.0401 298.208C75.6836 298.557 75.2586 298.838 74.7733 299.049C74.2825 299.256 73.7451 299.36 73.1693 299.36C72.6017 299.36 72.0752 299.259 71.5899 299.054C71.1018 298.852 70.6823 298.579 70.3259 298.227C69.9722 297.883 69.698 297.477 69.4978 297.005C69.3004 296.53 69.1989 296.036 69.1989 295.507V295.479C69.1989 294.939 69.3031 294.437 69.5033 293.968C69.7089 293.501 69.9886 293.092 70.3451 292.737C70.6988 292.382 71.1183 292.104 71.6064 291.899C72.0917 291.689 72.6181 291.583 73.194 291.583C73.7752 291.583 74.3072 291.689 74.7925 291.891C75.2778 292.09 75.7001 292.366 76.0511 292.723C76.4103 293.073 76.6872 293.485 76.8791 293.946ZM60.3287 295.498C60.1094 295.335 59.8653 295.198 59.5884 295.086C59.3142 294.969 59.04 294.871 58.7658 294.786C58.5465 294.713 58.3353 294.644 58.1352 294.576C57.9295 294.511 57.7513 294.434 57.5977 294.355C57.4415 294.279 57.3098 294.186 57.2194 294.088C57.1289 293.99 57.0823 293.875 57.0823 293.744V293.717C57.0823 293.501 57.17 293.321 57.3565 293.174C57.5374 293.04 57.7952 292.966 58.1297 292.966C58.4395 292.966 58.7768 293.034 59.1469 293.157C59.5171 293.283 59.879 293.457 60.2382 293.673L60.921 292.459C60.5207 292.197 60.0847 291.989 59.5994 291.842C59.1195 291.689 58.6424 291.61 58.1681 291.61C57.8006 291.61 57.4552 291.667 57.1289 291.771C56.7998 291.872 56.5202 292.022 56.2789 292.221C56.0348 292.415 55.8429 292.652 55.7113 292.934C55.5742 293.212 55.5056 293.528 55.5056 293.886V293.91C55.5056 294.271 55.5742 294.571 55.7168 294.816C55.8593 295.062 56.0403 295.264 56.2652 295.43C56.4845 295.591 56.734 295.73 57.0164 295.831C57.2934 295.935 57.5676 296.025 57.8445 296.099C58.0584 296.164 58.2723 296.227 58.4752 296.29C58.6808 296.353 58.8536 296.421 59.0098 296.5C59.1689 296.579 59.2895 296.675 59.3828 296.776C59.4732 296.879 59.5171 297.005 59.5171 297.141V297.171C59.5171 297.414 59.4157 297.611 59.21 297.755C59.0071 297.9 58.7219 297.976 58.3518 297.976C57.9652 297.976 57.5621 297.9 57.1398 297.739C56.7203 297.586 56.309 297.359 55.9005 297.057L55.1382 298.216C55.6098 298.582 56.1226 298.858 56.6765 299.049C57.2276 299.231 57.7705 299.327 58.3106 299.327C58.6945 299.327 59.0647 299.28 59.4047 299.182C59.7447 299.081 60.0353 298.937 60.2931 298.743C60.5371 298.552 60.7318 298.309 60.8771 298.017C61.0224 297.725 61.091 297.381 61.091 296.991V296.958C61.091 296.62 61.0224 296.333 60.8771 296.099C60.7318 295.861 60.5508 295.662 60.3287 295.498ZM52.2537 299.188H53.9674V291.738H52.2537V299.188ZM51.2611 294.181C51.2611 296.972 49.1087 299.128 45.9856 299.128H42.9749C43.5836 298.727 44.0936 298.184 44.4556 297.553H45.9856C48.0722 297.553 49.435 296.156 49.435 294.211C49.435 292.262 48.0722 290.843 45.9856 290.843H44.0361V292.287C43.7482 291.94 43.4136 291.621 43.038 291.365C42.8049 291.201 42.5527 291.064 42.2949 290.952V289.263H45.9856C49.1087 289.263 51.2611 291.392 51.2611 294.181Z" fill="#524D3B"/>
<path d="M46.1387 294.92C46.1387 292.748 44.3674 290.982 42.1793 290.982C39.9967 290.982 38.2227 292.748 38.2227 294.92C38.2227 297.095 39.9967 298.855 42.1793 298.855C44.3674 298.855 46.1387 297.095 46.1387 294.92Z" fill="#524D3B"/>
<path d="M107.658 289.263H108.399V293.886H114.763V289.263H115.503V299.218H114.763V294.552H108.399V299.218H107.658V289.263Z" fill="#524D3B"/>
<path d="M122.506 298.549C123.197 298.549 123.822 298.437 124.381 298.213C124.94 297.99 125.415 297.687 125.801 297.299C126.191 296.915 126.49 296.462 126.704 295.946C126.917 295.425 127.024 294.865 127.024 294.271V294.241C127.024 293.651 126.917 293.094 126.704 292.573C126.49 292.047 126.191 291.591 125.801 291.204C125.415 290.811 124.94 290.502 124.381 290.273C123.822 290.047 123.197 289.932 122.506 289.932H119.934V298.549H122.506ZM119.193 289.263H122.506C123.282 289.263 123.995 289.389 124.644 289.64C125.291 289.891 125.851 290.24 126.32 290.685C126.789 291.13 127.15 291.656 127.408 292.257C127.663 292.857 127.792 293.509 127.792 294.211V294.241C127.792 294.942 127.663 295.597 127.408 296.202C127.15 296.808 126.789 297.335 126.32 297.78C125.851 298.227 125.291 298.579 124.644 298.833C123.995 299.087 123.282 299.218 122.506 299.218H119.193V289.263Z" fill="#524D3B"/>
<path d="M585.039 182.2C585.331 182.2 585.594 182.185 585.594 181.864C585.594 181.586 585.36 181.549 585.134 181.549H584.688V182.2H585.039ZM584.366 181.257H585.192C585.667 181.257 585.923 181.454 585.923 181.878C585.923 182.258 585.667 182.434 585.346 182.47L585.953 183.392H585.631L585.039 182.5H584.688V183.392H584.366V181.257ZM586.596 182.317C586.596 181.469 585.923 180.782 585.09 180.782C584.256 180.782 583.591 181.469 583.591 182.317C583.591 183.158 584.256 183.845 585.09 183.845C585.923 183.845 586.596 183.158 586.596 182.317ZM585.09 180.489C586.106 180.489 586.918 181.308 586.918 182.317C586.918 183.326 586.106 184.145 585.09 184.145C584.081 184.145 583.27 183.326 583.27 182.317C583.27 181.308 584.081 180.489 585.09 180.489Z" fill="#212529"/>
<path d="M531.48 151.458V178.486L536.05 175.108V156.071L531.48 151.458Z" fill="#212529"/>
<path d="M541.309 157.782L547.267 156.43L549.672 154.456V150.889L541.309 157.782Z" fill="#212529"/>
<path d="M540.561 114.7L532.146 110.826L539.75 119.343L542.63 116.499L540.561 114.7Z" fill="#212529"/>
<path d="M571.99 125.469C571.887 124.987 571.5 124.621 571.273 124.27C570.813 123.576 570.191 123.554 569.76 123.554C569.373 123.554 568.737 123.422 568.517 123.488C568.064 123.612 567.391 124.08 567.092 124.314C566.967 124.417 566.068 125.016 565.885 125.257C565.783 125.389 565.315 126.127 564.957 126.434C564.65 126.712 563.831 126.968 563.4 127.282C563.129 127.341 562.574 127.436 562.34 127.531C562.113 127.619 561.207 128.094 561.002 128.167C560.87 128.211 560.234 128.394 560.03 128.467C559.883 128.518 559.474 128.781 559.415 128.796C559.108 128.883 558.509 128.935 558.165 128.861C557.975 128.825 556.703 128.094 555.709 128.262C555.256 128.342 554.875 128.525 554.693 128.715C554.415 128.781 554.013 128.978 553.896 129.205C553.786 129.432 553.581 129.424 553.443 129.666C553.187 130.148 553.019 130.828 553.011 130.945C552.975 131.398 553.084 131.786 553.157 132.173C553.355 133.263 552.997 133.701 552.288 134.067C552.134 134.154 551.586 134.549 551.439 134.615C551.242 134.71 550.46 134.973 550.27 135.083C549.509 135.507 548.822 135.763 548.661 135.916C547.945 136.596 546.834 137.225 546.834 137.225C546.461 137.459 545.825 137.817 545.013 138.27C544.531 138.541 543.8 139.177 543.676 139.265C543.544 139.352 542.857 139.681 542.659 139.806C542.528 139.901 541.921 140.354 541.738 140.456C541.343 140.668 540.846 140.814 540.32 140.961C539.465 141.202 538.58 141.458 538.017 142.079C537.162 143.037 536.796 144.506 537.235 145.654C537.666 146.802 538.66 147.467 539.15 147.672C539.925 147.994 541.212 147.913 541.797 147.474C542.177 147.189 542.382 146.758 542.557 146.371C542.623 146.232 542.842 145.764 543.186 145.435C543.544 145.084 544.092 144.163 544.246 144.017C544.604 143.666 545.05 143.366 545.554 143.117C546.585 142.598 547.229 141.955 547.557 141.655C547.791 141.443 547.989 141.202 548.252 141.056C549.276 140.5 549.802 140.098 550.124 139.849C550.401 139.645 551.213 139.257 551.651 139.023C552.097 138.789 552.631 138.329 552.828 138.241C553.092 138.11 553.552 138.102 553.728 138.219C553.903 138.329 554.327 138.936 554.598 142.094C554.612 142.247 554.627 143.512 554.634 143.717C554.634 144.038 554.751 145.069 554.744 145.172C554.7 145.771 554.744 146.495 554.795 147.182C554.802 147.204 554.751 147.789 554.861 148.439C554.934 148.863 554.897 149.785 554.861 150.15C554.817 150.486 554.854 150.823 554.861 151.152C554.875 151.978 554.751 152.775 554.744 152.965C554.737 153.111 554.729 154.061 554.678 154.412C554.663 154.485 554.532 155.026 554.51 155.202C554.473 155.619 554.678 156.876 554.649 157.146C554.605 157.512 554.495 157.878 554.386 158.265C554.181 158.945 553.94 159.705 554.064 160.619C554.122 161.123 554.232 161.708 554.444 162.308C554.451 162.33 554.656 163.127 554.729 163.507C554.729 163.507 555 164.413 555.095 164.969C555.161 165.408 555.102 166.066 555.109 166.219C555.109 166.526 555.336 167.506 555.358 167.652C555.365 167.762 555.299 168.412 555.336 168.653C555.424 169.187 555.621 170.167 556.213 170.525C556.937 170.971 557.588 170.927 558.019 171.051C559.064 171.373 560.293 171.183 560.973 170.92C561.192 170.832 561.462 170.642 561.594 170.437C561.733 170.225 562.033 170.043 562.23 169.75C562.457 169.392 562.778 168.017 562.99 167.425C563.217 166.811 562.968 165.598 562.808 165.101C562.749 164.94 562.193 163.616 562.055 163.317C561.916 163.01 561.813 161.716 561.762 161.438C561.726 161.248 561.492 160.4 561.462 160.224C561.448 160.107 561.492 159.376 561.455 159.15C561.272 158.053 561.404 156.956 561.528 155.896C561.528 155.896 561.506 154.836 561.521 154.69C561.587 154.076 561.609 153.389 561.631 152.724C561.645 152.263 561.66 151.839 561.689 151.473C561.704 151.254 561.565 150.691 561.645 150.231C561.682 150.048 561.528 149.295 561.521 149.214C561.477 148.805 561.645 147.014 561.609 146.531C561.594 146.356 561.382 145.34 561.309 144.411C561.309 144.411 561.265 143.242 561.287 142.905C561.316 142.459 561.243 141.355 561.258 140.354C561.265 140.018 561.141 137.993 561.111 137.766C561.053 137.364 561.009 136.604 561.097 135.96C561.228 134.915 561.126 134.725 561.258 133.994C561.375 133.306 562.559 132.802 562.654 132.78C562.925 132.722 563.838 132.539 564.072 132.334C564.621 131.852 565.315 131.647 565.637 131.552C566.134 131.406 566.397 131.025 566.565 130.93C566.777 130.821 567.443 130.404 567.64 130.302C567.845 130.192 568.079 129.856 568.568 129.731C568.81 129.673 569.168 129.41 569.533 129.286C569.789 129.205 570.206 129.081 570.286 129.03C571.149 128.489 572.289 126.99 571.99 125.469ZM581.976 133.518C581.676 134.023 581.289 134.681 581.165 134.922C581.135 134.973 580.631 136.216 580.163 136.764C579.819 137.174 579.651 137.905 579.564 138.248C579.549 138.322 579.403 138.724 579.227 139.067C579.052 139.396 578.65 140.295 578.65 140.295C578.65 140.295 577.612 141.918 577.56 141.999C577.429 142.247 577.188 142.576 576.932 142.935C576.683 143.278 576.267 143.863 576.215 144.031C576.062 144.711 575.769 145.135 575.55 145.435C575.462 145.566 575.367 145.698 575.353 145.764C575.133 146.941 574.563 147.95 573.934 148.286C573.671 148.432 573.386 148.454 573.13 148.352C572.224 147.964 571.997 147.219 571.756 146.436C571.756 146.436 571.529 145.135 571.5 144.455C571.485 144.075 571.463 143.68 571.434 143.322C571.376 142.803 571.31 142.277 571.244 141.772C571.164 141.078 570.981 139.243 570.981 139.243C570.842 137.547 570.769 136.604 569.723 135.88C569.438 135.682 568.663 135.675 568.583 135.66C567.947 135.595 567.194 135.638 566.741 135.755C566.587 135.799 565.871 136.267 565.717 136.348C565.279 136.589 564.738 136.896 564.577 137.21C564.226 137.905 564.219 139.506 564.555 141.48C564.599 141.721 565.162 143.242 565.403 143.892C565.403 143.892 566.046 145.793 566.244 146.48C566.39 146.985 566.828 148.41 566.828 148.41C567.07 149.112 567.384 150.07 567.486 150.669C567.596 151.283 567.764 151.883 567.947 152.526C568.13 153.148 568.305 153.784 568.437 154.463C568.459 154.58 568.795 155.699 568.817 155.867C568.839 156.021 569.117 156.993 569.234 157.329C569.343 157.644 569.46 157.965 569.548 158.265C569.818 159.23 570.133 159.968 570.513 160.78C570.805 161.409 571.047 161.876 571.171 162.067C571.939 163.185 572.545 163.711 573.986 163.704C575.038 163.697 575.609 163.565 575.967 163.236C576.449 162.79 576.859 162.227 576.976 162.052C577.407 161.394 577.736 160.561 577.897 159.727C577.985 159.274 577.963 158.762 577.948 158.221C577.926 157.717 577.904 157.198 577.97 156.686C578.014 156.372 578.175 155.26 578.591 154.23C578.621 154.171 578.913 153.535 579.015 153.148C579.176 152.526 579.52 152.022 579.849 151.532C579.988 151.32 580.119 151.122 580.229 150.925C580.47 150.494 581.545 148.659 581.691 148.447C581.779 148.308 581.881 148.162 581.976 148.023L581.983 178.494H550.855V148.169L539.53 157.819L530.312 148.315V178.494H499V110H529.785L539.655 121.046L550.76 110H581.976V133.518Z" fill="#212529"/>
<path d="M583.257 132.012C583.44 131.808 583.623 131.61 583.798 131.376C583.966 131.15 584.339 130.601 584.661 130.126C584.866 129.819 585.436 129.066 585.619 128.883C585.794 128.701 587.103 126.939 587.307 126.676C587.381 126.559 587.929 126.01 588.251 125.689C588.704 125.228 588.865 125.067 588.923 124.987C589.186 124.636 589.471 124.292 589.742 123.956C590.02 123.627 590.312 123.283 590.568 122.933C590.685 122.779 590.992 122.238 591.072 122.128C591.358 121.756 592.739 120.476 592.783 120.44C593.426 119.906 594.143 119.387 595.196 119.299C596.336 119.204 597.557 119.416 598.164 119.833C599.034 120.41 599.765 121.595 599.801 122.465C599.838 123.291 599.779 123.642 599.604 124.504C599.509 124.928 599.275 125.974 598.939 126.588C598.792 126.858 598.208 127.714 597.769 128.05C597.338 128.364 596.716 128.686 596.446 128.774C596.212 128.861 595.02 129.417 594.699 129.593C594.121 129.9 593.807 130.251 593.507 130.587C593.346 130.755 593.2 130.916 593.017 131.084C592.944 131.142 591.884 131.581 591.496 132.473C591.27 133.014 590.217 134.14 590.027 134.461C589.778 134.929 589.391 135.631 589.003 136.019C588.762 136.245 588.47 136.72 588.148 137.269C587.892 137.678 587.614 138.146 587.454 138.322C587.052 138.753 586.818 139.316 586.628 139.762C586.554 139.952 585.889 140.895 585.641 141.546C585.531 141.845 584.961 142.803 584.902 142.949C584.771 143.264 584.032 143.973 583.966 144.119C583.857 144.338 583.762 144.631 583.659 144.938C583.572 145.208 583.345 145.756 583.272 145.91V178.494L588.309 175.006V138.921C588.499 138.607 589.727 136.932 589.837 136.83C590.327 136.355 590.758 135.514 591.05 135.002C591.138 134.834 592.067 133.555 592.432 133.072C592.652 132.773 592.864 132.597 593.002 132.422C593.061 132.356 593.748 131.954 593.902 131.822C594.136 131.618 594.253 131.413 594.421 131.23C594.684 130.93 594.932 130.733 595.364 130.492C595.678 130.324 596.804 129.856 596.965 129.805C597.352 129.666 598.113 129.227 598.602 128.854C599.26 128.364 599.911 127.18 600.021 126.99C600.394 126.288 600.664 125.235 600.781 124.658C600.964 123.781 600.986 123.174 600.949 122.216C600.898 121.046 599.911 119.584 598.792 118.824C598.003 118.29 596.497 117.991 595.115 118.107C593.792 118.21 593.061 118.948 592.249 119.416C591.284 119.972 590.524 121.01 590.188 121.448C590.071 121.602 589.727 122.085 589.647 122.187C589.435 122.457 588.521 123.7 588.309 123.971V113.034L583.25 110L583.257 132.012Z" fill="#212529"/>
<path d="M499 180.547H501.639L502.495 184.853H502.516L503.379 180.547H506.018V187.873H504.264V183.172H504.242L503.196 187.873H501.815L500.769 183.172H500.755V187.873H499V180.547Z" fill="#212529"/>
<path d="M512.16 185.036C512.16 187.076 511.261 188.055 509.419 188.055C507.584 188.055 506.67 187.076 506.67 185.036V180.547H508.52V184.539C508.52 185.292 508.52 186.22 509.426 186.22C510.303 186.22 510.303 185.292 510.303 184.539V180.547H512.16V185.036Z" fill="#212529"/>
<path d="M514.558 185.402C514.558 185.592 514.58 185.76 514.624 185.884C514.755 186.33 515.165 186.425 515.508 186.425C515.816 186.425 516.276 186.294 516.276 185.76C516.276 185.372 516.013 185.27 514.975 184.912C514.024 184.583 512.935 184.261 512.935 182.792C512.935 181.096 514.127 180.365 515.362 180.365C516.678 180.365 517.826 180.979 517.877 182.762H516.123C516.159 182.477 516.057 182.295 515.911 182.17C515.75 182.039 515.545 181.988 515.355 181.988C515.106 181.988 514.69 182.068 514.69 182.477C514.726 183.004 515.582 183.113 516.437 183.399C517.285 183.698 518.133 184.173 518.133 185.511C518.133 187.427 516.693 188.048 515.348 188.048C514.668 188.048 512.708 187.741 512.701 185.402H514.558Z" fill="#212529"/>
<path d="M518.732 187.873H520.592V180.545H518.732V187.873Z" fill="#212529"/>
<path d="M525.284 183.274C525.247 183.011 525.079 182.2 524.319 182.2C523.449 182.2 523.164 183.223 523.164 184.21C523.164 185.197 523.449 186.228 524.319 186.228C524.933 186.228 525.181 185.687 525.291 185H527.119C527.119 186.484 526.132 188.048 524.363 188.048C522.418 188.048 521.307 186.374 521.307 184.21C521.307 181.907 522.506 180.372 524.363 180.372C526.015 180.387 526.929 181.439 527.089 183.274H525.284Z" fill="#212529"/>
<path d="M531.921 182.419H530.232V180.54H535.467V182.419H533.778V187.873H531.921V182.419Z" fill="#212529"/>
<path d="M536.008 180.547H540.994V182.426H537.865V183.333H540.709V185.08H537.865V186.001H541.089V187.873H536.008V180.547Z" fill="#212529"/>
<path d="M541.658 180.547H543.515V186.001H546.184V187.873H541.658V180.547Z" fill="#212529"/>
<path d="M546.645 180.547H551.63V182.426H548.501V183.333H551.345V185.08H548.501V186.001H551.718V187.873H546.645V180.547Z" fill="#212529"/>
<path d="M556.091 187.873H554.015L552.217 180.547H554.088L555.075 184.992H555.097L556.07 180.547H557.97L556.091 187.873Z" fill="#212529"/>
<path d="M558.662 187.873H560.523V180.545H558.662V187.873Z" fill="#212529"/>
<path d="M563.101 185.402C563.101 185.592 563.13 185.76 563.16 185.884C563.306 186.33 563.708 186.425 564.051 186.425C564.358 186.425 564.826 186.294 564.826 185.76C564.826 185.372 564.556 185.27 563.525 184.912C562.567 184.583 561.478 184.261 561.478 182.792C561.478 181.096 562.677 180.365 563.913 180.365C565.214 180.365 566.376 180.979 566.427 182.762H564.673C564.702 182.477 564.6 182.295 564.454 182.17C564.3 182.039 564.088 181.988 563.898 181.988C563.649 181.988 563.233 182.068 563.233 182.477C563.269 183.004 564.132 183.113 564.98 183.399C565.835 183.698 566.676 184.173 566.676 185.511C566.676 187.427 565.236 188.048 563.891 188.048C563.211 188.048 561.259 187.741 561.244 185.402H563.101Z" fill="#212529"/>
<path d="M567.283 187.873H569.138V180.545H567.283V187.873Z" fill="#212529"/>
<path d="M572.825 186.22C573.293 186.22 574.024 185.84 574.024 184.21C574.024 182.58 573.293 182.2 572.825 182.2C572.35 182.2 571.626 182.58 571.626 184.21C571.626 185.84 572.35 186.22 572.825 186.22ZM572.825 180.365C574.653 180.365 575.873 181.973 575.873 184.21C575.873 186.447 574.653 188.048 572.825 188.048C570.99 188.048 569.762 186.447 569.762 184.21C569.762 181.973 570.99 180.365 572.825 180.365Z" fill="#212529"/>
<path d="M576.566 180.547H578.467L580.222 184.466H580.236V180.547H581.991V187.873H580.185L578.336 183.874H578.321V187.873H576.566V180.547Z" fill="#212529"/>
</svg>
