<svg width="26" height="23" viewBox="0 0 26 23" fill="none" xmlns="http://www.w3.org/2000/svg">
<path fill-rule="evenodd" clip-rule="evenodd" d="M4.23042 2.35832H21.1523C21.8255 2.35832 22.4712 2.61967 22.9472 3.08487C23.4232 3.55007 23.6906 4.18102 23.6906 4.83892V13.1076C23.6906 13.7655 23.4232 14.3964 22.9472 14.8616C22.4712 15.3268 21.8255 15.5882 21.1523 15.5882H12.6914C12.5802 15.588 12.4701 15.6092 12.3673 15.6506C12.2645 15.6921 12.1711 15.7529 12.0923 15.8296L8.4609 19.3802V16.415C8.4609 16.1957 8.37176 15.9854 8.21309 15.8304C8.05441 15.6753 7.8392 15.5882 7.61481 15.5882H4.23042C3.55723 15.5882 2.91161 15.3268 2.43559 14.8616C1.95956 14.3964 1.69214 13.7655 1.69214 13.1076V4.83892C1.69214 4.18102 1.95956 3.55007 2.43559 3.08487C2.91161 2.61967 3.55723 2.35832 4.23042 2.35832ZM21.1523 0.70459H4.23042C3.10843 0.70459 2.03239 1.14017 1.23903 1.91551C0.445658 2.69084 -5.34058e-05 3.74243 -5.34058e-05 4.83892V13.1076C-5.34058e-05 13.6505 0.109371 14.1881 0.321974 14.6897C0.534575 15.1913 0.846189 15.6471 1.23903 16.031C1.63186 16.4149 2.09822 16.7194 2.61149 16.9272C3.12476 17.135 3.67487 17.2419 4.23042 17.2419H6.76871V21.3762C6.76841 21.54 6.81787 21.7001 6.91082 21.8364C7.00377 21.9726 7.13602 22.0789 7.29081 22.1416C7.4456 22.2043 7.61596 22.2206 7.78029 22.1886C7.94461 22.1566 8.09551 22.0776 8.21384 21.9617L13.0417 17.2419H21.1523C22.2743 17.2419 23.3504 16.8063 24.1437 16.031C24.9371 15.2557 25.3828 14.2041 25.3828 13.1076V4.83892C25.3828 3.74243 24.9371 2.69084 24.1437 1.91551C23.3504 1.14017 22.2743 0.70459 21.1523 0.70459Z" fill="#6CF5E5"/>
<ellipse cx="6.01172" cy="9.19103" rx="2.00391" ry="1.95837" fill="#6CF5E5"/>
<ellipse cx="12.6914" cy="9.19103" rx="2.00391" ry="1.95837" fill="#6CF5E5"/>
<ellipse cx="19.3716" cy="9.19103" rx="2.00391" ry="1.95837" fill="#6CF5E5"/>
</svg>
