<svg width="16" height="17" viewBox="0 0 16 17" fill="none" xmlns="http://www.w3.org/2000/svg">
<path d="M14.8146 0H5.33313C5.0188 0 4.71735 0.124867 4.49508 0.347132C4.27282 0.569396 4.14795 1.68567 4.14795 2H9.48127H14.8146V15.4074H5.33313V9.59997H4.14795V15.4074C4.14795 15.7217 4.27282 16.0232 4.49508 16.2454C4.71735 16.4677 5.0188 16.5925 5.33313 16.5925H14.8146C15.1289 16.5925 15.4304 16.4677 15.6526 16.2454C15.8749 16.0232 15.9998 15.7217 15.9998 15.4074V1.18518C15.9998 0.870852 15.8749 0.569396 15.6526 0.347132C15.4304 0.124867 15.1289 0 14.8146 0Z" fill="black"/>
<path d="M7.1822 9.16914C7.12017 9.22227 7.06979 9.28764 7.03422 9.36116C6.99865 9.43468 6.97866 9.51476 6.97551 9.59637C6.97236 9.67798 6.98611 9.75936 7.0159 9.83541C7.04569 9.91145 7.09088 9.98052 7.14863 10.0383C7.20638 10.096 7.27545 10.1412 7.35149 10.171C7.42754 10.2008 7.50892 10.2145 7.59053 10.2114C7.67214 10.2082 7.75222 10.1883 7.82574 10.1527C7.89926 10.1171 7.96463 10.0667 8.01776 10.0047L11.4489 6.57359L8.02368 3.14249C7.91032 3.04541 7.7645 2.99468 7.61536 3.00044C7.46621 3.0062 7.32474 3.06803 7.2192 3.17357C7.11367 3.2791 7.05184 3.42058 7.04608 3.56972C7.04032 3.71886 7.09105 3.86468 7.18813 3.97805L9.18516 5.9336H0.592591C0.435426 5.9336 0.284698 5.99603 0.173566 6.10716C0.0624335 6.21829 0 6.36902 0 6.52619C0 6.68335 0.0624335 6.83408 0.173566 6.94521C0.284698 7.05634 0.435426 7.11878 0.592591 7.11878H9.18516L7.1822 9.16914Z" fill="black"/>
</svg>
