<svg width="18" height="18" viewBox="0 0 18 18" fill="none" xmlns="http://www.w3.org/2000/svg">
<path d="M8.92676 4.4856C8.48175 4.4856 8.04674 4.61756 7.67673 4.86479C7.30672 5.11202 7.01833 5.46342 6.84803 5.87456C6.67773 6.28569 6.63318 6.73809 6.71999 7.17455C6.80681 7.61101 7.0211 8.01192 7.33577 8.32659C7.65044 8.64125 8.05135 8.85555 8.48781 8.94236C8.92426 9.02918 9.37667 8.98462 9.7878 8.81432C10.1989 8.64403 10.5503 8.35564 10.7976 7.98563C11.0448 7.61562 11.1768 7.1806 11.1768 6.7356C11.1761 6.13907 10.9388 5.56717 10.517 5.14536C10.0952 4.72355 9.52329 4.48627 8.92676 4.4856ZM8.92676 7.8606C8.70426 7.8606 8.48675 7.79462 8.30174 7.671C8.11674 7.54738 7.97254 7.37168 7.8874 7.16611C7.80225 6.96055 7.77997 6.73435 7.82338 6.51612C7.86678 6.29789 7.97393 6.09743 8.13126 5.9401C8.2886 5.78277 8.48906 5.67562 8.70728 5.63221C8.92551 5.5888 9.15171 5.61108 9.35728 5.69623C9.56285 5.78138 9.73855 5.92557 9.86217 6.11058C9.98578 6.29558 10.0518 6.51309 10.0518 6.7356C10.0514 7.03386 9.93278 7.31981 9.72188 7.53071C9.51097 7.74161 9.22502 7.86025 8.92676 7.8606Z" fill="black"/>
<path d="M13.251 2.40874C12.1819 1.34001 10.755 0.705138 9.24538 0.62666C7.73581 0.548182 6.25067 1.03166 5.07661 1.98379C3.90254 2.93591 3.12278 4.28918 2.88781 5.78242C2.65285 7.27566 2.97933 8.803 3.80426 10.0697L8.0549 16.5951C8.14949 16.7403 8.27882 16.8596 8.43118 16.9422C8.58353 17.0248 8.75409 17.0681 8.92739 17.0681C9.10068 17.0681 9.27124 17.0248 9.4236 16.9422C9.57595 16.8596 9.70529 16.7403 9.79988 16.5951L14.0507 10.0697C14.8161 8.89465 15.1544 7.49223 15.0088 6.09746C14.8632 4.70269 14.2426 3.40036 13.251 2.40874ZM13.108 9.4556L8.92741 15.8734L4.74673 9.4556C3.46704 7.49111 3.74151 4.86212 5.39933 3.20423C5.86264 2.7409 6.41267 2.37338 7.01802 2.12263C7.62337 1.87188 8.27218 1.74282 8.92741 1.74282C9.58263 1.74282 10.2314 1.87188 10.8368 2.12263C11.4421 2.37338 11.9922 2.7409 12.4555 3.20423C14.1133 4.86212 14.3877 7.49111 13.108 9.4556Z" fill="black"/>
</svg>
