<svg width="63" height="63" viewBox="0 0 63 63" fill="none" xmlns="http://www.w3.org/2000/svg">
<path d="M63 31.5C63 48.897 48.897 63 31.5 63C14.103 63 0 48.897 0 31.5C0 14.103 14.103 0 31.5 0C48.897 0 63 14.103 63 31.5Z" fill="white"/>
<path fill-rule="evenodd" clip-rule="evenodd" d="M31.5 62C48.3447 62 62 48.3447 62 31.5C62 14.6553 48.3447 1 31.5 1C14.6553 1 1 14.6553 1 31.5C1 48.3447 14.6553 62 31.5 62ZM31.5 63C48.897 63 63 48.897 63 31.5C63 14.103 48.897 0 31.5 0C14.103 0 0 14.103 0 31.5C0 48.897 14.103 63 31.5 63Z" fill="black"/>
<path fill-rule="evenodd" clip-rule="evenodd" d="M45.0992 33.8987C45.6719 33.384 46 32.6481 46 31.8778C46 31.1075 45.6719 30.3716 45.101 29.8569L36.0385 21.6988C34.922 20.6947 33.2019 20.7817 32.1978 21.9018C31.1937 23.0165 31.2843 24.7366 32.4008 25.7407L36.1944 29.1572H19.7188C18.2162 29.1572 17 30.3734 17 31.876C17 33.3786 18.2162 34.5947 19.7188 34.5947H36.198L32.399 38.0113C31.2825 39.0172 31.1919 40.7355 32.196 41.8502C32.7343 42.4465 33.4756 42.751 34.2188 42.751C34.8676 42.751 35.5183 42.5208 36.0367 42.0532L45.0992 33.8987ZM32.9387 41.1805C33.2805 41.559 33.7484 41.751 34.2188 41.751C34.6309 41.751 35.04 41.6055 35.3669 41.3107L44.4303 33.1554C44.792 32.8303 45 32.3644 45 31.8778C45 31.391 44.7922 30.9249 44.4314 30.5996L35.3698 22.4423C34.6621 21.8059 33.5754 21.8632 32.9424 22.5693L32.9408 22.5711C32.3068 23.2749 32.3636 24.3622 33.0695 24.9971L38.799 30.1572H19.7188C18.7685 30.1572 18 30.9257 18 31.876C18 32.8263 18.7685 33.5947 19.7188 33.5947H38.8054L33.0684 38.7542C33.0682 38.7544 33.0685 38.7541 33.0684 38.7542C32.3618 39.3914 32.3055 40.4773 32.9387 41.1805Z" fill="#212529"/>
</svg>
