<svg width="54" height="43" viewBox="0 0 54 43" fill="none" xmlns="http://www.w3.org/2000/svg">
<path d="M26.8858 42.2505C29.007 42.2505 30.7266 40.5309 30.7266 38.4096C30.7266 36.2884 29.007 34.5688 26.8858 34.5688C24.7645 34.5688 23.0449 36.2884 23.0449 38.4096C23.0449 40.5309 24.7645 42.2505 26.8858 42.2505Z" fill="#D61A69"/>
<path d="M16.2656 27.3348L18.9811 30.0484C21.1094 28.0217 23.9347 26.8899 26.8735 26.8867C29.8123 26.8835 32.6401 28.0091 34.7728 30.0311L37.4864 27.3175C34.6341 24.5744 30.8294 23.0437 26.8721 23.0473C22.9148 23.0509 19.1129 24.5884 16.2656 27.3367V27.3348Z" fill="#D61A69"/>
<path d="M8.12109 19.1915L10.8366 21.9051C15.1229 17.7149 20.8779 15.3671 26.8721 15.3636C32.8662 15.36 38.6241 17.7008 42.9154 21.8859L45.629 19.1723C40.6183 14.2661 33.8838 11.52 26.8711 11.5236C19.8584 11.5272 13.1267 14.2802 8.12109 19.1915Z" fill="#D61A69"/>
<path d="M53.772 11.0257C46.6067 3.96074 36.9485 0 26.886 0C16.8234 0 7.16526 3.96074 0 11.0257V11.0699L2.69628 13.7662C9.138 7.41063 17.8223 3.84568 26.8715 3.84209C35.9207 3.83849 44.6078 7.39654 51.0546 13.747L53.772 11.0296V11.0257Z" fill="#D61A69"/>
</svg>
