<svg width="60" height="82" viewBox="0 0 60 82" fill="none" xmlns="http://www.w3.org/2000/svg">
<path fill-rule="evenodd" clip-rule="evenodd" d="M31.823 0.354877C27.5829 1.05372 22.9585 2.80733 19.1447 5.16343C14.907 7.78082 13.7493 9.0402 14.2438 10.4912C14.8376 12.2312 16.7725 11.9342 19.6198 9.66593C22.5255 7.3512 27.2455 5.15323 31.0745 4.33197C39.0809 2.61406 48.3668 4.72191 54.5735 9.66593C57.2788 11.8208 59.271 12.2221 59.8843 10.7354C60.4604 9.33833 58.8928 7.53824 55.0169 5.1436C48.4259 1.07242 39.1223 -0.848396 31.823 0.354877ZM31.6147 6.76458C25.4896 7.99336 17.9942 12.4794 18.3365 14.7125C18.6124 16.5121 21.0534 16.5948 23.0023 14.8707C23.8873 14.0879 26.1188 12.7277 27.9611 11.848C30.9429 10.4243 31.9466 10.2486 37.0966 10.2486C42.2466 10.2486 43.2503 10.4243 46.2321 11.848C48.0745 12.7277 50.2822 14.0664 51.1379 14.8236C53.1027 16.5614 55.1429 16.6192 55.7112 14.9523C56.5407 12.5191 48.6177 7.80463 41.7046 6.61779C37.3518 5.87077 35.9717 5.89061 31.6147 6.76458ZM32.1945 12.9708C29.0641 13.7943 25.6979 15.5899 23.9878 17.3481C23.104 18.2572 22.9865 18.7565 23.4841 19.4922C24.514 21.0134 25.7387 20.9029 28.226 19.0631C29.5007 18.12 31.5386 17.0919 32.7542 16.7773C37.5577 15.5361 42.3094 16.3579 45.9672 19.0631C48.4582 20.9052 49.6793 21.0134 50.714 19.4842C51.2299 18.7219 51.0581 18.2107 49.8998 17.063C46.2096 13.4078 37.864 11.4791 32.1945 12.9708ZM34.8822 19.13C33.2256 19.8765 32.0703 22.2093 32.5818 23.7748C33.9759 28.0415 39.9518 28.1973 41.5462 24.0088C42.1297 22.4763 40.8404 19.8203 39.1692 19.1119C37.3622 18.3456 36.6155 18.3484 34.8822 19.13ZM46.9106 29.094C43.6322 31.6275 45.4313 36.6038 49.6263 36.6038C53.948 36.6038 55.8908 31.7261 52.5448 29.2771C50.5837 27.8414 48.6147 27.7774 46.9106 29.094ZM0.893763 31.0624C-0.39191 32.7701 -0.298119 33.9553 1.22447 35.2407C2.29028 36.1402 3.75684 36.3675 10.0189 36.6038L17.5344 36.8872L10.3149 45.8452C6.34402 50.7722 2.93525 55.1919 2.73914 55.6669C2.19466 56.988 3.00042 59.2398 4.23858 59.8565C4.84884 60.1609 10.6986 60.4085 17.2628 60.4085C28.3673 60.4085 29.262 60.3315 30.3972 59.275C31.9095 57.8677 31.9649 55.778 30.5227 54.5628C29.6603 53.8367 27.8058 53.6095 21.7197 53.4831L14.0087 53.3238L21.2964 44.329C25.3045 39.3816 28.748 34.7249 28.9483 33.9808C29.1682 33.1663 28.9179 32.0662 28.3186 31.2154L27.324 29.8025H14.583C2.10696 29.8025 1.82193 29.8285 0.893763 31.0624ZM33.6891 30.9944C32.6379 32.0735 32.5112 33.3239 32.3431 44.282C32.1397 57.5412 32.5325 59.4654 35.585 60.1784C37.9895 60.7401 40.0425 59.9636 41.0773 58.1012C41.8806 56.6565 42.0054 54.403 41.8501 44.1726C41.6668 32.1263 41.6455 31.9534 40.2265 30.885C38.2946 29.4307 35.1605 29.4828 33.6891 30.9944ZM46.2766 40.9312C45.142 42.2733 45.0141 43.1938 45.0141 50.0251C45.0141 57.3394 45.0707 57.6784 46.5093 59.0171C48.3473 60.7282 51.0009 60.8274 52.8164 59.2529C54.0692 58.1669 54.1496 57.603 54.1496 49.901C54.1496 42.4603 54.0375 41.6005 52.9315 40.5713C51.1178 38.8834 47.8583 39.0597 46.2766 40.9312ZM2.88348 73.4411L5.68748 82L7.43602 81.8311C9.07615 81.673 9.3088 81.3108 11.1828 75.995C12.3162 72.7802 13.3351 70.695 13.5367 71.1774C13.7322 71.6449 14.608 74.2595 15.482 76.9868C17.0027 81.7302 17.1483 81.9462 18.8256 81.9462C20.4998 81.9462 20.6521 81.7228 22.2033 76.9868C23.0973 74.2595 24.3434 70.4972 24.9732 68.6268C25.6029 66.7565 26.1218 65.1621 26.1261 65.0845C26.1303 65.0068 25.3215 64.9428 24.3282 64.9428C22.1607 64.9428 21.7824 65.5356 20.3482 71.1774C19.7537 73.5153 19.1222 75.6645 18.9443 75.9536C18.7659 76.2427 17.7671 73.9472 16.7244 70.8526C14.9966 65.7244 14.6951 65.2262 13.3248 65.2262C11.8235 65.2262 11.1682 66.5201 8.15833 75.4282C7.89523 76.2058 7.26305 74.7821 6.14425 70.894L4.51326 65.2262L2.29637 65.0539L0.0800933 64.8816L2.88348 73.4411ZM28.5701 73.4445V81.9462H30.3972H32.2243V73.4445V64.9428H30.3972H28.5701V73.4445ZM35.8786 73.4445V81.9462H38.0102H40.1418V78.5455V75.1448H43.187C46.0293 75.1448 46.2321 75.0502 46.2321 73.7279C46.2321 72.4056 46.0293 72.3109 43.187 72.3109H40.1418V70.0438V67.7767H43.796C47.2876 67.7767 47.4502 67.7138 47.4502 66.3597C47.4502 64.9479 47.4301 64.9428 41.6644 64.9428H35.8786V73.4445ZM50.4954 73.4445V81.9462H52.3225H54.1496V73.4445V64.9428H52.3225H50.4954V73.4445Z" fill="#D61A69"/>
</svg>
